<?xml version="1.0" encoding="UTF-8" standalone="no"?>
<!-- Created with Inkscape (http://www.inkscape.org/) -->

<svg
   width="32"
   height="32"
   viewBox="0 0 8.4666666 8.4666666"
   version="1.1"
   id="svg1"
   xml:space="preserve"
   inkscape:version="1.4.3 (0d15f75, 2025-12-25)"
   sodipodi:docname="EarthIcon.svg"
   inkscape:export-filename="EarthIcon.svg"
   inkscape:export-xdpi="96"
   inkscape:export-ydpi="96"
   xmlns:inkscape="http://www.inkscape.org/namespaces/inkscape"
   xmlns:sodipodi="http://sodipodi.sourceforge.net/DTD/sodipodi-0.dtd"
   xmlns="http://www.w3.org/2000/svg"
   xmlns:svg="http://www.w3.org/2000/svg"><sodipodi:namedview
     id="namedview1"
     pagecolor="#ffffff"
     bordercolor="#000000"
     borderopacity="0.25"
     inkscape:showpageshadow="2"
     inkscape:pageopacity="0.0"
     inkscape:pagecheckerboard="0"
     inkscape:deskcolor="#d1d1d1"
     inkscape:document-units="mm"
     inkscape:zoom="23.005387"
     inkscape:cx="26.537263"
     inkscape:cy="12.279733"
     inkscape:window-width="1920"
     inkscape:window-height="1009"
     inkscape:window-x="-8"
     inkscape:window-y="-8"
     inkscape:window-maximized="1"
     inkscape:current-layer="layer2"
     showgrid="true"><inkscape:grid
       id="grid7"
       units="mm"
       originx="0"
       originy="0"
       spacingx="0.99999999"
       spacingy="0.99999999"
       empcolor="#0099e5"
       empopacity="0.30196078"
       color="#0099e5"
       opacity="0.14901961"
       empspacing="5"
       enabled="true"
       visible="true" /></sodipodi:namedview><defs
     id="defs1" /><g
     inkscape:groupmode="layer"
     id="layer2"
     inkscape:label="cheatsheet"><path
       id="path29"
       style="display:inline;fill:#000000"
       d="m 3.0582113,1.0407633 c -0.029565,0.00147 -0.060064,0.018673 -0.098702,0.049609 -0.1372604,0.1099007 -0.1653646,0.1381538 -0.1653646,0.1648478 0,0.038239 -0.074061,0.1188558 -0.1090373,0.1188558 -0.056324,0 -0.2036348,0.1567715 -0.2175578,0.2315105 -0.00914,0.049088 -0.078283,0.090576 -0.1286743,0.076998 -0.052024,-0.014019 -0.1080576,0.046752 -0.060978,0.066146 0.010515,0.00433 0.01912,0.017416 0.01912,0.028939 0,0.00905 0.00153,0.014572 0.00413,0.01757 l 5.168e-4,5.167e-4 5.168e-4,5.168e-4 5.167e-4,5.168e-4 h 5.168e-4 l 5.168e-4,5.167e-4 h 5.167e-4 l 5.168e-4,5.168e-4 h 5.167e-4 5.168e-4 5.168e-4 c 0.00716,-9.942e-4 0.018019,-0.012731 0.026872,-0.03359 0.0088,-0.020737 0.01727,-0.031927 0.023771,-0.034106 h 5.167e-4 c 3.246e-4,1.12e-5 9.482e-4,1.54e-5 0.00103,0 l 5.167e-4,-5.168e-4 h 5.168e-4 5.168e-4 v 5.168e-4 h 5.167e-4 5.168e-4 l 5.168e-4,5.167e-4 h 5.167e-4 l 5.168e-4,5.168e-4 h 5.167e-4 l 5.168e-4,5.167e-4 c 0.00495,0.00608 0.0069,0.023532 0.00258,0.049609 -0.00467,0.028217 -0.013477,0.056929 -0.019637,0.064079 -0.00616,0.00715 -0.011369,0.027135 -0.011369,0.044442 0,0.014062 -0.0036,0.026489 -0.00879,0.030489 h -5.168e-4 l -5.167e-4,5.168e-4 h -5.168e-4 l -5.168e-4,5.168e-4 h -5.167e-4 c -2.165e-4,2.73e-5 -0.00133,0 -0.00155,0 H 2.3218221 2.3213053 2.3207886 2.3202718 L 2.319755,1.920813 c -0.010034,-0.006 -0.014549,-0.040258 -0.010335,-0.084749 0.00133,-0.013982 -0.0065,-0.023771 -0.018604,-0.023771 -0.012579,0 -0.019193,0.00923 -0.017053,0.023771 0.00194,0.013168 -0.0074,0.041614 -0.020671,0.063045 -0.017246,0.027848 -0.020615,0.045343 -0.011885,0.061495 0.017213,0.031856 0.00669,0.084051 -0.018603,0.094051 -0.011722,0.00463 -0.025092,0.014878 -0.029972,0.022738 -6.787e-4,0.00109 -0.00135,0.00188 -0.00207,0.00258 l -5.168e-4,5.168e-4 -5.168e-4,5.167e-4 -5.167e-4,5.168e-4 h -5.168e-4 l -5.168e-4,5.168e-4 c -1.877e-4,3.2e-5 -0.00136,-8.5e-6 -0.00155,0 H 2.1859131 2.1853963 2.1848796 L 2.1843628,2.0815267 H 2.183846 l -5.167e-4,-5.168e-4 c -0.00265,-0.00215 -0.00595,-0.00694 -0.00827,-0.013436 -0.00559,-0.015644 0.00112,-0.03532 0.018604,-0.055294 0.013973,-0.015969 0.025142,-0.034348 0.026355,-0.042375 1.74e-5,-2.443e-4 6.2e-6,-0.00133 0,-0.00155 V 1.9678385 1.9673218 1.966805 L 2.2195028,1.9662882 V 1.9657715 H 2.218986 v -5.168e-4 h -5.168e-4 -5.167e-4 -5.168e-4 -5.168e-4 c -0.018397,0.00591 -0.1007714,0.1190698 -0.1069702,0.151412 -0.00335,0.01746 -0.0099,0.03198 -0.015503,0.036173 l -5.168e-4,5.167e-4 -5.167e-4,5.168e-4 H 2.0928955 2.0923787 2.091862 2.0913452 2.0908285 2.0903117 l -5.168e-4,5.168e-4 c -6.1e-4,2.619e-4 -0.00195,0.00119 -0.00258,0.00155 h -5.168e-4 l -5.167e-4,5.167e-4 c -0.00322,0.0032 -0.00568,0.00892 -0.00568,0.014986 0,0.024405 -0.095512,0.1649847 -0.1173055,0.1741496 L 1.9626709,2.34611 h -5.168e-4 -5.167e-4 c -0.040966,0.00101 -0.1034866,0.079302 -0.1038697,0.1302246 -3.51e-4,0.046657 -0.0045,0.052701 -0.047542,0.06873 -0.050222,0.018702 -0.1086658,0.045187 -0.1999878,0.09095 -0.076558,0.038366 -0.2506444,0.2350416 -0.2666504,0.3012736 -0.00226,0.00937 -0.00866,0.029393 -0.014469,0.044442 -0.00581,0.01505 -0.023623,0.066388 -0.039274,0.1136882 -0.030974,0.093606 -0.1369829,0.2664718 -0.1777669,0.2899048 -0.013565,0.00779 -0.025153,0.020572 -0.025838,0.028422 v 5.168e-4 5.167e-4 5.168e-4 c -0.00262,0.010459 -0.024359,0.044566 -0.050643,0.078031 -0.02716,0.03458 -0.0497608,0.068513 -0.0511597,0.076998 v 5.168e-4 5.167e-4 c -0.001767,0.00876 -0.0301512,0.047757 -0.0645955,0.08785 -0.035559,0.04139 -0.10375824,0.1242868 -0.15141194,0.1844848 -0.0476537,0.060198 -0.10149582,0.124385 -0.11988932,0.142627 -0.0183934,0.018242 -0.0335897,0.043755 -0.0335897,0.056327 0,0.012572 -0.0121273,0.034251 -0.0268717,0.048576 -0.0376241,0.036555 -0.0846185,0.1265247 -0.10593669,0.2025717 -0.0233153,0.083171 -0.0536956,0.1326766 -0.0759643,0.1235066 -0.0105461,-0.00434 -0.0282195,0.010531 -0.043925,0.037724 -0.0143902,0.024916 -0.0365253,0.057815 -0.0496094,0.072864 -0.0130841,0.015049 -0.0274386,0.036566 -0.0315226,0.048059 -0.00637,0.017925 -0.05009,0.044764 -0.1839681,0.1121378 -0.0496904,0.025006 -0.0686258,0.115752 -0.04754232,0.2289266 0.0086452,0.046407 0.05848246,0.079982 0.08578288,0.057878 0.0371507,-0.03008 0.31368808,0.035228 0.33951416,0.080099 0.005374,0.00934 0.0162099,0.012655 0.0242879,0.00723 0.0169828,-0.011268 0.006413,-0.058849 -0.019637,-0.086816 -0.003934,-0.00423 -0.006188,-0.00912 -0.006201,-0.012919 0.005145,-0.032004 0.1593618,-0.048529 0.49195964,-0.052193 0.15802014,-0.00174 0.29240214,-0.014088 0.66249184,-0.061495 0.2931462,-0.037551 0.7809286,-0.078395 0.9658325,-0.080615 0.1153216,-0.00139 0.2348439,-0.00563 0.2656169,-0.0093 0.030773,-0.00366 0.2252493,-0.00828 0.432015,-0.010852 0.2067656,-0.00257 0.3851569,-0.00925 0.396875,-0.014469 0.011718,-0.00523 0.034005,-0.00247 0.049093,0.0062 0.015089,0.00867 0.051349,0.014242 0.080615,0.012402 0.1012598,-0.00637 0.120451,-0.00572 0.118339,0.032039 0.021091,-0.00145 0.04196,-0.00266 0.063045,-0.00413 0.1066169,-0.0078 0.2134819,-0.013412 0.3203939,-0.010852 0.065475,0.00208 0.1306147,0.00659 0.1958537,0.012402 0.064544,0.0065 0.1294983,0.00998 0.1943033,0.012402 0.084271,0.00235 0.1684238,-3.03e-4 0.2526978,-0.00155 0.091898,-0.0019 0.1840931,-3.71e-4 0.2759521,0.00258 0.084471,0.00639 0.1690653,0.00823 0.2537313,0.00723 0.053117,-1.9e-4 0.1060484,-0.00358 0.1591634,-0.00258 0.056171,0.00172 0.1119247,0.010414 0.1674317,0.018604 0.058476,0.00971 0.1171446,0.016934 0.1762166,0.021704 0.054533,0.00361 0.1093373,-9.81e-4 0.1638143,-0.00413 0.072581,-0.00348 0.1450338,-0.00795 0.2175578,-0.012402 0.066906,-0.00408 0.1340123,-0.00605 0.2010213,-0.00723 0.071464,-9.974e-4 0.1429629,-0.00131 0.2144572,-0.00155 -5.956e-4,-0.00154 -9.833e-4,-0.00306 -0.00155,-0.00465 V 4.8095256 4.8090088 4.808492 L 6.7897664,4.8079753 V 4.8074585 4.8069417 4.806425 l 5.168e-4,-5.168e-4 V 4.8053914 H 6.7908 v -5.167e-4 l 5.167e-4,-5.168e-4 h 5.168e-4 5.168e-4 c 0.00794,-0.00126 0.028996,0.00702 0.042891,0.010335 0.055835,-1.271e-4 0.1115869,1.027e-4 0.1674316,-0.00103 0.064578,-0.00219 0.1291847,-0.00391 0.1937867,-0.00517 0.062031,-0.00147 0.1240151,-8.58e-4 0.1860351,-0.00258 0.02069,-9.099e-4 0.041332,-0.00191 0.062012,-0.00258 4.44e-4,-0.00438 0.00148,-0.0084 0.0031,-0.012402 0.00209,-0.00517 0.00597,-0.00791 0.010852,-0.00879 0.010734,-0.00192 0.026865,0.00443 0.041341,0.00827 0.022651,-0.00564 0.046818,-6.727e-4 0.071313,0.00413 0.060471,0.0014 0.1208747,0.0029 0.1813843,0.00413 0.011519,-4.169e-4 0.023125,-0.00121 0.034623,-0.00207 0.060012,-0.00682 0.1200787,-0.012656 0.1803507,-0.016536 0.072416,-0.00455 0.1452798,-0.00163 0.2175578,0.00362 0.060894,0.0046 0.1215178,0.00949 0.1824178,0.013953 -0.00562,-0.010952 -0.015385,-0.020236 -0.030489,-0.026355 -0.032616,-0.013218 -0.037129,-0.021205 -0.030489,-0.049609 0.0044,-0.018808 0.00107,-0.037245 -0.00672,-0.043408 -0.00801,-0.00531 -0.020025,-0.023971 -0.026355,-0.041858 -0.00633,-0.017887 -0.046356,-0.061782 -0.0894,-0.097669 C 8.1409917,4.5028949 8.0962958,4.452557 8.0847778,4.42712 8.0686918,4.391595 8.0471485,4.3736458 7.9933105,4.3506388 7.9236855,4.3208858 7.9233471,4.3203208 7.9219971,4.2607218 7.9208971,4.2117888 7.9135472,4.194626 7.8822062,4.166154 7.8457632,4.13305 7.8247134,4.0896477 7.8336304,4.0746867 l 5.167e-4,-5.168e-4 5.168e-4,-5.167e-4 c 4.09e-4,-3.946e-4 8.32e-4,-8.482e-4 0.00103,-0.00103 2.621e-4,-2.004e-4 0.00127,-8.982e-4 0.00155,-0.00103 0.00185,-9.214e-4 0.00503,-0.00207 0.00775,-0.00207 0.010259,0 0.036053,-0.021889 0.057878,-0.048576 0.052314,-0.063967 0.038307,-0.1018026 -0.037724,-0.1018026 -0.046299,0 -0.051434,-0.00397 -0.058394,-0.041341 -0.00355,-0.019047 -0.011426,-0.035217 -0.018604,-0.039791 -1.32e-4,-6.86e-5 -0.00123,-4.178e-4 -0.00155,-5.167e-4 h -5.167e-4 v -5.168e-4 h -5.168e-4 -5.168e-4 -5.167e-4 c -0.016032,0 -0.051545,-0.040755 -0.05116,-0.055811 1.41e-5,-1.221e-4 9.9e-6,-7.449e-4 0,-0.00103 v -5.167e-4 -5.168e-4 l 5.168e-4,-5.168e-4 5.167e-4,-5.167e-4 v -5.168e-4 l 5.168e-4,-5.168e-4 c 0.00439,-0.00317 0.016532,-0.00319 0.027388,5.168e-4 0.00442,0.00151 0.00826,0.0027 0.010335,0.0031 h 5.167e-4 5.168e-4 5.168e-4 5.167e-4 V 3.780131 h 5.168e-4 v -5.167e-4 h -5.168e-4 v -5.168e-4 c -0.0012,-0.00144 -0.0044,-0.00425 -0.00827,-0.00723 -0.00913,-0.00704 -0.014522,-0.021524 -0.012402,-0.032039 6.562e-4,-0.00325 2.917e-4,-0.006 -5.168e-4,-0.00827 v -5.168e-4 h -5.168e-4 v -5.168e-4 -5.167e-4 l -5.167e-4,-5.168e-4 c -3.886e-4,-4.45e-4 -0.00158,-0.00168 -0.00207,-0.00207 -0.0045,-0.00302 -0.012772,-0.00432 -0.024288,-0.0031 -0.037674,0.00398 -0.043222,2.862e-4 -0.1054199,-0.075448 -0.033197,-0.040418 -0.047542,-0.071433 -0.047542,-0.1007691 0,-0.040003 -0.039401,-0.092901 -0.069763,-0.094051 -0.017528,-0.00265 -0.079445,-0.067531 -0.083716,-0.087333 V 3.3662028 3.365686 c -2.19e-4,-0.008 -0.0148,-0.045058 -0.032039,-0.082682 -0.01724,-0.037624 -0.030942,-0.083584 -0.031006,-0.1018025 -1.4e-4,-0.039783 -0.033887,-0.083199 -0.064596,-0.083199 -0.021635,0 -0.1012858,-0.084866 -0.1012858,-0.1080037 v -5.168e-4 -5.168e-4 c 9.41e-5,-3.981e-4 3.662e-4,-0.00191 5.167e-4,-0.00258 0.00412,-0.0071 0.019181,-0.014551 0.038757,-0.01912 -0.0206,-0.026622 -0.041816,-0.055786 -0.056327,-0.075964 -0.0118,-0.016428 -0.02429,-0.032419 -0.035657,-0.049093 C 7.0376324,2.8434999 6.9827031,2.8115374 6.9411784,2.740918 6.9218714,2.708083 6.899308,2.6889871 6.873999,2.6835571 6.851718,2.6787731 6.8077973,2.6448111 6.7680623,2.6024251 6.7306715,2.5625399 6.6709399,2.5156327 6.6352539,2.4980387 6.5967459,2.4790537 6.5610567,2.4495647 6.5479207,2.4256917 6.5357467,2.4035677 6.5049261,2.3712067 6.4791911,2.3533447 6.4061083,2.3026192 6.310402,2.1844378 6.249231,2.0696411 6.214457,2.0043823 6.1827949,1.9616665 6.1660319,1.9569865 c -0.051584,-0.014409 -0.0926,-0.2081507 -0.047542,-0.2242757 0.018352,-0.00657 0.019029,-0.039244 0.00103,-0.05116 -0.019419,-0.012885 -0.088367,0.021034 -0.088367,0.043408 0,0.00741 -0.00208,0.013119 -0.00465,0.01602 -2.074e-4,1.974e-4 -0.00133,9.003e-4 -0.00155,0.00103 h -5.167e-4 l -5.168e-4,5.168e-4 h -5.168e-4 -5.167e-4 -5.168e-4 -5.167e-4 c -2.752e-4,1.78e-5 -0.00127,6e-6 -0.00155,0 -0.00819,-8.322e-4 -0.019769,-0.010743 -0.028939,-0.029456 -0.0083,-0.016931 -0.027685,-0.047018 -0.042891,-0.066663 -0.019207,-0.024812 -0.032636,-0.071496 -0.043925,-0.1529622 -0.024139,-0.1741877 -0.07881,-0.2471318 -0.1498617,-0.1999878 -0.034204,0.022695 -0.045068,0.024467 -0.066146,0.010335 -0.029104,-0.019513 -0.045247,-0.012397 -0.1477946,0.064079 -0.034965,0.026075 -0.074014,0.047542 -0.0863,0.047542 -0.013633,0 -0.036785,0.027994 -0.059945,0.07183 -0.020872,0.039505 -0.051079,0.087125 -0.067179,0.1059367 -0.0161,0.018812 -0.050342,0.065004 -0.075964,0.1028361 C 5.1949399,1.7793956 5.093405,1.873023 5.005896,1.92288 4.970306,1.943157 4.910087,1.9783175 4.8715373,2.0009115 4.8329873,2.0235055 4.767843,2.0530805 4.72736,2.0665405 c -0.053236,0.0177 -0.08819,0.041048 -0.127124,0.084233 -0.029607,0.03284 -0.07113,0.069189 -0.091984,0.081132 -0.084474,0.048379 -0.2254943,0.2212421 -0.2165243,0.2651001 0.00414,0.020247 0.00454,0.032441 0.00207,0.037207 l -5.168e-4,5.168e-4 -5.168e-4,5.168e-4 v 5.167e-4 h -5.167e-4 l -5.168e-4,5.168e-4 h -5.168e-4 -5.167e-4 -5.168e-4 -5.168e-4 c -2.52e-4,-7.2e-5 -0.00128,-4.053e-4 -0.00155,-5.168e-4 -0.00981,-0.00528 -0.028614,-0.034933 -0.050643,-0.084233 -0.021015,-0.04703 -0.050713,-0.097286 -0.065629,-0.111621 -0.014916,-0.014334 -0.026872,-0.032701 -0.026872,-0.041341 0,-0.018631 -0.071757,-0.1275127 -0.1059367,-0.1607137 -0.013215,-0.0128 -0.053805,-0.033842 -0.089917,-0.046509 -0.1130349,-0.039649 -0.1331205,-0.054547 -0.1260905,-0.094051 0.00625,-0.035129 -0.041672,-0.1026811 -0.062012,-0.094568 -6.373e-4,3.486e-4 -0.00149,0.00103 -0.00207,0.00155 -5.649e-4,6.421e-4 -0.00158,0.00226 -0.00207,0.0031 -0.033205,0.057682 -0.1219564,-0.0058 -0.1219564,-0.087333 0,-0.017522 -0.01352,-0.065776 -0.030489,-0.1069702 -0.016969,-0.041195 -0.03733,-0.099818 -0.044958,-0.1302246 -0.00841,-0.033516 -0.026957,-0.064431 -0.047026,-0.078548 -0.024198,-0.017024 -0.028916,-0.02717 -0.018604,-0.038241 0.031328,-0.03359 0.016813,-0.1056853 -0.021187,-0.1059367 C 3.4370075,1.3598937 3.3487,1.2803646 3.300057,1.2045776 c -0.012592,-0.01962 -0.031756,-0.035657 -0.042891,-0.035657 -0.011134,0 -0.033695,-0.013558 -0.049609,-0.030489 C 3.1430122,1.0697638 3.1014305,1.0386076 3.0582113,1.0407633 Z M 2.9419393,1.245402 c 0.048669,-0.00279 0.095534,0.057021 0.1529622,0.1819011 0.035729,0.077694 0.071605,0.1513595 0.079582,0.1638143 0.065864,0.1028421 0.090753,0.1487355 0.090951,0.1674316 1.27e-4,0.012002 0.01182,0.032889 0.025838,0.046509 0.00843,0.00819 0.016576,0.014216 0.021187,0.01602 h 5.168e-4 5.167e-4 l 5.168e-4,5.167e-4 h 5.168e-4 5.167e-4 v -5.167e-4 h 5.168e-4 5.168e-4 v -5.168e-4 h 5.167e-4 v -5.168e-4 -5.167e-4 -5.168e-4 c 1.25e-5,-1.326e-4 9.3e-6,-7.452e-4 0,-0.00103 v -5.168e-4 l 5.168e-4,-5.167e-4 v -5.168e-4 h 5.168e-4 v -5.168e-4 h 5.167e-4 5.168e-4 l 5.167e-4,5.168e-4 h 5.168e-4 c 0.012444,0.00804 0.051467,0.070437 0.067696,0.1121379 0.010636,0.027329 0.016176,0.061467 0.011886,0.075964 -0.00263,0.00888 -0.00332,0.015784 -0.00155,0.020154 1.281e-4,2.558e-4 9.313e-4,0.00131 0.00103,0.00155 l 5.167e-4,5.168e-4 5.168e-4,5.167e-4 5.167e-4,5.168e-4 5.168e-4,5.168e-4 c 0.00209,0.00137 0.00528,0.00258 0.00879,0.00258 0.018893,0 0.034464,0.039907 0.034106,0.088884 -2.642e-4,0.036234 -0.061121,0.1062173 -0.111621,0.1286743 -0.113983,0.050688 -0.142566,0.1730255 -0.03359,0.1436605 0.039806,-0.010726 0.04287,0.035979 0.00517,0.076481 -0.014018,0.01505 -0.025321,0.036361 -0.025321,0.047026 v 5.168e-4 c 0.00413,0.024024 0.1345672,0.1532415 0.1591634,0.1576131 h 5.167e-4 5.168e-4 5.168e-4 5.167e-4 v 5.168e-4 h 5.168e-4 c 0.00915,0.003 0.029689,0.019785 0.047542,0.039791 0.019657,0.022027 0.052143,0.047347 0.072347,0.056327 0.020204,0.00898 0.037207,0.026653 0.037207,0.039274 0,0.058693 0.1482598,0.1733659 0.1891357,0.1462443 0.038721,-0.025692 0.056177,0.046549 0.058394,0.2366781 0.00298,0.2557246 3.546e-4,0.2511446 0.1855184,0.287321 0.031541,0.00616 0.1052638,0.025026 0.1638142,0.041858 0.092498,0.026591 0.1169398,0.028493 0.1850017,0.01602 0.1553569,-0.028484 0.2118733,-0.028411 0.2118733,5.167e-4 0,0.01421 0.00935,0.041398 0.020671,0.059945 0.024947,0.04088 0.06873,0.044965 0.06873,0.00672 0,-0.027759 0.021539,-0.050222 0.034623,-0.036173 l 5.167e-4,5.168e-4 v 5.167e-4 l 5.168e-4,5.168e-4 c 0.00216,0.00674 -6.761e-4,0.023163 -0.00723,0.038757 -0.00425,0.010008 -0.007,0.017158 -0.0062,0.022221 5.84e-5,2.44e-4 4.395e-4,0.00132 5.168e-4,0.00155 v 5.168e-4 5.167e-4 l 5.168e-4,5.168e-4 v 5.167e-4 l 5.167e-4,5.168e-4 5.168e-4,5.168e-4 c 0.0076,0.00668 0.030495,0.00957 0.079582,0.014469 0.049019,0.00489 0.1054347,0.018269 0.1255737,0.029456 0.020139,0.011179 0.045465,0.020154 0.056327,0.020154 0.010858,0 0.020154,0.01171 0.020154,0.025838 0,0.014128 0.00809,0.033521 0.018603,0.042891 0.04904,0.043695 0.012545,0.1364258 -0.053743,0.1364258 -0.062344,0 -0.1606111,0.1919648 -0.1204061,0.2351278 0.00447,0.0048 0.00747,0.0081 0.00982,0.0093 h 5.168e-4 l 5.167e-4,5.168e-4 h 5.168e-4 5.168e-4 5.167e-4 5.168e-4 v -5.168e-4 h 5.168e-4 v -5.168e-4 l 5.167e-4,-5.167e-4 c 6.584e-4,-0.00156 0.00103,-0.00417 0.00103,-0.00775 V 4.1403158 4.139799 4.1392822 h 5.167e-4 v -5.167e-4 -5.168e-4 -5.168e-4 -5.167e-4 c 0.00343,-0.00707 0.016212,-0.012919 0.030489,-0.012919 0.00811,0 0.014887,5.16e-5 0.018604,0.00155 l 5.168e-4,5.167e-4 5.168e-4,5.168e-4 5.167e-4,5.167e-4 h 5.168e-4 v 5.168e-4 c 1.047e-4,1.842e-4 4.284e-4,0.00135 5.168e-4,0.00155 l 5.167e-4,5.168e-4 v 5.167e-4 c 0.0014,0.00903 -0.00766,0.030358 -0.028939,0.077515 -0.052733,0.1168717 -0.024663,0.2420037 0.034107,0.1519287 0.02004,-0.030716 0.123232,-0.045766 0.137976,-0.020154 0.011601,0.020153 -0.025326,0.055921 -0.062528,0.060461 -0.031602,0.00386 -0.039689,0.01272 -0.049609,0.055811 -0.010092,0.043855 -0.016909,0.05116 -0.047026,0.05116 -0.018166,0 -0.036088,0.00553 -0.041858,0.012402 -1.643e-4,2.322e-4 -9.402e-4,0.00132 -0.00103,0.00155 l -5.168e-4,5.167e-4 c -2.202e-4,2.292e-4 -0.00129,0.00132 -0.00155,0.00155 -0.0084,0.00622 -0.032604,0.011369 -0.057361,0.011369 -0.032022,0 -0.065726,0.010841 -0.0894,0.028939 -0.088942,0.06797 -0.4399038,-0.112446 -0.4433838,-0.227893 -2.33e-4,-0.00774 -0.01182,-0.022743 -0.025838,-0.03359 -0.02669,-0.020652 -0.034799,-0.054777 -0.012919,-0.054777 0.021316,0 0.014452,-0.039109 -0.0093,-0.05271 -0.028095,-0.016069 -0.3089596,-0.084233 -0.3472656,-0.084233 -0.043052,0 -0.1498944,-0.056881 -0.1658814,-0.088367 -0.00775,-0.015269 -0.032385,-0.036772 -0.054777,-0.048059 -0.029106,-0.014671 -0.042466,-0.032152 -0.047026,-0.061495 -0.00518,-0.03337 -0.019496,-0.048557 -0.076481,-0.079582 -0.070093,-0.038161 -0.070359,-0.038019 -0.067179,-0.1049032 0.00327,-0.068891 -0.03263,-0.1235066 -0.081649,-0.1235066 -0.075292,0 -0.3152956,-0.1934866 -0.3276286,-0.2640666 -0.01786,-0.102092 -0.1230323,-0.1989643 -0.1658813,-0.1529623 -0.012202,0.0131 -0.030561,0.018049 -0.049609,0.012919 -0.023806,-0.00641 -0.042291,0.00378 -0.083716,0.046509 -0.029122,0.030038 -0.095748,0.076051 -0.1483114,0.1028361 -0.049277,0.025111 -0.090167,0.050973 -0.095085,0.059428 v 5.168e-4 h -5.168e-4 v 5.168e-4 5.167e-4 c 0,0.0222 -0.052016,0.075563 -0.070797,0.073381 h -5.168e-4 c -0.00994,-0.00223 -0.021678,0.00541 -0.025838,0.017053 -0.00416,0.011642 -0.014211,0.021469 -0.022221,0.021704 -0.00801,2.35e-4 -0.042987,0.015598 -0.078031,0.034106 -0.035045,0.018508 -0.070131,0.033521 -0.078031,0.03359 -0.0079,6.9e-5 -0.021759,0.00938 -0.030489,0.020671 -0.00873,0.011292 -0.026928,0.020671 -0.040308,0.020671 -0.01338,0 -0.027256,0.00864 -0.031006,0.01912 -0.00404,0.011287 -0.035368,0.022842 -0.076998,0.028422 -0.076558,0.010269 -0.1576131,0.053238 -0.1576131,0.083716 0,0.010541 -0.00861,0.01912 -0.01912,0.01912 -0.010515,0 -0.01912,0.0065 -0.01912,0.014469 0,0.00199 4.284e-4,0.00387 0.00103,0.00517 l 5.168e-4,5.168e-4 5.168e-4,5.168e-4 5.167e-4,5.167e-4 v 5.168e-4 h 5.168e-4 l 5.167e-4,5.167e-4 h 5.168e-4 l 5.168e-4,5.168e-4 h 5.167e-4 c 2.538e-4,2.69e-5 0.00127,-2.5e-6 0.00155,0 0.00162,-1.247e-4 0.0044,-0.00107 0.0062,-0.00207 0.00293,-0.00194 0.00592,-0.00291 0.00775,-0.0031 h 5.167e-4 5.168e-4 5.168e-4 5.167e-4 5.168e-4 v 5.167e-4 h 5.168e-4 v 5.168e-4 l 5.167e-4,5.168e-4 5.168e-4,5.167e-4 v 5.168e-4 l 5.167e-4,5.168e-4 c 0.00119,0.00635 -0.00415,0.01989 -0.014986,0.031523 -0.00436,0.00468 -0.007,0.00814 -0.00775,0.010852 v 5.168e-4 5.168e-4 5.167e-4 5.168e-4 5.167e-4 5.168e-4 h 5.168e-4 v 5.168e-4 l 5.167e-4,5.167e-4 h 5.168e-4 v 5.168e-4 h 5.168e-4 l 5.167e-4,5.168e-4 h 5.168e-4 c 8.712e-4,2.49e-5 0.00226,0 0.0031,0 0.018826,0 0.046004,-0.036778 0.037724,-0.05116 V 3.7987345 3.7982178 3.797701 3.7971842 l 5.167e-4,-5.167e-4 5.168e-4,-5.168e-4 c 0.00782,-0.00703 0.044731,-0.018048 0.090434,-0.026355 0.2282066,-0.041463 0.284773,-0.070563 0.379305,-0.1937866 0.031388,-0.040915 0.073534,-0.067696 0.1069702,-0.067696 0.03531,0 0.1128661,-0.048031 0.1663981,-0.1033529 0.032714,-0.033811 0.054155,-0.049246 0.064596,-0.045475 2.737e-4,1.337e-4 0.00129,9.128e-4 0.00155,0.00103 4.825e-4,3.833e-4 0.00165,0.00157 0.00207,0.00207 0.00424,0.00613 0.00534,0.019653 0.00207,0.039791 -0.014246,0.087604 -0.00897,0.1417647 0.023771,0.2423625 0.018281,0.056171 0.033073,0.1125429 0.033073,0.1250569 0,0.063947 0.080151,0.1767334 0.1255738,0.1767334 0.064646,0 -0.020969,0.1446307 -0.1188558,0.2010214 -0.1783287,0.1027316 -0.030185,0.2502182 0.2511474,0.2501139 0.049807,-1.8e-5 0.076497,-0.00621 0.081649,-0.016536 9.19e-5,-2.282e-4 4.45e-4,-0.00132 5.168e-4,-0.00155 v -5.167e-4 -5.168e-4 h 5.167e-4 v -5.168e-4 -5.167e-4 c -9.7e-6,-2.924e-4 3.78e-5,-0.00125 0,-0.00155 -0.00408,-0.018769 -0.062097,-0.047515 -0.1653646,-0.074931 -0.1038116,-0.027561 -0.1007495,-0.090678 0.0062,-0.1224732 0.026408,-0.00785 0.048059,-0.022917 0.048059,-0.03359 0,-0.010623 0.00767,-0.024469 0.017053,-0.030489 0.00938,-0.00602 0.023296,-0.023191 0.031006,-0.03824 0.00393,-0.00767 0.00761,-0.01319 0.010335,-0.015503 l 5.167e-4,-5.167e-4 h 5.168e-4 l 5.168e-4,-5.168e-4 h 5.167e-4 5.168e-4 5.167e-4 l 5.168e-4,5.168e-4 h 5.168e-4 l 5.167e-4,5.167e-4 c 2.657e-4,2.369e-4 0.00128,0.00125 0.00155,0.00155 0.004,0.00512 0.00918,0.016862 0.016536,0.035657 0.025474,0.065107 0.096046,0.1493449 0.125057,0.1493449 0.012729,0 0.023254,0.00666 0.023254,0.014986 0,0.00833 0.00788,0.012234 0.01757,0.00827 0.034525,-0.014223 0.1224732,0.019552 0.1224732,0.047026 0,0.013251 0.00646,0.024828 0.014469,0.026872 h 5.167e-4 5.168e-4 5.168e-4 5.167e-4 l 5.168e-4,5.167e-4 h 5.168e-4 5.167e-4 v 5.168e-4 5.168e-4 5.167e-4 l -5.167e-4,5.168e-4 c -0.00369,0.0033 -0.017415,0.00966 -0.03669,0.01602 -0.1064852,0.035134 -0.051645,0.146902 0.094568,0.1927531 0.039009,0.012233 0.0841,0.027755 0.1002523,0.034623 0.016152,0.00687 0.056489,0.015992 0.0894,0.020154 0.057659,0.00729 0.088776,0.024709 0.082165,0.038757 -0.0036,0.00601 -0.014879,0.012251 -0.03359,0.01602 -0.025627,0.00516 -0.061955,0.00508 -0.081132,0 -0.039435,-0.010452 -0.049643,-0.010231 -0.6087483,0.00103 -0.2242882,0.00454 -0.4679741,0.00937 -0.5415691,0.010852 -0.1482231,0.00299 -0.6204549,0.045067 -0.6382039,0.056844 l -5.168e-4,5.167e-4 c -0.00843,0.00409 -0.054115,0.00958 -0.1033528,0.012919 -0.050827,0.00345 -0.1355342,0.012594 -0.1881022,0.020154 -0.052567,0.00756 -0.1472421,0.019572 -0.2103231,0.026872 v 5.168e-4 c -0.2507092,0.029 -0.31122447,0.00102 -0.2552816,-0.1178223 0.023437,-0.049786 0.145772,-0.1878989 0.188619,-0.2129069 0.1097741,-0.064071 0.2674142,-0.2227965 0.2692342,-0.2707845 9.06e-4,-0.023915 0.012011,-0.036759 0.039274,-0.046509 0.048454,-0.017323 0.1195665,-0.08777 0.2072225,-0.2051554 0.040039,-0.053618 0.060524,-0.09077 0.059945,-0.1012859 V 3.8400757 3.8395589 L 1.8050578,3.8390422 V 3.8385254 H 1.804541 V 3.8380086 H 1.8040243 1.8035075 1.8029907 1.802474 c -0.00671,0.00133 -0.023206,0.015056 -0.048576,0.043925 -0.024599,0.027992 -0.054869,0.050643 -0.067696,0.050643 -0.023035,0 -0.041535,0.028746 -0.043925,0.068213 -6.77e-4,0.011164 -0.012523,0.022551 -0.025838,0.025321 -0.022719,0.00473 -0.096635,0.080759 -0.096635,0.099219 v 5.168e-4 l -5.168e-4,5.167e-4 c -0.00284,0.00522 -0.015399,0.01509 -0.029972,0.022221 -0.023569,0.011529 -0.028661,0.02216 -0.023771,0.049609 0.00633,0.035524 -0.012998,0.048741 -0.029455,0.020154 -0.00248,-0.00431 -0.00579,-0.00675 -0.00879,-0.00723 H 1.4267863 1.4262695 1.4257528 1.425236 l -5.168e-4,5.167e-4 c -4.475e-4,1.568e-4 -0.00161,8.292e-4 -0.00207,0.00103 l -5.168e-4,5.167e-4 c -2.228e-4,1.695e-4 -0.00133,8.785e-4 -0.00155,0.00103 l -5.167e-4,5.167e-4 -5.168e-4,5.168e-4 v 5.167e-4 c -0.014031,0.021923 -0.094439,0.082547 -0.1136882,0.0863 -2.783e-4,3.07e-5 -0.00131,0 -0.00155,0 -0.00935,9.043e-4 -0.036956,0.015688 -0.061495,0.03359 -0.022955,0.016744 -0.046409,0.028041 -0.055294,0.026872 -2.712e-4,-7e-5 -0.00132,-4.166e-4 -0.00155,-5.168e-4 l -5.167e-4,-5.167e-4 h -5.168e-4 c -2.042e-4,-7.83e-5 -0.00134,-4.641e-4 -0.00155,-5.168e-4 H 1.1828735 L 1.1823568,4.3604574 H 1.18184 1.1813232 l -5.167e-4,5.167e-4 h -5.168e-4 -5.168e-4 c -0.00476,0.00251 -0.010272,0.010837 -0.012919,0.021704 -0.00553,0.022719 -0.016706,0.028939 -0.05426,0.028939 -0.06479,0 -0.111304,0.065109 -0.13435874,0.1881022 -0.003725,0.01987 -0.0107094,0.036723 -0.0165365,0.042375 l -5.1676e-4,5.168e-4 c -1.0916e-4,7.43e-5 -0.001217,8.153e-4 -0.00155,0.00103 h -5.1677e-4 v 5.168e-4 h -5.1676e-4 -5.1677e-4 c -2.6167e-4,0 -7.7534e-4,2.23e-5 -0.001034,0 h -5.1677e-4 c -2.34e-4,-6.53e-5 -0.001325,-4.309e-4 -0.00155,-5.168e-4 L 0.9544637,4.6431274 h -5.1676e-4 c -0.0112561,-0.00823 -0.008495,-0.047192 0.007235,-0.064079 0.004251,-0.00456 0.006376,-0.00864 0.006718,-0.011886 3.3e-7,-2.647e-4 2.796e-5,-0.00129 0,-0.00155 V 4.565096 4.5645793 4.5640625 l -5.1677e-4,-5.168e-4 c -1.4271e-4,-2.403e-4 -8.561e-4,-0.00131 -0.001034,-0.00155 -0.002412,-0.00281 -0.007188,-0.00601 -0.0139526,-0.00878 -0.0181741,-0.00749 -0.0372821,0.00656 -0.0826823,0.060978 -0.0315017,0.037759 -0.0646009,0.068889 -0.0749308,0.070797 H 0.79426676 0.79375 c -0.0180688,0 -0.10434297,-0.052843 -0.11627197,-0.071314 V 4.6131551 H 0.67696126 C 0.66812876,4.6069079 0.62186209,4.597547 0.57050781,4.5924845 0.45940875,4.5815285 0.42927582,4.5586392 0.45888672,4.5077352 c 0.008711,-0.014973 0.0160197,-0.034461 0.0160197,-0.042891 0.001029,-0.00946 0.0178707,-0.039568 0.0382406,-0.067179 0.0203699,-0.027611 0.0372116,-0.054913 0.0382406,-0.062012 v -5.168e-4 -5.168e-4 c 0.001249,-0.0069 0.0117716,-0.023677 0.0242879,-0.038241 0.0133508,-0.015534 0.0346093,-0.048032 0.0475423,-0.07183 0.0479116,-0.088161 0.12400801,-0.2008194 0.16794841,-0.2490804 0.0248941,-0.027342 0.0586918,-0.071331 0.0754476,-0.097668 0.0167557,-0.026337 0.0489191,-0.069264 0.0713135,-0.095601 C 1.0861629,3.6078531 1.2101981,3.4214171 1.2836426,3.2623332 1.4061947,2.9968803 1.4193596,2.9731175 1.5172201,2.8432373 c 0.054658,-0.072542 0.146763,-0.1462655 0.190686,-0.1524455 0.01912,-0.00269 0.047521,-0.013451 0.063045,-0.024288 0.015524,-0.010834 0.040101,-0.019637 0.054777,-0.019637 0.014675,0 0.048338,-0.018914 0.074931,-0.041858 0.023397,-0.020186 0.048969,-0.035828 0.058911,-0.037724 h 5.168e-4 5.167e-4 5.168e-4 c 0.038093,0.013236 0.2594157,-0.2570616 0.2594157,-0.3167766 0,-0.029747 0.041834,-0.1031908 0.083716,-0.1472778 0.023078,-0.024292 0.049641,-0.056133 0.058911,-0.07028 0.085729,-0.1308995 0.1691087,-0.2065677 0.2201417,-0.1999877 0.017688,0.00228 0.030623,0.00302 0.035657,0.00207 l 5.168e-4,-5.168e-4 h 5.167e-4 5.168e-4 5.167e-4 v -5.167e-4 -5.168e-4 -5.167e-4 l -5.167e-4,-5.168e-4 -5.168e-4,-5.168e-4 -5.167e-4,-5.167e-4 h -5.168e-4 c -0.00876,-0.00444 -0.01602,-0.020849 -0.01602,-0.03669 0,-0.0099 2.01e-5,-0.016589 0.00103,-0.019637 l 5.168e-4,-5.167e-4 v -5.168e-4 l 5.168e-4,-5.167e-4 h 5.167e-4 v -5.168e-4 h 5.168e-4 5.167e-4 l 5.168e-4,5.168e-4 h 5.168e-4 l 5.167e-4,5.167e-4 h 5.168e-4 c 0.00381,0.00287 0.01041,0.010476 0.020154,0.021704 0.027693,0.031912 0.044627,0.037514 0.055811,0.018087 0.00561,-0.00716 0.041457,-0.026698 0.080615,-0.043408 0.040421,-0.017249 0.083579,-0.042551 0.096118,-0.056327 0.015861,-0.017429 0.031764,-0.02581 0.039791,-0.024288 l 5.168e-4,5.168e-4 c 9.17e-5,4.41e-5 0.00121,4.114e-4 0.00155,5.168e-4 l 5.167e-4,5.167e-4 5.168e-4,5.168e-4 5.168e-4,5.168e-4 5.167e-4,5.167e-4 v 5.168e-4 c 0.00137,0.00329 0.00151,0.0089 -0.00103,0.01602 -0.00152,0.00424 -0.00201,0.00785 -0.00155,0.010335 9.37e-5,2.844e-4 3.857e-4,0.00129 5.168e-4,0.00155 v 5.167e-4 l 5.167e-4,5.168e-4 5.168e-4,5.168e-4 5.168e-4,5.167e-4 c 0.00527,0.00288 0.018262,0.00233 0.040824,-0.00155 0.037876,-0.0065 0.050227,-0.00362 0.056327,0.013436 0.00384,0.010756 0.00838,0.017463 0.013436,0.019637 2.572e-4,8.66e-5 0.00129,4.525e-4 0.00155,5.168e-4 h 5.168e-4 c 3.204e-4,-7.7e-6 9.37e-4,-9.8e-6 0.00103,0 0.010774,-1.113e-4 0.026162,-0.016866 0.048576,-0.053227 l 0.034106,-0.055294 -0.045475,-0.047542 C 3.0315031,1.5741387 3.0051546,1.5536332 2.9961995,1.55236 h -5.167e-4 c -0.00808,0 -0.024003,-0.00933 -0.03514,-0.020154 C 2.9494068,1.5213876 2.911711,1.5107951 2.876827,1.5084351 2.782455,1.5020528 2.7637284,1.45503 2.8189494,1.363741 2.8650906,1.2874624 2.9040855,1.2475695 2.9419393,1.245402 Z m 2.633431,0.2129069 h 5.167e-4 5.168e-4 5.168e-4 5.167e-4 5.168e-4 c 6.966e-4,1.075e-4 0.00154,3.889e-4 0.00207,5.168e-4 h 5.167e-4 l 5.168e-4,5.167e-4 h 5.168e-4 l 5.167e-4,5.168e-4 v 5.168e-4 l 5.168e-4,5.167e-4 h 5.167e-4 l 5.168e-4,5.168e-4 c 0.00168,0.00402 0.00155,0.011951 0.00155,0.022221 0,0.012228 -0.00412,0.022877 -0.0093,0.026355 h -5.167e-4 l -5.168e-4,5.167e-4 c -2.103e-4,6.95e-5 -0.00134,4.699e-4 -0.00155,5.168e-4 h -5.167e-4 -5.168e-4 c -2.155e-4,2.08e-5 -0.00134,-4.11e-5 -0.00155,0 l -5.168e-4,5.167e-4 h -5.167e-4 l -5.168e-4,5.168e-4 c -6.312e-4,3.8e-4 -0.00199,0.00151 -0.00258,0.00207 -0.00373,0.00416 -0.00657,0.011975 -0.0062,0.020671 2.25e-4,0.00536 7.379e-4,0.00933 0.00155,0.011369 l 5.168e-4,5.167e-4 v 5.168e-4 h 5.167e-4 v 5.167e-4 h 5.168e-4 v 5.168e-4 h 5.168e-4 v -5.168e-4 h 5.167e-4 l 5.168e-4,-5.167e-4 c 8.297e-4,-9.548e-4 0.00214,-0.00261 0.0031,-0.00517 0.00324,-0.00863 0.0075,-0.015131 0.011369,-0.018087 l 5.168e-4,-5.168e-4 h 5.167e-4 c 4.531e-4,-1.923e-4 0.00191,-8.672e-4 0.00258,-0.00103 h 5.168e-4 5.168e-4 c 0.013603,-1.548e-4 0.029493,0.029632 0.038757,0.081132 0.00778,0.043267 0.02193,0.093843 0.031523,0.1126546 0.00959,0.018812 0.021321,0.058785 0.026355,0.088883 0.013258,0.079274 0.061975,0.1838176 0.1136882,0.2444295 0.046124,0.054061 0.05105,0.055095 0.1353922,0.028422 0.050879,-0.01609 0.079903,0.070948 0.056844,0.1694987 -0.028499,0.1218032 -0.017589,0.2062817 0.032556,0.2542481 0.01918,0.018347 0.035293,0.039346 0.037207,0.048059 3.23e-5,2.634e-4 0,0.00131 0,0.00155 0,0.02105 0.064095,0.092834 0.084232,0.095085 l 5.168e-4,5.168e-4 c 0.03447,0 0.2155798,0.1147684 0.2501139,0.1586466 0.098568,0.1252381 0.1270233,0.1861807 0.1364258,0.2924886 0.00958,0.1082722 0.033096,0.1839146 0.069246,0.2227254 0.031385,0.033691 0.06301,0.030771 0.05426,-0.00517 -0.00212,-0.0087 -0.00288,-0.014763 -0.00207,-0.018603 1.826e-4,-5.799e-4 7.981e-4,-0.00212 0.00103,-0.00258 l 5.167e-4,-5.168e-4 5.168e-4,-5.168e-4 5.168e-4,-5.167e-4 c 2.409e-4,-1.214e-4 0.00128,-4.216e-4 0.00155,-5.168e-4 0.00324,-7.66e-4 0.00867,-3.642e-4 0.015503,0.00155 0.01269,0.00356 0.026138,0.00177 0.031006,-0.00413 l 5.168e-4,-5.168e-4 c 2.296e-4,-3.355e-4 4.768e-4,-9.285e-4 5.168e-4,-0.00103 l 5.167e-4,-5.168e-4 5.168e-4,-5.167e-4 5.168e-4,-5.168e-4 h 5.167e-4 5.168e-4 c 0.00821,-9.776e-4 0.027613,0.00779 0.046509,0.023254 0.02301,0.018842 0.0499,0.034623 0.059945,0.034623 0.065954,0 0.075841,0.039194 0.028422,0.1116211 -0.081083,0.1238459 0.02372,0.3089677 0.188619,0.333313 0.040608,0.00599 0.061495,0.015789 0.061495,0.028422 0,0.010578 0.00861,0.01912 0.01912,0.01912 0.040415,0 0.013299,0.082286 -0.042891,0.1297078 -0.085706,0.072332 -0.1414208,0.1477653 -0.1405599,0.1901693 3.412e-4,0.016818 8.674e-4,0.027666 0.00207,0.031523 v 5.168e-4 l 5.168e-4,5.168e-4 h 5.167e-4 5.168e-4 v -5.168e-4 h 5.168e-4 v -5.168e-4 l 5.167e-4,-5.167e-4 c 0.0021,-0.00318 0.00608,-0.010158 0.010335,-0.019637 0.017664,-0.039377 0.066663,-0.036835 0.066663,0.00362 0,0.019182 -0.011307,0.029993 -0.038241,0.036173 -0.012365,0.00284 -0.019975,0.00514 -0.022738,0.00672 H 6.944279 v 5.168e-4 h -5.168e-4 v 5.167e-4 5.168e-4 h 5.168e-4 c 0.00183,7.391e-4 0.00647,0.00169 0.012919,0.00207 0.017838,0.00104 0.036599,0.014457 0.040308,0.022738 v 5.168e-4 5.167e-4 5.168e-4 5.168e-4 5.167e-4 5.168e-4 h -5.168e-4 v 5.167e-4 l -5.167e-4,5.168e-4 -5.168e-4,5.168e-4 h -5.168e-4 c -0.00165,7.518e-4 -0.0045,0.00155 -0.00775,0.00155 -0.00428,0 -0.00798,6.719e-4 -0.010335,0.00207 l -5.168e-4,5.168e-4 -5.167e-4,5.168e-4 v 5.167e-4 h -5.168e-4 -5.168e-4 c -1.727e-4,2.08e-4 -9.246e-4,0.00133 -0.00103,0.00155 v 5.168e-4 l -5.168e-4,5.167e-4 -5.167e-4,5.168e-4 v 5.168e-4 c -0.00302,0.012433 0.01585,0.037608 0.047026,0.055294 0.066889,0.037947 0.077285,0.061437 0.051677,0.1193725 -0.027464,0.062135 -0.027551,0.062717 0.012402,0.107487 0.013993,0.015681 0.023009,0.027404 0.022221,0.03514 -5.09e-5,2.591e-4 -4.419e-4,0.0013 -5.168e-4,0.00155 -0.00692,0.012298 -0.048729,0.017202 -0.1550293,0.028939 -0.2408427,0.026593 -0.3449767,0.019958 -0.4041097,-0.026355 -0.026284,-0.020586 -0.052983,-0.038304 -0.062012,-0.040824 H 6.4843587 V 4.5346069 H 6.483842 6.4833252 C 6.4591407,4.5328152 6.389958,4.4588615 6.306075,4.3449544 6.2206971,4.2290174 6.1083204,4.1103434 6.0838664,4.1103434 c -0.00738,0 -0.018161,-0.00793 -0.023771,-0.01757 C 6.0433905,4.0640596 5.9525844,3.9896753 5.9319377,3.9873535 h -5.168e-4 c -0.017691,0 -0.1270681,-0.066445 -0.2320272,-0.1410766 -0.066516,-0.047297 -0.127124,-0.1142659 -0.127124,-0.1405599 0,-0.010042 -0.01639,-0.031323 -0.036173,-0.047026 -0.038607,-0.030644 -0.054879,-0.1603132 -0.029456,-0.2340942 0.00699,-0.020282 0.00505,-0.046836 -0.00568,-0.074414 -0.014888,-0.038258 -0.013975,-0.046225 0.00827,-0.07183 0.013701,-0.015789 0.024805,-0.044209 0.024805,-0.063045 0,-0.035175 -0.00812,-0.039088 -0.1338419,-0.07028 -0.021027,-0.00522 -0.044266,-0.014461 -0.051677,-0.020671 -0.00741,-0.00621 -0.044534,-0.020577 -0.082682,-0.031523 C 5.2276054,3.0818969 5.1711327,3.0629656 5.1402547,3.0509766 5.109376,3.0389876 5.0545221,3.0240469 5.0188151,3.0173869 4.9231622,2.9995385 4.8732392,2.9757487 4.7950562,2.9124837 4.7565067,2.8812896 4.6619868,2.820828 4.5852498,2.778125 4.5085127,2.735423 4.4364809,2.6915595 4.4250529,2.6804565 c -0.011428,-0.011107 -0.039268,-0.020154 -0.061495,-0.020154 -0.018059,0 -0.033105,-0.00414 -0.03824,-0.00982 l -5.168e-4,-5.168e-4 c -2.25e-4,-3.308e-4 -4.702e-4,-9.185e-4 -5.167e-4,-0.00103 l -5.168e-4,-5.167e-4 c -6.93e-5,-2.343e-4 -4.817e-4,-0.00131 -5.168e-4,-0.00155 v -5.168e-4 c 0,-0.052683 0.2928155,-0.4237467 0.3343465,-0.4237467 0.00788,0 0.024804,-0.010185 0.037724,-0.022738 0.01292,-0.012553 0.033311,-0.023911 0.045475,-0.025321 0.068181,-0.0079 0.2164809,-0.08475 0.2304769,-0.1193726 0.00234,-0.00578 0.012134,-0.010335 0.021704,-0.010335 h 5.168e-4 C 5.0234976,2.0381058 5.232564,1.8216083 5.2880493,1.7389119 5.3850059,1.594406 5.4593557,1.5112394 5.5174927,1.4836304 c 0.030819,-0.014636 0.047777,-0.02297 0.056844,-0.024805 h 5.167e-4 z M 3.7568766,2.3027018 c 0.022597,-3.25e-4 0.032955,0.00117 0.038241,0.00465 0.036228,0.023856 0.1551475,0.02698 0.1632975,0.00413 7.371e-4,-0.00206 0.00246,-0.0044 0.00362,-0.00568 l 5.167e-4,-5.168e-4 5.168e-4,-5.167e-4 h 5.168e-4 v -5.168e-4 h 5.167e-4 c 0.038136,-0.012884 0.1918926,0.2375351 0.1932699,0.3255615 1.65e-4,0.010541 -1.095e-4,0.017537 -0.00207,0.021187 v 5.167e-4 h -5.167e-4 v 5.168e-4 l -5.168e-4,5.168e-4 -5.168e-4,5.167e-4 h -5.167e-4 v 5.168e-4 h -5.168e-4 -5.168e-4 c -0.00597,0.00108 -0.018714,-0.0044 -0.042375,-0.015503 -0.026284,-0.012335 -0.085182,-0.034472 -0.1307414,-0.049609 -0.045558,-0.015137 -0.092637,-0.037156 -0.1049032,-0.048576 -0.00752,-0.007 -0.012687,-0.011284 -0.01602,-0.012919 -2.548e-4,-9.85e-5 -0.00132,-4.56e-4 -0.00155,-5.167e-4 h -5.167e-4 -5.168e-4 -5.168e-4 -5.167e-4 l -5.168e-4,5.167e-4 -5.167e-4,5.168e-4 -5.168e-4,5.168e-4 c -9.151e-4,0.00244 -0.00103,0.00763 -0.00103,0.013953 0,0.012385 0.019997,0.036227 0.044442,0.053227 0.022153,0.015406 0.040575,0.032087 0.043925,0.039274 7.88e-5,2.249e-4 4.755e-4,0.00135 5.167e-4,0.00155 v 5.168e-4 5.167e-4 c -1.053e-4,6.802e-4 -3.943e-4,0.00156 -5.167e-4,0.00207 v 5.168e-4 5.167e-4 l -5.168e-4,5.168e-4 -5.168e-4,5.168e-4 c -2.577e-4,2.261e-4 -0.00126,8.622e-4 -0.00155,0.00103 -0.020427,0.011571 -0.1078189,-0.014077 -0.1260905,-0.041858 v -5.168e-4 l -5.167e-4,-5.168e-4 c -2.006e-4,-1.899e-4 -0.00133,-9.08e-4 -0.00155,-0.00103 l -5.168e-4,-5.167e-4 c -0.00715,-0.00332 -0.022734,0.00113 -0.038757,0.012402 -0.041715,0.029346 -0.044643,0.028603 -0.057878,-0.00827 -0.00405,-0.011284 -0.00693,-0.018051 -0.0093,-0.020671 L 3.7026164,2.580721 h -5.168e-4 v -5.167e-4 h -5.168e-4 -5.167e-4 -5.168e-4 l -5.167e-4,5.167e-4 h -5.168e-4 l -5.168e-4,5.168e-4 c -0.0018,0.00233 -0.00412,0.00757 -0.00672,0.014469 -0.00577,0.015339 -0.00108,0.034133 0.012402,0.050126 0.010961,0.013005 0.014741,0.022732 0.011886,0.028422 l -5.168e-4,5.167e-4 c -0.00399,0.0055 -0.015597,0.00706 -0.034106,0.00258 -0.019512,-0.00472 -0.022016,-0.014017 -0.014986,-0.05426 0.00363,-0.02079 0.00454,-0.033034 0.00258,-0.038757 -1.371e-4,-2.94e-4 -9.178e-4,-0.0013 -0.00103,-0.00155 L 3.6679932,2.5822713 V 2.5817546 H 3.6674764 V 2.5812378 H 3.6669596 L 3.6664429,2.580721 h -5.168e-4 -5.168e-4 c -0.00207,-1.735e-4 -0.00547,2.042e-4 -0.00879,0.00155 -0.010203,0.0042 -0.030989,-0.00164 -0.045992,-0.012919 -0.014065,-0.010573 -0.031717,-0.017206 -0.040824,-0.015503 -2.839e-4,7.54e-5 -0.00129,4.224e-4 -0.00155,5.167e-4 -0.017322,0.0062 -0.034297,-0.00626 -0.087333,-0.064595 -0.013982,-0.015381 -0.026275,-0.025178 -0.032556,-0.026872 H 3.4478516 L 3.4473348,2.462382 H 3.446818 3.4463013 3.4457845 l -5.168e-4,5.168e-4 H 3.444751 v 5.167e-4 h -5.168e-4 v 5.168e-4 5.168e-4 5.167e-4 5.168e-4 c 0,0.023214 -0.044898,0.02103 -0.063562,-0.0031 -0.012212,-0.0158 -0.01033,-0.026485 0.00827,-0.053743 0.018543,-0.027214 0.034511,-0.041782 0.044442,-0.041858 2.528e-4,1.77e-5 0.00131,-3.76e-5 0.00155,0 l 5.167e-4,5.168e-4 h 5.168e-4 5.167e-4 5.168e-4 l 5.168e-4,5.167e-4 5.167e-4,5.168e-4 5.168e-4,5.168e-4 5.168e-4,5.167e-4 c 0.00274,0.00316 0.00517,0.00913 0.00517,0.01757 0,0.020393 0.00855,0.026872 0.035657,0.026872 0.019687,0 0.046856,0.00911 0.060461,0.020154 0.013605,0.011052 0.036275,0.020431 0.050643,0.020671 0.014369,2.39e-4 0.031581,0.00609 0.038241,0.012919 0.020935,0.021459 0.088027,0.037405 0.1043864,0.027905 l 5.168e-4,-5.167e-4 5.168e-4,-5.168e-4 c 4.051e-4,-4.16e-4 8.82e-4,-8.52e-4 0.00103,-0.00103 l 5.168e-4,-5.168e-4 c 1.177e-4,-2.534e-4 4.371e-4,-0.00128 5.167e-4,-0.00155 V 2.490804 h 5.168e-4 v -5.167e-4 -5.168e-4 c 0,-0.00988 -0.00861,-0.021508 -0.01912,-0.025838 -0.027075,-0.011154 -0.023897,-0.036174 0.00465,-0.036174 0.032364,0 0.056546,0.033944 0.047026,0.066146 -0.00562,0.019019 -5.886e-4,0.02835 0.018087,0.03359 0.00947,0.00266 0.017768,9.767e-4 0.022221,-0.00155 h 5.167e-4 l 5.168e-4,-5.168e-4 c 5.294e-4,-5.599e-4 0.0012,-0.00142 0.00155,-0.00207 0.00187,-0.00515 -0.00129,-0.013123 -0.011886,-0.020154 -0.017141,-0.011373 -0.024966,-0.021517 -0.025838,-0.028422 -2.45e-5,-5.811e-4 -7.59e-5,-0.00204 0,-0.00258 6.24e-5,-2.61e-4 4.303e-4,-0.0013 5.167e-4,-0.00155 l 5.168e-4,-5.167e-4 c 1.332e-4,-2.307e-4 9.16e-4,-0.00133 0.00103,-0.00155 0.012553,-0.011668 0.064886,-0.00638 0.1121379,0.022738 0.020098,0.012385 0.035046,0.020067 0.041341,0.021704 h 5.168e-4 5.168e-4 5.167e-4 5.168e-4 5.168e-4 5.167e-4 v -5.168e-4 -5.167e-4 c -3.431e-4,-6.285e-4 -0.00125,-0.00216 -0.00207,-0.0031 -0.00876,-0.010031 -0.01602,-0.022919 -0.01602,-0.028939 v -5.168e-4 -5.167e-4 c 3.854e-4,-0.00155 0.00143,-0.00352 0.00207,-0.00465 1.838e-4,-2.708e-4 8.727e-4,-0.00131 0.00103,-0.00155 2.515e-4,-1.931e-4 0.00127,-8.936e-4 0.00155,-0.00103 0.00938,-0.0047 0.032831,-0.00118 0.074931,0.011369 0.034476,0.010279 0.051154,0.028172 0.047025,0.040824 -0.00319,0.00763 -0.014544,0.014101 -0.034106,0.014986 -0.011589,5.25e-4 -0.018631,0.00105 -0.021187,0.00207 L 3.98632,2.5414469 h -5.168e-4 v 5.168e-4 5.168e-4 H 3.98632 v 5.167e-4 c 0.00172,0.00104 0.00587,0.00258 0.011886,0.00413 0.014018,0.00362 0.031064,0.011814 0.037724,0.018604 0.020437,0.020854 0.047288,0.01393 0.043408,-0.011369 -0.00202,-0.013168 3.972e-4,-0.031684 0.00568,-0.040824 0.012717,-0.021757 -0.081076,-0.085783 -0.1255738,-0.085783 -0.018123,0 -0.042455,-0.00562 -0.05426,-0.012402 -0.011804,-0.00678 -0.038918,-0.015794 -0.059945,-0.020154 -0.1037514,-0.02152 -0.1436249,-0.032412 -0.1601969,-0.043408 -0.00997,-0.00661 -0.028124,-0.012122 -0.040308,-0.012402 -0.029106,-6.69e-4 -0.029071,-0.027662 0,-0.029972 0.054747,-0.00434 0.089541,-0.00639 0.1121378,-0.00672 z M 6.9923381,3.13986 c 0.014368,-0.00141 0.035241,0.00546 0.054777,0.020154 0.016381,0.012318 0.040141,0.017699 0.057878,0.012919 0.019461,-0.00524 0.036172,-6.053e-4 0.047025,0.013436 0.00877,0.011345 0.011863,0.020292 0.010335,0.025838 v 5.168e-4 c -9.59e-5,2.084e-4 -4.049e-4,0.00135 -5.167e-4,0.00155 l -5.168e-4,5.168e-4 -5.168e-4,5.167e-4 -5.167e-4,5.168e-4 -5.168e-4,5.167e-4 c -0.00606,0.00442 -0.020371,0.00278 -0.039791,-0.00672 -0.032179,-0.01574 -0.053845,-0.020816 -0.062012,-0.018087 -2.359e-4,1.415e-4 -0.00135,9.125e-4 -0.00155,0.00103 l -5.167e-4,5.168e-4 v 5.167e-4 h -5.168e-4 v 5.168e-4 5.167e-4 l -5.168e-4,5.168e-4 c -4.82e-5,5.341e-4 -9.53e-5,0.00197 0,0.00258 0.00218,0.00849 0.017066,0.024202 0.044958,0.043925 0.037249,0.026337 0.070841,0.048059 0.074931,0.048059 h 5.167e-4 c 0.00494,0.00117 0.018427,0.011019 0.030489,0.022738 0.012866,0.0125 0.035475,0.029534 0.050643,0.037724 0.039088,0.021113 0.043232,0.046995 0.0093,0.060461 -0.00902,0.00358 -0.015384,0.00628 -0.018604,0.00827 -2.619e-4,1.898e-4 -0.00135,8.935e-4 -0.00155,0.00103 l -5.168e-4,5.168e-4 v 5.167e-4 l -5.168e-4,5.168e-4 v 5.167e-4 h 5.168e-4 v 5.168e-4 l 5.168e-4,5.168e-4 5.167e-4,5.167e-4 c 0.00348,0.00197 0.012008,0.00431 0.024805,0.00775 0.020392,0.00549 0.031451,0.013948 0.033073,0.021187 v 5.168e-4 h 5.168e-4 v 5.168e-4 5.167e-4 5.168e-4 5.168e-4 5.167e-4 h -5.168e-4 v 5.168e-4 5.168e-4 c -9.37e-5,2.183e-4 -4.018e-4,0.00134 -5.167e-4,0.00155 l -5.168e-4,5.168e-4 c -2.362e-4,3.063e-4 -0.00126,0.00125 -0.00155,0.00155 -0.00469,0.00403 -0.014342,0.00723 -0.028422,0.00723 -0.044132,0 -0.092569,0.026865 -0.095085,0.044959 -4.79e-5,9.208e-4 3.092e-4,0.00275 5.168e-4,0.00362 v 5.167e-4 L 7.17889,3.517098 c 3.825e-4,6.25e-4 0.00152,0.00197 0.00207,0.00258 0.00159,0.00149 0.00396,0.00303 0.00672,0.00413 0.015705,0.00624 0.035772,0.017592 0.044442,0.025322 0.00867,0.00773 0.030019,0.026027 0.047542,0.040824 0.012943,0.010929 0.020828,0.017808 0.023254,0.021704 l 5.168e-4,5.167e-4 v 5.168e-4 5.167e-4 l 5.167e-4,5.168e-4 v 5.168e-4 h -5.167e-4 v 5.167e-4 l -5.168e-4,5.168e-4 -5.168e-4,5.168e-4 -5.167e-4,5.167e-4 c -0.00336,0.00128 -0.01102,0.00133 -0.022221,0.00155 -0.017522,3.5e-4 -0.043343,0.00347 -0.057361,0.00723 -0.014018,0.00376 -0.033746,9.157e-4 -0.043925,-0.0062 -0.00954,-0.00668 -0.021276,-0.00948 -0.027388,-0.00672 l -5.168e-4,5.168e-4 H 7.1499512 C 7.1128642,3.6374909 6.945142,3.586378 6.9349772,3.554305 v -5.168e-4 h -5.168e-4 v -5.167e-4 -5.168e-4 c -1.48e-5,-2.72e-4 -1.07e-5,-0.00128 0,-0.00155 7.34e-5,-5.304e-4 3.373e-4,-0.00207 5.168e-4,-0.00258 l 5.168e-4,-5.168e-4 c 7.219e-4,-0.00125 0.00218,-0.00299 0.00362,-0.00413 0.012265,-0.00973 0.022221,-0.024693 0.022221,-0.033073 0,-0.026427 0.067194,-0.054077 0.1043864,-0.042891 0.034035,0.010236 0.048576,0.00527 0.048576,-0.016536 v -5.168e-4 -5.167e-4 h -5.167e-4 v -5.168e-4 l -5.168e-4,-5.167e-4 -5.168e-4,-5.168e-4 c -0.00484,-0.00463 -0.019669,-0.00879 -0.03669,-0.00879 -0.016503,0 -0.026573,-0.00183 -0.031523,-0.00672 -0.00413,-0.00503 -0.0047,-0.013776 -0.00362,-0.027905 0.0022,-0.028553 0.00817,-0.034296 0.034623,-0.031006 0.011011,0.00137 0.018699,0.00116 0.023254,-0.00103 2.969e-4,-1.781e-4 0.00128,-8.756e-4 0.00155,-0.00103 2.416e-4,-2.224e-4 0.00114,-0.00116 0.00155,-0.00155 l 5.168e-4,-5.168e-4 c 0.00196,-0.0035 0.00271,-0.00921 0.00155,-0.016536 -0.00253,-0.015902 0.00551,-0.027866 0.022221,-0.032556 0.011699,-0.00328 0.019189,-0.00685 0.022738,-0.010335 l 5.168e-4,-5.167e-4 5.168e-4,-5.168e-4 c 2.27e-4,-3.326e-4 4.743e-4,-9.235e-4 5.167e-4,-0.00103 l 5.168e-4,-5.168e-4 v -5.168e-4 l 5.168e-4,-5.167e-4 v -5.168e-4 -5.168e-4 -5.167e-4 c -6.22e-5,-2.233e-4 -4.232e-4,-0.00133 -5.168e-4,-0.00155 l -5.168e-4,-5.168e-4 c -1.564e-4,-2.247e-4 -8.877e-4,-0.00133 -0.00103,-0.00155 -0.00745,-0.00767 -0.033237,-0.015988 -0.076481,-0.023771 -0.1113001,-0.02004 -0.1809145,-0.036949 -0.1984375,-0.048576 -0.026858,-0.017821 -0.01575,-0.035657 0.022221,-0.035657 0.050047,0 0.077515,-0.012626 0.077515,-0.035657 0,-0.011039 0.00691,-0.017508 0.018087,-0.018603 z M 5.0224325,4.058667 c 0.00126,-2.221e-4 0.00249,-1.55e-4 0.00362,0 2.755e-4,6.21e-5 0.00156,4.302e-4 0.00207,5.168e-4 h 5.167e-4 c 0.00618,0.00316 0.011381,0.013656 0.018087,0.029456 0.013169,0.031031 0.075683,0.063814 0.1565796,0.082166 0.017982,0.00408 0.046721,0.019975 0.063562,0.035657 0.016841,0.015681 0.049736,0.038597 0.07338,0.050643 0.055888,0.028472 0.06415,0.054985 0.026355,0.083716 -0.00742,0.00564 -0.013204,0.0098 -0.015503,0.013436 -1.256e-4,2.528e-4 -4.315e-4,0.0013 -5.168e-4,0.00155 l -5.168e-4,5.167e-4 v 5.168e-4 5.168e-4 5.167e-4 5.168e-4 h 5.168e-4 v 5.168e-4 5.167e-4 l 5.168e-4,5.168e-4 c 0.00998,0.00863 0.065123,0.014848 0.2211751,0.031523 0.052568,0.00562 0.1014005,0.015227 0.1085205,0.021187 0.00712,0.00596 0.038145,0.0138 0.06873,0.01757 0.04283,0.00528 0.070793,0.017079 0.073897,0.028939 v 5.168e-4 h 5.167e-4 v 5.168e-4 5.167e-4 c -3.4e-6,2.517e-4 2.7e-5,0.0013 0,0.00155 -5.07e-5,2.507e-4 -4.421e-4,0.0013 -5.167e-4,0.00155 -9.89e-5,2.491e-4 -3.936e-4,0.0013 -5.168e-4,0.00155 -0.00118,0.00198 -0.00339,0.00433 -0.0062,0.0062 l -5.167e-4,5.168e-4 c -0.018079,0.0073 -0.2207966,-0.00975 -0.3302124,-0.027905 -0.025178,-0.00418 -0.045053,-0.00365 -0.051677,5.167e-4 l -5.167e-4,5.168e-4 -5.168e-4,5.168e-4 h -5.168e-4 v 5.167e-4 h -5.167e-4 v 5.168e-4 5.168e-4 5.167e-4 5.168e-4 5.168e-4 5.167e-4 h 5.167e-4 l 5.168e-4,5.168e-4 c 0.015636,0.013785 0.1452364,0.042611 0.2284098,0.049609 0.042335,0.00357 0.056212,0.00533 0.060978,0.010852 2.689e-4,4.028e-4 0.00117,0.0019 0.00155,0.00258 5.282e-4,0.00197 0.00103,0.00489 0.00103,0.00775 0,2.325e-4 2.49e-5,8.473e-4 0,0.00103 v 5.168e-4 c -7.28e-5,2.19e-4 -4.208e-4,0.00134 -5.167e-4,0.00155 l -5.168e-4,5.167e-4 c -0.00364,0.00528 -0.015092,0.00903 -0.027905,0.00827 -0.015771,-9.3e-4 -0.037028,0.00166 -0.047542,0.00568 -0.010513,0.00402 -0.042244,-3.205e-4 -0.07028,-0.00982 -0.028036,-0.00948 -0.09098,-0.021838 -0.1400432,-0.027388 -0.049063,-0.00555 -0.096637,-0.016625 -0.1059367,-0.024805 -0.00505,-0.00444 -0.00969,-0.00731 -0.013436,-0.00775 -2.832e-4,-9.8e-6 -0.00127,-1.43e-5 -0.00155,0 -5.474e-4,7.68e-5 -0.00205,3.431e-4 -0.00258,5.168e-4 -0.00341,0.00144 -0.00711,0.00525 -0.010335,0.010852 -0.00262,0.00455 -0.00522,0.00797 -0.00775,0.00982 l -5.168e-4,5.168e-4 H 5.2958008 V 4.490682 H 5.295284 c -2.622e-4,1.049e-4 -0.00128,4.384e-4 -0.00155,5.167e-4 H 5.293217 c -3.187e-4,-9.6e-6 -9.332e-4,-1.27e-5 -0.00103,0 -0.00423,-1.44e-5 -0.00996,-0.00293 -0.016536,-0.00878 -0.00839,-0.00747 -0.018045,-0.010961 -0.023254,-0.0093 h -5.168e-4 l -5.168e-4,5.167e-4 h -5.167e-4 v 5.168e-4 l -5.168e-4,5.168e-4 c -0.015999,0.017177 -0.058372,-0.011533 -0.072864,-0.049093 -0.0223,-0.057799 -0.00696,-0.093622 0.041858,-0.098702 0.026606,-0.00277 0.041682,-0.012283 0.044442,-0.027905 0.00107,-0.00606 0.00156,-0.010928 5.168e-4,-0.013953 L 5.2637614,4.284493 5.2632446,4.2839762 v -5.167e-4 -5.168e-4 l -5.167e-4,-5.168e-4 -5.168e-4,-5.167e-4 h -5.168e-4 l -5.167e-4,-5.168e-4 c -2.066e-4,-8.59e-5 -0.00133,-4.515e-4 -0.00155,-5.167e-4 h -5.168e-4 c -0.00227,-2.162e-4 -0.0058,1.126e-4 -0.0093,0.00155 -0.010118,0.00417 -0.021648,-0.00223 -0.025838,-0.013953 -0.00419,-0.011718 -0.01817,-0.021187 -0.031006,-0.021187 -0.012837,0 -0.030051,-0.00723 -0.038241,-0.01602 -0.033199,-0.035646 -0.1002532,-0.04918 -0.1508952,-0.030489 -0.089468,0.033021 -0.1098726,-0.024707 -0.034623,-0.098702 0.028037,-0.027571 0.043125,-0.041631 0.053227,-0.043408 z M 3.7661784,4.3780273 c 0.034647,-0.00106 0.079081,-8.925e-4 0.1364258,0 l 0.210323,0.00362 0.079582,0.083716 c 0.039622,0.041737 0.065807,0.076291 0.065629,0.0863 v 5.167e-4 5.168e-4 l -5.167e-4,5.167e-4 v 5.168e-4 h -5.168e-4 v 5.168e-4 h -5.168e-4 c -0.046482,0.015364 -0.083535,0.016942 -0.1178222,0.00465 -0.021027,-0.00753 -0.1130049,-0.015273 -0.2041219,-0.017053 -0.201928,-0.00395 -0.2868042,-0.033174 -0.2868042,-0.099219 0,-0.046164 0.014399,-0.061405 0.118339,-0.064596 z m -3.11815594,1.162203 c -0.10440788,-0.00121 -0.19259119,0.016853 -0.19637044,0.045475 -0.007397,0.056022 0.0180938,0.070797 0.12040609,0.070797 0.0453972,0 0.0843747,0.00468 0.0930176,0.010335 v 5.167e-4 l 5.1677e-4,5.168e-4 v 5.168e-4 h 5.1676e-4 v 5.167e-4 5.168e-4 5.168e-4 5.167e-4 5.168e-4 l 5.1677e-4,5.167e-4 v 5.168e-4 l 5.1676e-4,5.168e-4 h 5.1677e-4 l 5.1676e-4,5.167e-4 5.1676e-4,5.168e-4 c 0.004472,0.00261 0.0138171,0.00331 0.0237712,5.168e-4 0.0144786,-0.00407 0.0384338,-0.00111 0.0537435,0.00672 0.0513297,0.026265 0.14423719,0.046482 0.21394043,0.046509 0.0380103,1.48e-5 0.18922439,-6.424e-4 0.33641359,-0.00155 0.2546665,-0.00158 0.5579108,0.00731 0.6821289,0.020154 0.1406551,0.014543 1.7369865,-10e-8 1.7611328,-0.01602 h 5.168e-4 l 5.167e-4,-5.168e-4 h 5.168e-4 c 5.262e-4,-1.411e-4 0.00108,-3.982e-4 0.00155,-5.167e-4 h 5.168e-4 l 5.167e-4,-5.168e-4 h 5.168e-4 5.167e-4 5.168e-4 l 5.168e-4,5.168e-4 h 5.167e-4 l 5.168e-4,5.167e-4 5.168e-4,5.168e-4 5.167e-4,5.168e-4 c 7.821e-4,0.00136 0.00155,0.00392 0.00155,0.0062 l 5.168e-4,5.168e-4 v 5.168e-4 h 5.168e-4 v 5.167e-4 c 0.019943,0.010594 0.2352838,0.020674 0.3240112,0.014469 0.042639,-0.00298 0.6158917,0.00174 0.75861,0.0062 0.073594,0.0023 0.2538199,0.0085 0.4010091,0.013953 0.1471891,0.00545 0.4371228,0.014223 0.6438884,0.01912 0.4199811,0.00995 0.9984344,0.00818 1.1151774,-0.0031 0.1755964,-0.016969 0.3204106,-0.04176 0.3472656,-0.059428 0.053094,-0.03493 0.021587,-0.1053063 -0.033073,-0.073897 -0.011856,0.00681 -0.035803,0.012656 -0.053227,0.013436 -0.053766,0.0024 -0.1529522,0.01106 -0.2992066,0.025838 -0.077099,0.00779 -0.1567134,0.010874 -0.1767334,0.00672 -0.017518,-0.00365 -0.035238,-0.00186 -0.042375,0.00362 l -5.167e-4,5.168e-4 c -3.997e-4,4.303e-4 -0.00127,0.0016 -0.00155,0.00207 h -5.168e-4 l -5.167e-4,5.168e-4 c -2.478e-4,2.181e-4 -0.00126,8.633e-4 -0.00155,0.00103 -0.010253,0.00598 -0.041493,0.00787 -0.082166,0.0031 -0.042054,-0.00492 -0.1168183,-0.00784 -0.1658813,-0.0062 -0.049063,0.00164 -0.2351986,-0.00255 -0.4139282,-0.0093 C 5.2333567,5.6651751 3.9780559,5.6498358 2.8990479,5.6575358 2.8342146,5.6579982 2.7481471,5.6575591 2.7078451,5.657019 2.6675433,5.656479 2.5575208,5.6573761 2.4628988,5.6590861 2.3118751,5.6618141 2.0385576,5.6538167 1.6851685,5.6358317 1.6255919,5.6327997 1.4679524,5.6265691 1.3348022,5.6218791 1.2016521,5.6171871 1.0870674,5.608242 1.0800374,5.602242 1.0702218,5.5960678 1.0135064,5.5838759 0.95239665,5.5753703 0.8893156,5.5665913 0.80055118,5.5542818 0.75499268,5.5479818 0.71909901,5.5430208 0.68282509,5.5406332 0.64802246,5.5402303 Z M 3.0117025,6.4109782 c -0.00802,8.031e-4 -0.017696,0.00413 -0.031006,0.0093 -0.023023,0.00894 -0.058536,0.016421 -0.079065,0.016536 -0.052769,2.96e-4 -0.078211,0.019476 -0.058911,0.044442 0.0094,0.012155 0.00976,0.023417 0.00568,0.028422 -0.00441,0.00403 -0.013296,0.00313 -0.023771,-0.0062 -0.017408,-0.01551 -0.043408,-0.00586 -0.043408,0.01602 v 5.168e-4 5.167e-4 l 5.168e-4,5.168e-4 v 5.168e-4 c 5.04e-5,1.175e-4 4.158e-4,0.00122 5.167e-4,0.00155 l 5.168e-4,5.168e-4 5.167e-4,5.168e-4 c 0.011048,0.011156 0.059463,0.00924 0.1204061,-0.00723 0.054512,-0.014737 0.1581321,0.012288 0.1581299,0.041341 v 5.168e-4 l -5.168e-4,5.168e-4 v 5.167e-4 5.168e-4 h -5.167e-4 l -5.168e-4,5.167e-4 c -2.392e-4,2.013e-4 -0.00126,8.823e-4 -0.00155,0.00103 -0.020709,0.011016 -0.1325281,0.00238 -0.1483113,-0.012919 v -5.168e-4 l -5.168e-4,-5.168e-4 c -0.0026,-0.00451 -0.00481,-0.00728 -0.00672,-0.00878 L 2.9026652,6.538619 2.9021484,6.5381022 h -5.167e-4 l -5.168e-4,-5.168e-4 h -5.168e-4 -5.167e-4 v 5.168e-4 h -5.168e-4 -5.167e-4 l -5.168e-4,5.168e-4 -5.168e-4,5.167e-4 -5.167e-4,5.168e-4 c -0.00166,0.00221 -0.00375,0.00648 -0.00568,0.011886 -0.00866,0.024228 -0.1477167,0.03135 -0.1607138,0.010335 v -5.168e-4 l -5.167e-4,-5.168e-4 v -5.167e-4 -5.168e-4 -5.167e-4 -5.168e-4 c 0,-0.034523 -0.090366,-0.057642 -0.1193726,-0.030489 -0.073055,0.068388 -0.1738814,0.077233 -0.4289144,0.037724 -0.015013,-0.00233 -0.024295,-0.00312 -0.027905,-0.00258 h -5.168e-4 l -5.168e-4,5.167e-4 h -5.167e-4 v 5.168e-4 5.168e-4 h 5.167e-4 v 5.167e-4 c 0.00157,0.00125 0.00524,0.00356 0.00982,0.00568 0.00273,0.00127 0.00572,0.00302 0.00723,0.00413 l 5.167e-4,5.168e-4 v 5.168e-4 h 5.168e-4 v 5.167e-4 l 5.167e-4,5.168e-4 v 5.168e-4 5.167e-4 l -5.167e-4,5.168e-4 v 5.168e-4 l -5.168e-4,5.167e-4 c -0.00512,0.00383 -0.023815,0.00723 -0.058394,0.010852 -0.042054,0.0044 -0.1195146,0.015528 -0.1720826,0.024288 -0.052568,0.00876 -0.1386348,0.019438 -0.1912028,0.024288 -0.095576,0.00881 -0.095891,0.00884 -0.094051,0.063562 0.0012,0.035606 -0.0048,0.059123 -0.017053,0.066663 -0.00445,0.00273 -0.00724,0.00539 -0.00879,0.00827 -0.00294,0.00725 0.00299,0.017543 0.020154,0.037207 0.012358,0.014162 0.020552,0.0216 0.025838,0.022738 2.761e-4,2.48e-5 0.00129,1.34e-5 0.00155,0 h 5.168e-4 5.168e-4 5.167e-4 v -5.167e-4 h 5.168e-4 l 5.167e-4,-5.168e-4 5.168e-4,-5.168e-4 5.168e-4,-5.167e-4 v -5.168e-4 h 5.167e-4 v -5.168e-4 c 5.494e-4,-0.00125 0.0012,-0.00334 0.00155,-0.00517 0.00566,-0.02967 0.056021,-0.050128 0.081132,-0.033073 0.028154,0.019123 0.1002523,-0.013293 0.1002523,-0.044958 0,-0.02037 0.015659,-0.023503 0.1219564,-0.025321 0.067297,-0.00115 0.1445377,-0.00873 0.1715657,-0.016536 0.027028,-0.00781 0.1630659,-0.017207 0.3017904,-0.021187 0.3286168,-0.00942 0.3211008,-0.00985 0.3534668,0.012919 0.015084,0.010611 0.022741,0.01452 0.028939,0.011886 0.00333,-0.00181 0.00731,-0.00607 0.010852,-0.011886 V 6.700883 l 5.167e-4,-5.168e-4 c 0.065054,-0.073009 1.3825885,-0.067367 2.2794475,0.010852 0.4140457,0.036111 0.5018688,0.032042 0.4826578,-0.021704 -0.00876,-0.024519 0.023151,-0.040515 0.1204061,-0.060461 0.044253,-0.00908 0.1056458,-0.02821 0.1364258,-0.042375 0.03078,-0.014164 0.089906,-0.03005 0.1317749,-0.03514 0.103972,-0.012629 0.1513478,-0.1262056 0.057878,-0.1390096 -0.0083,-0.00114 -0.013515,-0.00185 -0.015503,-0.00155 H 6.0456258 V 6.411495 H 6.045109 v 5.167e-4 l 5.168e-4,5.168e-4 c 0.00228,0.00167 0.00829,0.00497 0.017053,0.0093 0.0073,0.00361 0.012538,0.00638 0.014986,0.00827 l 5.168e-4,5.167e-4 5.167e-4,5.168e-4 5.168e-4,5.168e-4 v 5.167e-4 5.168e-4 l -5.168e-4,5.168e-4 c -0.00288,0.00112 -0.010993,0.00171 -0.023254,0.00207 -0.016974,4.969e-4 -0.034492,0.00431 -0.040308,0.00879 l -5.167e-4,5.168e-4 -5.168e-4,5.167e-4 c -0.039392,0.042291 -0.1696175,0.074519 -0.3844727,0.094568 -0.1262444,0.01178 -0.2428927,0.025056 -0.2594157,0.029456 -0.017515,0.00466 -0.034141,4.866e-4 -0.039791,-0.0093 -0.00165,-0.00287 -0.00412,-0.00574 -0.0062,-0.00723 -0.00744,-0.00447 -0.018855,-8.063e-4 -0.040308,0.010852 -0.0419,0.022772 -0.2863447,0.021227 -0.6294189,-0.00362 -0.189406,-0.01378 -0.2777884,-0.02224 -0.5730917,-0.056327 -0.4092173,-0.047236 -0.9114385,-0.044867 -0.9482625,0.00465 -0.031295,0.042088 -0.048494,0.046785 -0.07028,0.018604 -0.011886,-0.015376 -0.00734,-0.022942 0.023771,-0.037724 0.022663,-0.01077 0.035205,-0.02031 0.037207,-0.027388 v -5.168e-4 h 5.168e-4 V 6.4605876 6.4600708 6.459554 6.4590373 6.4585205 L 3.1238403,6.4580037 V 6.457487 L 3.1233236,6.4569702 V 6.4564535 L 3.1228068,6.4559367 3.12229,6.4554199 c -0.00375,-0.00301 -0.012027,-0.00517 -0.024288,-0.00517 -0.015218,0 -0.038604,-0.010554 -0.051676,-0.023254 -0.012596,-0.012237 -0.021263,-0.017358 -0.034623,-0.01602 z m 0.5214152,1.3885457 c -0.044043,0.00229 -0.1486626,0.04035 -0.1865519,0.072347 -0.02524,0.021311 -0.04871,0.031669 -0.058394,0.029456 l -5.168e-4,-5.168e-4 c -1.104e-4,-4.78e-5 -0.00122,-4.137e-4 -0.00155,-5.167e-4 L 3.2855876,7.8997762 H 3.2850708 V 7.8992594 L 3.284554,7.8987427 v -5.168e-4 h -5.167e-4 v -5.168e-4 -5.167e-4 l -5.168e-4,-5.168e-4 v -5.167e-4 -5.168e-4 c 1.619e-4,-0.00416 0.00314,-0.010771 0.00982,-0.01912 0.020504,-0.025634 0.031066,-0.042505 0.031523,-0.050126 v -5.168e-4 -5.168e-4 l -5.168e-4,-5.167e-4 v -5.168e-4 -5.168e-4 h -5.168e-4 l -5.167e-4,-5.167e-4 v -5.168e-4 h -5.168e-4 l -5.168e-4,-5.167e-4 h -5.167e-4 c -0.0037,-7.192e-4 -0.010719,2.439e-4 -0.01912,0.0031 -0.07407,0.025239 -0.065028,0.099583 0.012402,0.1033529 0.01149,5.5e-4 0.033323,0.00356 0.049093,0.00672 0.00985,0.00197 0.017137,0.00193 0.021704,-5.167e-4 8.514e-4,-5.547e-4 0.00243,-0.00183 0.0031,-0.00258 0.00245,-0.00328 0.00413,-0.00879 0.00413,-0.015503 v -5.167e-4 c 1.52e-4,-0.00164 8.409e-4,-0.00385 0.00155,-0.00517 0.015121,-0.018238 0.1052954,-0.015384 0.2976563,0.010852 0.035045,0.00478 0.092596,0.010562 0.1276408,0.012402 0.035045,0.00184 0.1700567,0.00951 0.2997233,0.01757 0.1296666,0.00806 0.3381596,0.015202 0.4635376,0.015503 0.1253781,3.012e-4 0.2311453,0.00399 0.2351277,0.00827 0.018162,0.019499 0.1760936,8.16e-4 0.1896526,-0.021187 l 5.167e-4,-5.167e-4 v -5.168e-4 l 5.168e-4,-5.168e-4 v -5.167e-4 c 0.00992,-0.05582 -0.040474,-0.065721 -0.3746542,-0.073381 -0.1746328,-0.004 -0.3689339,-0.01334 -0.4320149,-0.02067 C 4.1392606,7.8510215 3.9988414,7.842288 3.8902018,7.838798 3.6790102,7.83201 3.5684569,7.821156 3.5532715,7.8057251 3.553076,7.8054738 3.552384,7.8044285 3.552238,7.8041748 L 3.5517212,7.803658 3.5512044,7.8031413 c -0.00311,-0.0025 -0.00962,-0.00406 -0.018087,-0.00362 z" /><path
       style="fill:#000000;stroke-width:0.264583"
       d="m 3.3708736,7.916877 c -0.00813,0.00407 -0.015536,0.010155 -0.024397,0.0122 -0.00924,0.00214 -0.018992,-5.556e-4 -0.028463,0 -0.032413,0.0019 -0.047887,0.00489 -0.077258,0 -0.00401,-6.615e-4 -0.00932,0.00288 -0.0122,0 -9.525e-4,-9.525e-4 9.525e-4,-0.00311 0,-0.00407 -0.00559,-0.00559 -0.014161,-0.00726 -0.020331,-0.0122 -0.00477,-0.00382 -0.0147,-0.014851 -0.016264,-0.020331 -0.00335,-0.011729 0.00111,-0.024447 0,-0.036596 -0.00193,-0.021222 -0.00955,-0.051273 -0.00407,-0.073191 0.0022,-0.00882 0.00577,-0.017968 0.0122,-0.024397 0.00346,-0.00346 0.00874,-0.00468 0.0122,-0.00813 0.0091,-0.0091 0.020005,-0.027162 0.032529,-0.032529 0.00498,-0.00214 0.010898,7.673e-4 0.016264,0 0.012369,-0.00177 0.024342,-0.00568 0.036596,-0.00813 0.021635,-0.00433 0.043772,-0.00639 0.065059,-0.0122 0.00585,-0.00159 0.010348,-0.00682 0.016264,-0.00813 0.016124,-0.00358 0.040373,0 0.056927,0 0.025752,0 0.051541,-0.00135 0.077258,0 0.044792,0.00235 0.089504,0.00534 0.1341842,0.00813 0.064292,0.00402 -2.91e-4,0.00352 0.069125,0.0122 0.017537,0.0022 0.035296,0.00212 0.052861,0.00407 0.020963,0.00233 0.044079,0 0.065059,0 0.025874,0 0.058842,0.00204 0.08539,0 0.017452,-0.00135 0.042614,-0.00815 0.060993,-0.00407 0.013229,0.00294 0.044296,0.020971 0.052861,0.024397 0.015912,0.00637 0.087505,0.022236 0.097589,0.024397 0.00608,0.0013 0.014137,-6.085e-4 0.020331,0 0.046212,0.00462 0.092387,0.00761 0.1382506,0.0122 0.02838,0.00284 0.06575,0.00347 0.093522,0 0.011091,-0.00138 0.02145,-0.00665 0.03253,-0.00813 0.0094,-0.00124 0.018976,0 0.028463,0 0.013555,-0.00271 0.027027,-0.00586 0.040662,-0.00813 0.016595,-0.00276 0.036089,0 0.052861,0 0.031174,0 0.062348,0 0.093522,0 0.047116,0 0.095318,-0.00313 0.1423167,0 0.020201,0.00135 0.036756,0.00968 0.056927,0.0122 0.028078,0.00351 0.057422,7.07e-5 0.08539,0.00407 0.05823,0.00832 -0.022807,-0.0013 0.044728,0.0122 0.00942,0.00188 0.019098,-0.00156 0.028463,0 0.014227,0.00238 0.027285,0.00774 0.040662,0.0122 0.014743,0.00491 0.030375,0.00454 0.044728,0.00813 0.012562,0.00314 0.025863,0.025863 0.032529,0.032529 9.525e-4,9.525e-4 0.00311,-9.525e-4 0.00407,0 9.525e-4,9.525e-4 -6.085e-4,0.00285 0,0.00407 0.0085,0.017002 0.025122,0.032818 0.028463,0.05286 8.996e-4,0.00535 -7.673e-4,0.010898 0,0.016264 7.937e-4,0.00553 0.00802,0.012314 0.00407,0.016264 -9.525e-4,9.525e-4 -0.00311,-9.525e-4 -0.00407,0 -0.00191,0.0019 0.0019,0.00622 0,0.00813 -0.00214,0.00214 -0.00561,0.00238 -0.00813,0.00407 -0.00809,0.00539 -0.018899,0.019587 -0.024397,0.024397 -9.261e-4,8.202e-4 -0.042278,0.031549 -0.044728,0.032529 -0.00762,0.00305 -0.060534,0.00172 -0.069125,0 -0.00297,-5.821e-4 -0.00516,-0.00347 -0.00813,-0.00407 -0.010324,-0.00206 -0.022326,0.00254 -0.03253,0 -0.00294,-7.408e-4 -0.00542,-0.00271 -0.00813,-0.00407 -0.00542,-0.00135 -0.010753,-0.00315 -0.016264,-0.00407 -0.00888,-0.00148 -0.020074,-0.00127 -0.028463,-0.00407 -0.00183,-6.085e-4 -0.00235,-0.00321 -0.00407,-0.00407 -0.00122,-6.085e-4 -0.00271,0 -0.00407,0 -0.00407,-0.00135 -0.00863,-0.00169 -0.0122,-0.00407 -0.00114,-7.409e-4 0,-0.00271 0,-0.00407 -0.00271,-0.00135 -0.00519,-0.00333 -0.00813,-0.00407 -0.00214,-5.292e-4 -0.013782,0.00167 -0.016264,0 -0.00478,-0.00319 -0.00706,-0.00963 -0.0122,-0.0122 -0.00122,-6.085e-4 -0.00271,0 -0.00407,0 -0.00407,-0.00271 -0.00813,-0.00542 -0.012197,-0.00813"
       id="path39" /><path
       style="fill:#000000;stroke-width:0.264583"
       d="m 3.7856252,6.5018419 c 0.018706,-0.00624 0.052818,-0.018108 0.069125,-0.020331 0.014772,-0.00201 0.029857,0.00106 0.044728,0 0.01393,-0.00101 0.00993,-0.0082 0.024397,-0.00407 0.00583,0.00167 0.010515,0.00621 0.016264,0.00813 0.00502,0.00167 0.025942,-2.294e-4 0.028463,0 0.03395,0.00309 0.067419,0.00671 0.1016548,0.00813 0.06659,0.00278 0.041334,-5.292e-4 0.1097872,-0.00813 0.019442,-0.00217 0.041383,0 0.060993,0 0.041735,0 0.088213,0.00419 0.1301182,0 0.00688,-6.879e-4 0.013454,-0.00338 0.020331,-0.00407 0.018627,-0.00185 0.038911,0.00262 0.056927,0.00407 0.064566,0.00516 0.057991,0.00407 0.1179195,0.00407 0.042018,0 0.084035,0 0.126052,0 0.024397,0 0.049008,0.00323 0.073192,0 0.00978,-0.0013 0.018682,-0.00683 0.028463,-0.00813 0.020804,-0.00277 0.060011,-0.00305 0.081324,0 0.00424,6.086e-4 0.00796,0.00346 0.0122,0.00407 0.013417,0.0019 0.027191,-0.00151 0.040662,0 0.016388,0.00183 0.032362,0.00676 0.048794,0.00813 0.016208,0.00135 0.032596,-0.00148 0.048794,0 0.013766,0.00124 0.026961,0.00631 0.040662,0.00813 0.030655,0.00409 0.062712,0.00351 0.093522,0.00813 0.012359,0.00185 0.024157,0.00695 0.036596,0.00813 0.044291,0.00422 0.089978,-0.00491 0.1341843,0 0.00555,6.086e-4 0.010843,0.00271 0.016264,0.00407 0.00949,0.00135 0.018907,0.00333 0.028463,0.00407 0.03748,0.00288 0.076268,0 0.1138534,0 0.095861,0 0.1929792,-0.00504 0.2886999,0 0.048331,0.00254 0.024707,0.00692 0.073191,0.00407 0.027223,-0.00161 0.054247,-0.00605 0.081324,-0.00813 0.00987,-7.673e-4 0.084636,7.408e-4 0.08539,0 9.525e-4,-9.525e-4 -0.00122,-0.00346 0,-0.00407 0.019391,-0.0097 0.061869,-0.015737 0.081324,-0.00407 0.013555,0.00813 -0.020127,6.8e-5 0.00407,0.00813 0.00257,8.467e-4 0.00622,-0.0019 0.00813,0 0.0018,0.0018 0.00122,0.03867 0,0.044728 -0.00143,0.00716 -0.00604,0.01334 -0.00813,0.020331 -0.00368,0.012248 -0.00783,0.038246 -0.016264,0.048794 -0.00305,0.00382 -0.00838,0.00508 -0.0122,0.00813 -0.00755,0.00604 -0.020624,0.025635 -0.024397,0.028463 -0.00343,0.00257 -0.00852,0.00185 -0.0122,0.00407 -0.00657,0.00394 -0.00988,0.012012 -0.016264,0.016264 -0.017174,0.011449 -0.022344,0.00894 -0.040662,0.016264 -0.00734,0.00293 -0.012994,0.00926 -0.020331,0.0122 -0.012835,0.00513 -0.02772,0.00328 -0.040662,0.00813 -0.00458,0.00172 -0.00771,0.00621 -0.0122,0.00813 -0.01338,0.00574 -0.038411,0.010594 -0.052861,0.0122 -0.020082,0.00222 -0.04091,-0.00222 -0.060993,0 -0.026146,0.00291 -0.058801,0.00938 -0.08539,0.00407 -0.00716,-0.00143 -0.013205,-0.00655 -0.020331,-0.00813 -0.00529,-0.00116 -0.010917,8.996e-4 -0.016264,0 -0.00846,-0.0014 -0.016081,-0.00605 -0.024397,-0.00813 -0.021217,-0.0053 -0.04374,-0.012388 -0.065059,-0.016264 -0.00533,-9.79e-4 -0.010898,7.673e-4 -0.016264,0 -0.040677,-0.00581 0.018553,-0.00146 -0.024397,-0.0122 -0.020836,-0.00521 -0.054894,3.969e-4 -0.077257,-0.00407 -0.02236,-0.00447 -0.027717,-0.010091 -0.048795,-0.0122 -0.012139,-0.00122 -0.024471,0.00135 -0.036596,0 -0.044589,-0.00495 -0.089142,-0.013047 -0.1341845,-0.016264 -0.017293,-0.00124 -0.03559,0.00193 -0.05286,0 -0.013737,-0.00153 -0.026896,-0.00688 -0.040662,-0.00813 -0.0081,-7.408e-4 -0.016375,0.00135 -0.024397,0 -0.00846,-0.0014 -0.015912,-0.00692 -0.024397,-0.00813 -0.010734,-0.00153 -0.021717,8.202e-4 -0.032529,0 -0.00689,-5.291e-4 -0.013454,-0.00338 -0.020331,-0.00407 -0.031788,-0.00318 -0.065683,0 -0.097589,0 -0.077257,0 -0.1545151,0 -0.2317729,0 -0.040515,0 -0.081522,0.00185 -0.1219856,0 -0.055215,-0.00251 -0.1084537,-0.00852 -0.1626478,-0.016264 -0.025463,-0.00364 -0.051728,-0.00193 -0.077258,-0.00407 -0.019809,-0.00164 -0.036255,-0.010821 -0.056927,-0.012197 -0.035015,-0.00233 -0.07078,0.00318 -0.1057211,0 -0.05712,-0.00519 0.00866,-0.00175 -0.048794,-0.012197 -0.014668,-0.00267 -0.029921,0.00175 -0.044728,0 -0.042446,-0.00499 -0.080521,-0.020923 -0.1219859,-0.028463 -0.00533,-9.79e-4 -0.010935,0.00101 -0.016264,0 -0.027276,0.00705 -0.045679,-0.015121 -0.069125,-0.020331 -0.00529,-0.00116 -0.010917,8.996e-4 -0.016264,0 -0.00944,-0.00156 -0.029309,-0.013533 -0.036596,-0.016264 -0.00401,-0.00151 -0.00804,-0.00303 -0.012197,-0.00407 -0.00262,-6.614e-4 -0.00621,0.0019 -0.00813,0 -0.00214,-0.00214 -0.00153,-0.00645 -0.00407,-0.00813 -0.010824,-0.00722 -0.00808,0.012269 -0.020331,-0.00407 -0.00619,-0.00826 -0.00813,-0.018976 -0.0122,-0.028463 z"
       id="path40" /><path
       style="fill:#000000;stroke-width:0.264583"
       d="m 2.1876116,6.5912981 c -0.023923,-0.00235 -0.045318,-0.017156 -0.069125,-0.020331 -0.026756,-0.00357 -0.058296,0 -0.08539,0 -0.05256,0 0.020741,8.466e-4 -0.05286,-0.00407 -0.044478,-0.00297 -0.089794,0.00392 -0.1341844,0 -0.040863,-0.00361 -0.081055,-0.013536 -0.1219858,-0.016264 -0.029496,-0.00196 -0.059871,0 -0.089456,0 -0.020809,0 -0.044432,-0.00295 -0.065059,0 -0.028358,0.00405 -0.056785,0.00902 -0.08539,0.012197 -0.024087,0.00268 -0.049197,-0.00343 -0.073192,0 -0.00849,0.00122 -0.015972,0.00655 -0.024397,0.00813 -0.013388,0.00251 -0.027343,0.00122 -0.040662,0.00407 -0.014274,0.00306 -0.0265,0.012724 -0.040662,0.016264 -0.025356,0.00634 -0.063038,0.00692 -0.08539,0.020331 -0.040335,0.024201 0.018735,-0.010478 -0.024397,0.020331 -0.029124,0.020802 -0.065428,0.03336 -0.081324,0.069125 -0.00335,0.00754 -3.783e-4,0.017023 -0.00407,0.024397 -0.00474,0.00947 -0.00956,0.037814 -0.00407,0.048794 6.059e-4,0.00122 0.00281,-5.027e-4 0.00407,0 0.00563,0.00225 0.011221,0.00477 0.016265,0.00813 0.017831,0.011888 0.035422,0.024141 0.05286,0.036596 0.00861,0.00615 0.015206,0.015079 0.024397,0.020331 0.00783,0.00447 0.050313,0.01855 0.060993,0.020331 0.029948,0.00499 0.1238317,9.525e-4 0.146383,-0.00407 0.048006,-0.010668 0.04579,-0.017513 0.097589,-0.036596 0.00649,-0.00238 0.013775,-0.00188 0.020331,-0.00407 0.00575,-0.0019 0.010384,-0.00666 0.016265,-0.00813 0.03272,-0.00818 0.03209,-0.00132 0.065059,-0.00407 0.054029,-0.0045 -0.00762,-0.00172 0.024397,-0.00813 0.00532,-0.00106 0.011416,0.00243 0.016265,0 0.035889,-0.017944 0.095598,-0.035824 0.1341844,-0.044728 0.00803,-0.00185 0.016742,-0.00101 0.024397,-0.00407 0.00629,-0.00251 0.00988,-0.00992 0.016265,-0.0122 0.030097,-0.010747 0.04082,-0.00567 0.069125,-0.0122 0.00835,-0.00193 0.015924,-0.00683 0.024397,-0.00813 0.00938,-0.00146 0.019129,0.00169 0.028463,0 0.00596,-0.00108 0.010514,-0.00621 0.016265,-0.00813 0.038265,-0.012756 0.00196,0.00681 0.044728,-0.0122 0.00447,-0.00198 0.0075,-0.00679 0.012199,-0.00813 0.00806,-0.0023 0.023742,0.00111 0.032529,0 0.016383,-0.00204 0.032113,-0.00813 0.048794,-0.00813"
       id="path41" /><path
       style="fill:#000000;stroke-width:0.264583"
       d="m 0.64405205,5.5837012 c 0.11944318,-0.015155 0.23266423,-0.059508 0.35077833,-0.080507 0.0302546,-0.00538 0.061481,-0.00222 0.0920074,-0.00575 0.019419,-0.00225 0.038223,-0.00829 0.057505,-0.011501 0.016096,-0.00268 0.038498,0.012832 0.051754,0.017251 0.053973,0.017992 0.058752,0.019876 0.1150093,0.023003 0.026794,0.00148 0.053804,-0.00267 0.080507,0 0.017927,0.0018 0.023906,0.00741 0.040253,0.011501 0.028263,0.00707 0.057493,0.00739 0.086257,0.011502 0.040787,0.00583 0.085806,-0.00225 0.1265102,0 0.1801837,0.010009 -0.1023371,0.00238 0.1437616,0.011501 0.1532867,0.00568 0.3067957,-0.00575 0.4600372,-0.00575 0.107342,0 0.214684,0 0.322026,0 0.042887,0 0.089139,0.00359 0.1322608,0 0.05005,-0.00417 0.099283,-0.017251 0.149512,-0.017251 0.1417238,0 0.2840556,0.00401 0.4255344,-0.00575 0.1786231,-0.012319 -0.053978,6.614e-4 0.092007,-0.011502 0.060494,-0.00504 0.1233257,0 0.184015,0 0.1035082,0 0.2070167,0 0.3105251,0 0.076673,0 0.1533456,0 0.2300184,0 0.040998,0 0.085904,-0.00507 0.1265103,0 0.015684,0.00196 0.030276,0.00993 0.046004,0.011502 0.05364,0.00536 0.016536,-0.00795 0.074756,0.00575 0.019481,0.00458 0.037676,0.014547 0.057505,0.017251 0.071263,0 0.051083,-0.00378 0.1035085,0.00575 0.027831,0.00506 0.052733,0.00323 0.080507,0.00575 0.026997,0.00246 0.053467,0.00957 0.080506,0.011501 0.058633,0.00419 0.1195435,0 0.1782646,0 0.1661787,0 0.3342778,-0.00692 0.5002903,0 0.034685,0.00146 0.068966,0.00805 0.1035085,0.011502 0.049644,0.00496 0.1003363,2.91e-4 0.1495121,0.00575 0.00972,0.00108 0.019002,0.00505 0.028752,0.00575 0.1067229,0.00762 0.2154121,-0.00888 0.322026,0 0.025125,0.00209 0.049658,0.00911 0.074756,0.011501 0.036828,0.00351 0.077915,0 0.1150091,0 0.069006,0 0.1380112,0 0.2070169,0 0.076673,0 0.1533456,0 0.2300187,0 0.031944,0 0.066092,0.00373 0.097758,0 0.021085,-0.00383 0.04217,-0.00767 0.063255,-0.011501 0.011501,0 0.023072,0.00127 0.034503,0 0.012049,-0.00135 0.022439,-0.010295 0.034503,-0.011502 0.026702,-0.00267 0.053739,0.0019 0.080507,0 0.090656,-0.00647 -0.00241,-0.00357 0.069005,-0.011501 0.054733,-0.00608 0.1069784,0.011501 0.161013,0.011501 0.022908,0 0.1478288,-0.00743 0.161013,0.00575 0.00135,0.00135 -0.00135,0.00439 0,0.00575 0.00135,0.00135 0.00439,-0.00135 0.00575,0 0.00655,0.00655 -0.00398,0.075636 -0.00575,0.086257 -9.525e-4,0.00567 0.00257,0.012107 0,0.017251 -0.0067,0.013398 -0.05812,0.022704 -0.074756,0.028752 -0.030098,0.010943 -0.06227,0.0176 -0.092008,0.028752 -0.029859,0.011197 -0.060664,0.027538 -0.092007,0.034503 -0.030774,0.00684 -0.066414,-0.00392 -0.097758,0 -0.024045,0.00301 -0.044329,0.00575 -0.069006,0.00575 -0.081458,0 0.00272,0.00167 -0.086257,-0.00575 -0.046209,-0.00385 -0.092308,0.00188 -0.1380112,-0.00575 -0.00423,-7.143e-4 -0.00727,-0.00505 -0.011501,-0.00575 -0.00756,-0.00127 -0.015383,8.467e-4 -0.023003,0 -0.024064,-0.00267 -0.045707,-0.012592 -0.069006,-0.017251 -0.00439,-8.731e-4 -0.018291,0.00235 -0.023003,0 -0.00243,-0.00122 -0.00309,-0.00522 -0.00575,-0.00575 -0.036073,-0.00722 -0.1549366,0 -0.2012662,0 -0.098734,0 -0.2017723,0.00814 -0.2990244,-0.00575 -0.064105,-0.00916 -0.1443767,0.01139 -0.2070166,0 -0.011927,-0.00217 -0.022545,-0.00951 -0.034503,-0.011501 -0.030428,-0.00507 -0.066782,0 -0.097758,0 -0.081138,0 -0.1603896,0.00575 -0.2415196,0.00575 -0.055588,0 -0.1111755,0 -0.1667634,0 -0.023916,0 -0.051213,-0.00392 -0.074756,0 -0.00598,0.00101 -0.011237,0.005 -0.017251,0.00575 -0.02888,0.00361 -0.1935194,0.005 -0.2185177,0 -0.011888,-0.00238 -0.022521,-0.00966 -0.034503,-0.011502 -0.018719,-0.00633 -0.038529,0.00271 -0.057504,0 -0.00782,-0.00111 -0.015206,-0.00445 -0.023003,-0.00575 -0.025945,-0.00432 -0.054329,0.00262 -0.080506,0 -0.00973,-9.789e-4 -0.019055,-0.00454 -0.028752,-0.00575 -0.00951,-0.00119 -0.02018,0.00429 -0.028753,0 -0.00485,-0.00243 -0.00629,-0.010012 -0.011501,-0.011501 -0.018431,-0.00527 -0.038454,0.00212 -0.057505,0 -0.061634,-0.00685 0.00276,-0.0022 -0.034503,-0.011501 -0.010933,-0.00273 -0.029343,0 -0.040253,0 -0.052768,0 -0.108554,0.00403 -0.161013,0 -0.012086,-9.261e-4 -0.022503,-0.00979 -0.034503,-0.011502 -0.023397,-0.00334 -0.051203,0 -0.074756,0 -0.08916,0 -0.1878028,0.00735 -0.2760223,0 -0.023238,-0.00193 -0.045829,-0.00893 -0.069006,-0.011501 -0.037025,-0.00411 -0.077996,0 -0.1150094,0 -0.063255,0 -0.1265102,0 -0.1897652,0 -0.0548,0 -0.1122011,-0.00496 -0.1667635,0 -0.034676,0.00315 -0.04928,0.011562 -0.086257,0.017251 -0.028481,0.00438 -0.057526,0.00354 -0.086257,0.00575 -0.03135,0.00241 -0.061035,5.821e-4 -0.092008,0.00575 -0.016748,0.00279 -0.035113,-0.00333 -0.051754,0 -0.00266,5.292e-4 -0.00383,0.00383 -0.00575,0.00575 -0.00767,0.00191 -0.015179,0.00463 -0.023003,0.00575 -0.013282,0.00191 -0.026918,-0.00148 -0.040254,0 -0.017158,-0.00371 -0.030356,0.00927 -0.046004,0.011501 -0.040346,0.00576 -0.080758,-0.00225 -0.1207598,0.00575 -0.035409,0.00708 -0.08351,0 -0.1207598,0 -0.061706,0 -0.1246966,0.00333 -0.1840148,-0.011501 -0.00186,-4.762e-4 -0.00383,0 -0.00575,0 -0.00575,0 -0.011722,0.00159 -0.017251,0 -0.00824,-0.00235 -0.014596,-0.00982 -0.023002,-0.011501 -0.020676,-0.00414 -0.04217,0 -0.063255,0 -0.058513,0 -0.1261355,0.00723 -0.1840148,0 -0.044004,-0.0055 -0.089856,-0.020272 -0.1322607,-0.028753 -0.02237,-0.00447 -0.046343,-0.00323 -0.069006,-0.00575 -0.04024,-0.00447 -0.081059,-0.01733 -0.1207597,-0.023003 -0.056804,-0.00811 -0.1153843,-0.00334 -0.172514,-0.011502 -0.030981,-0.00443 -0.066502,0 -0.097758,0 -0.074756,0 -0.1495121,0 -0.2242681,0 -0.1207598,0 -0.2415195,0 -0.3622793,0 -0.05135,0 -0.1165236,0.00718 -0.16676347,0 -0.020588,-0.00294 -0.0431868,-0.00577 -0.0632551,-0.011501 -0.019622,-0.00561 -0.0371903,-0.014711 -0.0575046,-0.017251 -0.0190201,-0.00238 -0.0384537,0.00212 -0.0575046,0 -0.013471,-0.00151 -0.0269625,-0.00309 -0.0402533,-0.00575 -0.004203,-8.467e-4 -0.007258,-0.00514 -0.0115009,-0.00575 -0.009488,-0.00135 -0.0197265,0.00322 -0.0287523,0 -0.0185851,-0.00664 -0.0345028,-0.019169 -0.0517542,-0.028752 z"
       id="path42" /><path
       style="fill:#000000;stroke-width:0.264583"
       d="M 0.97182851,4.726882 C 1.1825867,4.774534 1.3957579,4.778636 1.6101301,4.778636 c 0.047169,0 0.096887,0.00426 0.1437616,0 0.038606,-0.00351 0.076403,-0.013743 0.1150093,-0.017251 0.072274,-0.00657 0.1461473,0.00557 0.2185177,0 0.013514,-0.00103 0.026835,-0.00383 0.040253,-0.00575 0.015335,0 0.030708,0.00108 0.046004,0 0.02326,-0.00167 0.045802,-0.00918 0.069006,-0.011501 0.02843,-0.00284 0.057799,0.00238 0.086257,0 0.00974,-8.202e-4 0.019168,-0.00383 0.028752,-0.00575 0.023002,-0.0019 0.045956,-0.00454 0.069006,-0.00575 0.098941,-0.00521 0.1999723,0 0.2990242,0 0.037864,0 0.077345,0.00342 0.1150093,0 0.00787,-7.143e-4 0.015147,-0.00488 0.023003,-0.00575 0.044843,-0.00498 0.093377,0.00262 0.1380112,0 0.178612,-0.010507 0.060064,-0.010478 0.1955157,-0.017251 0.036095,-0.0018 0.073241,0.00327 0.1092588,0 0.013499,-0.00122 0.026767,-0.0044 0.040253,-0.00575 0.043651,-0.00437 0.08861,0.00437 0.1322607,0 0.1061913,-0.01062 0.2150102,-0.00575 0.322026,-0.00575 0.037606,0 0.077558,-0.00374 0.1150093,0 0.00973,9.79e-4 0.019002,0.00505 0.028752,0.00575 0.035847,0.00257 0.086896,-0.011181 0.1207598,0.00575 6.086e-4,3.175e-4 0.00106,0.027703 0,0.028752 -0.010586,0.010586 -0.023074,0.019082 -0.034503,0.028752 -0.013491,0.011414 -0.026114,0.0239 -0.040253,0.034503 -0.015788,0.01184 -0.036344,0.016425 -0.051754,0.028752 -0.00335,0.00268 -0.00272,0.00847 -0.00575,0.011502 -0.00678,0.00678 -0.019217,-9.525e-4 -0.028752,0 -0.013486,0.00135 -0.026726,0.00491 -0.040253,0.00575 -0.058836,0.00368 -0.1192228,0 -0.1782643,0 -0.056658,0 -0.1160315,0.00471 -0.1725142,0 -0.033009,-0.00275 -0.065226,-0.013999 -0.097758,-0.017251 -0.011443,-0.00114 -0.023048,0.00103 -0.034503,0 -0.019468,-0.00177 -0.038272,-0.008 -0.057505,-0.011501 C 3.2684292,4.80883 3.2126478,4.798088 3.1570067,4.79014 3.1245257,4.7855 3.0919367,4.78148 3.0592487,4.778639 c -0.036132,-0.00314 -0.073068,0.00241 -0.1092589,0 -0.027551,-0.00183 -0.054934,-0.00511 -0.080506,-0.011501 -0.027976,-0.00699 -0.089532,0 -0.1207598,0 -0.2396027,0 -0.4792054,0 -0.7188081,0 -0.080506,0 -0.161013,0 -0.2415195,0 -0.045608,0 -0.092542,-0.00303 -0.1380111,0 -0.030839,0.00206 -0.061191,0.00913 -0.092008,0.011501 -0.032362,0.00249 -0.065521,0.00217 -0.097758,0.00575 -0.040284,0.00448 -0.081672,0.015184 -0.1207597,0.023003 -0.014717,0.00294 -0.031135,-0.00212 -0.046004,0 -0.021835,0.00312 -0.04142,0.014131 -0.063255,0.017251 -0.040926,0.00585 0.011292,-0.00819 -0.046004,0 -0.017494,0.00249 -0.034287,0.00881 -0.051754,0.011501 -0.034154,0.00525 -0.069164,0.00193 -0.1035083,0.00575 -0.00786,8.731e-4 -0.015178,0.00463 -0.023002,0.00575 -0.0151805,0.00217 -0.0307453,-0.00153 -0.0460038,0 -0.0474444,0.00474 -0.0901705,0.00575 -0.13801113,0.00575"
       id="path44" /><path
       style="fill:#ffffff;stroke-width:1"
       d="m 5.0407982,18.005455 c -0.084526,-0.01017 -0.3680705,-0.03605 -0.6300998,-0.05751 -0.4213593,-0.0345 -0.4764169,-0.05313 -0.4764169,-0.161199 0,-0.123524 0.5865137,-0.734229 1.2534312,-1.305129 0.1931044,-0.165303 0.4055856,-0.407353 0.4721805,-0.53789 0.066595,-0.130537 0.1460598,-0.23734 0.1765888,-0.23734 0.1044395,0 0.427662,-0.313091 0.707407,-0.685235 0.3202346,-0.426005 0.3848654,-0.665381 0.1105793,-0.409557 -0.092978,0.08672 -0.2312927,0.189689 -0.3073657,0.22882 -0.076073,0.03913 -0.1383146,0.100233 -0.1383146,0.135783 0,0.03555 -0.152146,0.213177 -0.3381023,0.394728 -0.1979654,0.193277 -0.3381023,0.383669 -0.3381023,0.459352 0,0.07409 -0.027372,0.112341 -0.06413,0.08962 -0.035271,-0.0218 -0.1528388,0.02802 -0.2612609,0.110705 -0.1084221,0.08269 -0.3423614,0.226273 -0.5198651,0.319079 -0.1775037,0.09281 -0.322734,0.193502 -0.322734,0.223768 0,0.03027 -0.062242,0.05591 -0.1383146,0.05699 -0.1816161,0.0026 -0.3113072,0.106695 -0.4378121,0.351515 -0.056779,0.109884 -0.1498879,0.199788 -0.2069078,0.199788 -0.05702,0 -0.2172393,0.111458 -0.3560433,0.247683 L 2.9731451,17.677112 2.7564707,17.530072 C 2.6372999,17.449201 2.4040332,17.362676 2.2381003,17.337795 1.9157844,17.289465 1.7212482,17.209662 1.7212482,17.125772 c 0,-0.144677 1.0712582,-1.787652 1.6428603,-2.519634 0.9260808,-1.18592 1.1228238,-1.489333 1.6798154,-2.590582 0.5736365,-1.134159 0.9401879,-1.591816 1.4586144,-1.821153 0.1784678,-0.07895 0.3556656,-0.143543 0.393773,-0.143543 0.038107,0 0.1599559,-0.069157 0.2707747,-0.1536831 0.1108187,-0.084525 0.231028,-0.1536828 0.2671317,-0.1536828 0.1679561,0 0.9876037,-1.0211339 0.9876037,-1.2303772 0,-0.096452 0.065943,-0.1967981 0.5497832,-0.8366059 C 9.3527265,7.1725334 9.574414,6.9772109 9.7653638,6.9771539 9.9431441,6.9771008 10.662731,6.6573927 10.834642,6.50208 10.900872,6.442249 10.94222,6.432181 10.94222,6.47589 c 0,0.03905 0.08136,0.071001 0.180792,0.071001 0.09944,0 0.197888,0.027663 0.218784,0.061473 0.06722,0.1087645 0.140545,0.066505 0.282145,-0.1626078 l 0.13849,-0.224081 -0.251448,-0.2345479 C 11.372687,5.8581254 11.181224,5.7366391 11.085509,5.7171572 10.705104,5.6397288 10.603632,5.5882103 10.585636,5.4633668 10.562161,5.300523 10.93719,4.8009448 11.100899,4.7769807 c 0.184277,-0.026975 0.335287,0.1802393 0.818089,1.1225738 0.24199,0.4723161 0.507026,0.9287542 0.58897,1.014307 0.165435,0.1727216 0.337575,0.5487383 0.29916,0.6534779 -0.01364,0.037188 0.01762,0.1028171 0.06946,0.1458416 0.170197,0.1412517 0.115246,0.4031279 -0.124855,0.5950077 -0.621385,0.4965875 -0.728511,0.7075583 -0.379726,0.7478156 0.193299,0.022311 0.207558,0.078985 0.07195,0.2859549 -0.151125,0.2306455 -0.06711,0.3373819 0.795018,1.0100838 0.190632,0.148746 0.346604,0.305652 0.346604,0.348681 0,0.122053 0.487593,0.509195 0.667639,0.530095 0.20109,0.02334 0.237198,0.166523 0.247185,0.980159 0.0097,0.78933 0.02295,0.803719 0.960107,1.041737 0.74122,0.188255 0.829797,0.192561 1.579083,0.07677 0.214477,-0.03314 0.231674,-0.02306 0.319597,0.187368 0.100663,0.240921 0.313683,0.30808 0.364188,0.114819 0.02238,-0.08565 0.02957,-0.08099 0.03524,0.02288 0.0057,0.104304 0.05951,0.138732 0.268392,0.171728 0.547065,0.08642 0.714032,0.1668 0.837167,0.403038 0.140969,0.270455 0.09243,0.395141 -0.201674,0.518024 -0.352627,0.147338 -0.639965,0.963517 -0.319781,0.908333 0.08096,-0.01395 0.105458,0.0073 0.08123,0.07044 -0.121909,0.31769 -0.177118,0.60546 -0.142568,0.743119 0.04387,0.174806 0.186788,0.21134 0.26688,0.06822 0.06277,-0.112169 0.446952,-0.200405 0.446952,-0.102652 0,0.03717 -0.08259,0.110286 -0.183529,0.162485 -0.100941,0.0522 -0.199363,0.157994 -0.218716,0.235101 -0.02629,0.104732 -0.108151,0.159493 -0.323624,0.216482 -0.158641,0.04196 -0.373391,0.102849 -0.477222,0.135316 -0.325319,0.101722 -0.549119,0.06603 -0.999842,-0.159458 -0.417788,-0.209011 -0.686305,-0.44852 -0.686305,-0.612163 0,-0.04202 -0.04123,-0.110608 -0.09162,-0.152427 -0.05806,-0.04819 -0.07811,-0.129864 -0.05473,-0.223002 0.03108,-0.123849 0.0044,-0.160146 -0.169646,-0.230744 -0.113592,-0.04608 -0.414004,-0.130154 -0.66758,-0.186839 -0.253577,-0.05668 -0.557869,-0.128875 -0.676205,-0.160423 -0.273238,-0.07284 -0.784595,-0.477504 -0.835851,-0.661445 -0.0215,-0.07716 -0.160353,-0.223717 -0.308561,-0.325687 -0.217823,-0.149866 -0.26947,-0.220956 -0.26947,-0.370908 0,-0.286632 -0.08542,-0.387754 -0.503959,-0.596619 -0.533926,-0.266446 -0.839681,-0.544917 -1.06038,-0.96576 -0.232791,-0.4439 -0.475311,-0.64326 -0.649892,-0.534233 -0.06604,0.04125 -0.16421,0.07499 -0.218147,0.07499 -0.05394,0 -0.213374,0.09289 -0.354305,0.206414 -0.140931,0.113528 -0.3852686,0.280746 -0.5429718,0.371596 -0.1577033,0.09085 -0.3312346,0.233097 -0.3856242,0.316107 -0.05439,0.08301 -0.1406161,0.150926 -0.191613,0.150926 -0.050997,0 -0.1086446,0.04149 -0.1281058,0.09221 -0.019462,0.05072 -0.059481,0.09221 -0.088932,0.09221 -0.05144,0 -0.8495381,0.373779 -1.0398147,0.486984 -0.050715,0.03017 -0.2130304,0.08718 -0.3607002,0.126674 -0.3086948,0.08257 -0.561397,0.322294 -0.561397,0.532571 0,0.174113 0.1217904,0.193142 0.1655346,0.02586 0.024294,-0.0929 0.1509124,-0.146434 0.5800162,-0.245233 0.6813129,-0.156868 0.8087769,-0.223132 1.1814449,-0.614196 0.1638764,-0.171965 0.3451853,-0.312664 0.4029086,-0.312664 0.1219658,0 0.6125184,-0.300333 0.7359124,-0.45055 0.131697,-0.160325 0.164085,-0.123772 0.141537,0.159734 -0.02258,0.283888 0.222076,1.320766 0.386799,1.639304 0.05508,0.106519 0.167977,0.224575 0.250876,0.262346 0.0829,0.03777 0.150726,0.08775 0.150726,0.111058 0,0.07224 -0.366594,0.552614 -0.421721,0.552614 -0.131643,0 -0.377429,0.312141 -0.377429,0.479322 0,0.21628 0.13596,0.34797 0.487197,0.471893 0.294204,0.103802 1.111104,0.128631 1.111104,0.03377 0,-0.08297 -0.229071,-0.218844 -0.522521,-0.309943 -0.465787,-0.144601 -0.515157,-0.270695 -0.160527,-0.409998 0.133051,-0.05226 0.268757,-0.159103 0.306048,-0.240947 0.03685,-0.08087 0.08834,-0.146172 0.114422,-0.145103 0.02608,0.0011 0.12415,0.128313 0.217928,0.282765 0.09378,0.154452 0.225177,0.295118 0.291997,0.312592 0.06682,0.01747 0.121492,0.0516 0.121492,0.07583 0,0.02423 0.08431,0.04406 0.187347,0.04406 0.204085,0 0.45709,0.197275 0.318709,0.248506 -0.125541,0.04648 -0.260163,0.20359 -0.260163,0.303626 0,0.196158 0.34605,0.439381 0.852975,0.599519 0.27818,0.08788 0.545847,0.159776 0.594817,0.159776 0.04897,0 0.08904,0.02091 0.08904,0.04646 0,0.02555 -0.864467,0.05385 -1.921036,0.06288 -2.006011,0.01714 -3.9187825,0.09948 -4.7130323,0.202865 -0.9670524,0.125882 -1.9436521,0.238334 -2.00291,0.230629 -0.03381,-0.0044 -0.1306304,-0.01631 -0.215156,-0.02649 z"
       id="path1"
       transform="scale(0.26458333)" /><path
       style="fill:#ffffff;stroke-width:1"
       d="m 5.0100616,18.006484 c -0.06762,-0.01053 -0.3373339,-0.03678 -0.5993632,-0.05835 -0.4212954,-0.03467 -0.4764169,-0.05334 -0.4764169,-0.16139 0,-0.128158 0.6683114,-0.826754 1.1903688,-1.244311 0.1644545,-0.131536 0.3760157,-0.360584 0.4701362,-0.508997 0.094121,-0.148412 0.2797442,-0.348522 0.4124973,-0.444687 0.2722982,-0.197252 0.8162357,-0.888445 0.8162357,-1.037209 0,-0.07462 -0.039831,-0.06047 -0.1690512,0.06005 -0.092978,0.08672 -0.2312927,0.189689 -0.3073657,0.22882 -0.076073,0.03913 -0.1383146,0.09843 -0.1383146,0.131777 0,0.03335 -0.152146,0.215225 -0.3381023,0.404176 -0.1859563,0.188951 -0.3381023,0.397462 -0.3381023,0.463358 0,0.06753 -0.027984,0.102515 -0.06413,0.08018 -0.035271,-0.0218 -0.1528388,0.02802 -0.2612609,0.110705 -0.1084221,0.08269 -0.3423614,0.226273 -0.5198651,0.319079 -0.1775037,0.09281 -0.322734,0.187781 -0.322734,0.211056 0,0.02328 -0.089905,0.06879 -0.1997878,0.101135 -0.1264484,0.03723 -0.2543418,0.14344 -0.3484016,0.289342 -0.081738,0.126788 -0.193691,0.230524 -0.2487851,0.230524 -0.055094,0 -0.2078087,0.110231 -0.3393658,0.244958 l -0.2391945,0.24496 -0.249698,-0.145435 c -0.137334,-0.07999 -0.3741812,-0.16577 -0.5263272,-0.190623 -0.3036606,-0.0496 -0.4917852,-0.129871 -0.4917852,-0.20983 0,-0.120122 0.9990916,-1.684668 1.4484473,-2.268223 1.0432943,-1.354872 1.3369205,-1.799394 1.8480929,-2.797833 0.6750238,-1.31848 0.9698832,-1.660012 1.680449,-1.946441 0.2688035,-0.108355 0.520996,-0.2358829 0.5604276,-0.2833951 0.039432,-0.047512 0.108774,-0.086386 0.1540942,-0.086386 0.1848653,0 1.0090622,-1.0114107 1.0090622,-1.2382676 0,-0.1139937 0.6551808,-1.0089581 0.970251,-1.3253443 C 9.5214697,7.0499449 9.6538472,6.977185 9.7609113,6.9771539 9.9422263,6.9771013 10.660736,6.6591959 10.834642,6.50208 10.900872,6.442249 10.94222,6.432181 10.94222,6.47589 c 0,0.03905 0.08136,0.071001 0.180792,0.071001 0.09944,0 0.197888,0.027663 0.218784,0.061473 0.06722,0.1087645 0.140545,0.066505 0.282145,-0.1626078 l 0.13849,-0.224081 -0.251448,-0.2345479 C 11.372687,5.8581254 11.181224,5.7366391 11.085509,5.7171572 10.705104,5.6397288 10.603632,5.5882103 10.585636,5.4633668 c -0.02216,-0.153741 0.346176,-0.6588536 0.502386,-0.688937 0.183656,-0.035369 0.326426,0.156416 0.811456,1.0900386 0.256468,0.4936679 0.531818,0.9667352 0.611887,1.0512608 0.164302,0.1734455 0.357018,0.5933105 0.308419,0.6719453 -0.01761,0.028491 0.0092,0.085986 0.05952,0.1277674 0.167675,0.1391578 0.111103,0.4020021 -0.127578,0.5927468 -0.621385,0.4965875 -0.728511,0.7075583 -0.379726,0.7478156 0.193299,0.022311 0.207558,0.078985 0.07195,0.2859549 -0.151125,0.2306455 -0.06711,0.3373819 0.795018,1.0100838 0.190632,0.148746 0.346604,0.304942 0.346604,0.347103 0,0.120608 0.421435,0.459529 0.621047,0.499451 0.09936,0.01987 0.197717,0.06373 0.218563,0.09746 0.02084,0.03373 0.05608,0.403851 0.07831,0.822496 0.02888,0.544119 0.06615,0.786919 0.130698,0.851464 0.04966,0.04966 0.435707,0.17598 0.85788,0.280708 0.713665,0.17704 0.799073,0.185773 1.215779,0.124316 0.591118,-0.08718 0.551928,-0.09611 0.654364,0.149055 0.09787,0.234242 0.311437,0.297856 0.361162,0.107578 0.02239,-0.08569 0.02956,-0.08105 0.03524,0.02282 0.0059,0.108414 0.05834,0.137188 0.310922,0.170694 0.466241,0.06185 0.700543,0.183815 0.815262,0.424385 0.09026,0.18928 0.09139,0.227154 0.01024,0.343013 -0.05017,0.07163 -0.128283,0.130239 -0.173579,0.130239 -0.0453,0 -0.166846,0.09623 -0.270111,0.213842 -0.273476,0.311472 -0.343358,0.823253 -0.09964,0.72973 0.113173,-0.04343 0.112602,-0.02073 -0.0088,0.35047 -0.05448,0.16656 -0.08161,0.372313 -0.0603,0.457231 0.04284,0.170679 0.186437,0.20493 0.265661,0.06337 0.06277,-0.112169 0.446952,-0.200405 0.446952,-0.102652 0,0.03717 -0.08259,0.110286 -0.183529,0.162485 -0.100941,0.0522 -0.199363,0.157994 -0.218716,0.235101 -0.02629,0.104732 -0.108151,0.159493 -0.323624,0.216482 -0.158641,0.04196 -0.373391,0.102849 -0.477222,0.135316 -0.325319,0.101722 -0.549119,0.06603 -0.999842,-0.159458 -0.417788,-0.209011 -0.686305,-0.44852 -0.686305,-0.612163 0,-0.04202 -0.04123,-0.110608 -0.09162,-0.152427 -0.05806,-0.04819 -0.07811,-0.129864 -0.05473,-0.223002 0.03108,-0.123849 0.0044,-0.160146 -0.169646,-0.230744 -0.113592,-0.04608 -0.414004,-0.130154 -0.66758,-0.186839 -0.253577,-0.05668 -0.557869,-0.128875 -0.676205,-0.160423 -0.270205,-0.07204 -0.768144,-0.468073 -0.862202,-0.685755 -0.03912,-0.09053 -0.179247,-0.236151 -0.3114,-0.323606 -0.19216,-0.127165 -0.24028,-0.196578 -0.24028,-0.346598 0,-0.285262 -0.09214,-0.402174 -0.445351,-0.565119 -0.519238,-0.239534 -0.926441,-0.600932 -1.107161,-0.982619 -0.176815,-0.37344 -0.444365,-0.626452 -0.594872,-0.562549 -0.05301,0.02251 -0.165544,0.05546 -0.250069,0.07324 -0.08453,0.01777 -0.264335,0.120933 -0.399576,0.229246 -0.135241,0.108313 -0.3749226,0.271264 -0.5326258,0.362114 -0.1577033,0.09085 -0.3312346,0.233097 -0.3856242,0.316107 -0.05439,0.08301 -0.138373,0.150926 -0.1866288,0.150926 -0.048256,0 -0.1098599,0.03488 -0.1368976,0.07751 -0.027038,0.04263 -0.2013055,0.145579 -0.3872618,0.228774 -0.1859563,0.0832 -0.4412887,0.214295 -0.5674051,0.291331 -0.1261165,0.07704 -0.2707868,0.140064 -0.32149,0.140064 -0.187616,0 -0.5821262,0.199385 -0.6750155,0.341152 -0.1106374,0.168854 -0.1270794,0.396526 -0.028636,0.396526 0.036975,0 0.081213,-0.05348 0.098306,-0.118843 0.024341,-0.09308 0.1519038,-0.146662 0.588412,-0.247166 0.6352015,-0.146251 0.8280858,-0.249521 1.2033671,-0.644278 0.1467407,-0.154358 0.3142181,-0.280649 0.3721719,-0.280649 0.1223009,0 0.6127392,-0.300092 0.7363308,-0.45055 0.131697,-0.160325 0.164085,-0.123772 0.141537,0.159734 -0.02544,0.319867 0.242566,1.387575 0.420606,1.67565 0.0704,0.113915 0.18196,0.224244 0.247901,0.245173 0.06594,0.02093 0.119894,0.0597 0.119894,0.08616 0,0.07636 -0.364047,0.558339 -0.421721,0.558339 -0.02866,0 -0.125307,0.06784 -0.21477,0.150748 -0.3360478,0.311438 -0.15517,0.665825 0.421335,0.825504 0.302135,0.08368 0.932399,0.09012 0.981902,0.01002 0.0459,-0.07426 -0.171518,-0.21232 -0.490116,-0.311226 -0.454591,-0.141125 -0.512036,-0.26549 -0.185627,-0.401873 0.117672,-0.04917 0.259168,-0.158406 0.314436,-0.242756 0.05527,-0.08435 0.118053,-0.152618 0.139522,-0.151708 0.02147,9.09e-4 0.108192,0.114234 0.192717,0.251834 0.158388,0.257842 0.411309,0.431681 0.670887,0.461119 0.0816,0.0093 0.189237,0.0577 0.239191,0.107652 0.08012,0.08012 0.06988,0.10905 -0.08689,0.245426 -0.170137,0.148004 -0.173776,0.161963 -0.08531,0.32724 0.112097,0.209429 0.503181,0.412005 1.060215,0.549175 0.228219,0.0562 0.414944,0.119112 0.414944,0.139806 0,0.02069 -0.864467,0.04501 -1.921036,0.05404 -2.0060107,0.01714 -3.9187822,0.09948 -4.713032,0.202865 -1.0226941,0.133125 -1.94628,0.238247 -2.0336466,0.231469 -0.050715,-0.0039 -0.1475355,-0.01577 -0.215156,-0.0263 z"
       id="path2"
       transform="scale(0.26458333)" /><path
       style="fill:#ffffff;stroke-width:1"
       d="m 24.798203,17.268615 c -0.384531,-0.203049 -0.504711,-0.316105 -0.975388,-0.917568 -0.442353,-0.565267 -1.039133,-1.111192 -1.480241,-1.354102 -0.61331,-0.337738 -1.066896,-0.705347 -1.295767,-1.050156 -0.219823,-0.331177 -0.227781,-0.362355 -0.23422,-0.917649 -0.0044,-0.377857 0.02013,-0.611475 0.07155,-0.681785 0.124693,-0.170527 0.09147,-0.309336 -0.09084,-0.379509 -0.325918,-0.12545 -1.647779,-0.559376 -1.987235,-0.652348 -0.188555,-0.05164 -0.465184,-0.186206 -0.614731,-0.299031 -0.383019,-0.288966 -1.520704,-0.965607 -1.623545,-0.965607 -0.262721,0 -0.05744,-0.4013183 0.59882,-1.170669 0.340038,-0.3986359 0.408315,-0.4447286 1.162459,-0.7847648 0.509603,-0.2297748 1.242879,-0.9109119 1.845133,-1.7139363 0.233047,-0.3107368 0.521004,-0.6251001 0.639906,-0.698585 0.215112,-0.1329466 0.3597,-0.1220328 0.220987,0.016681 -0.102203,0.1022033 -0.09058,0.1910985 0.01947,0.14887 0.05072,-0.019461 0.09235,-0.029337 0.09253,-0.021945 0.0038,0.1623952 0.461337,1.5314726 0.57874,1.7318042 0.19449,0.3318727 0.329052,0.4144772 0.590124,0.3622628 0.277095,-0.055419 0.312331,0.03843 0.268977,0.7164002 l -0.03735,0.5839949 0.247639,0.3623141 c 0.18871,0.2760974 0.33445,0.4086965 0.61245,0.5572299 0.200646,0.107203 0.444851,0.257634 0.542679,0.334291 0.283982,0.222526 0.566092,0.685213 0.641066,1.051408 0.03807,0.185957 0.09663,0.462586 0.130128,0.614732 0.08405,0.381763 0.420981,0.734381 0.420981,0.440585 0,-0.06972 0.04137,-0.109625 0.108518,-0.104678 0.11423,0.0084 0.690633,0.271538 0.690633,0.315267 0,0.01401 -0.05533,0.128702 -0.122947,0.254868 -0.06762,0.126165 -0.122946,0.29293 -0.122946,0.37059 0,0.382418 0.364657,0.823736 0.750708,0.908527 0.210158,0.04616 0.473528,0.207893 0.476824,0.292815 0.0011,0.02738 -0.131681,0.193359 -0.294986,0.368839 -0.163304,0.17548 -0.343113,0.387451 -0.399575,0.471047 -0.12532,0.185544 -0.133453,0.424044 -0.016,0.469116 0.04766,0.01829 0.101851,0.09377 0.120416,0.167741 0.01856,0.07397 0.117881,0.184181 0.220703,0.24492 0.208603,0.123225 0.218328,0.161665 0.113934,0.450361 -0.06305,0.174374 -0.05751,0.219056 0.0406,0.327476 0.06249,0.06905 0.100887,0.138286 0.08532,0.153851 -0.04061,0.04061 -1.076553,0.154264 -1.411532,0.154862 -0.186411,3.07e-4 -0.385515,-0.05371 -0.583995,-0.158519 z"
       id="path3"
       transform="scale(0.26458333)" /><path
       style="fill:#ffffff;stroke-width:1"
       d="m 13.890121,10.0972 c -0.02396,-0.01517 -0.02753,-0.05484 -0.01658,-0.1844061 l 0.01395,-0.1650769 -0.08122,-6.783e-4 c -0.0473,-3.95e-4 -0.11754,-0.023045 -0.168162,-0.054224 -0.04781,-0.02945 -0.119438,-0.053596 -0.159164,-0.053657 -0.0606,-9.35e-5 -0.101458,-0.028105 -0.253783,-0.1739837 -0.179485,-0.1718899 -0.228207,-0.2025478 -0.228207,-0.1435966 0,0.074336 -0.12837,0.056628 -0.204839,-0.028257 -0.03901,-0.043299 -0.03955,-0.051221 -0.0081,-0.1172183 0.07722,-0.1619314 0.212919,-0.2685839 0.212919,-0.1673431 0,0.066925 0.07731,0.1304043 0.158818,0.1304043 0.03954,0 0.139783,0.034201 0.222774,0.076002 0.08299,0.041801 0.175518,0.076032 0.205615,0.076069 0.0301,3.7e-5 0.08878,0.022926 0.130405,0.050864 0.10242,0.068746 0.204702,0.1013409 0.317998,0.1013409 0.07959,0 0.09456,-0.00678 0.09456,-0.042817 0,-0.023549 -0.02934,-0.06451 -0.0652,-0.091023 -0.07526,-0.055641 -0.08332,-0.096553 -0.02282,-0.1157558 0.0507,-0.016092 0.16424,0.038178 0.183192,0.087565 0.0074,0.01935 0.0135,0.08294 0.0135,0.1413104 0,0.1190491 0.04727,0.1657926 0.143296,0.1416924 0.07187,-0.018038 0.06586,-0.045471 -0.02919,-0.1332725 -0.06784,-0.062669 -0.07604,-0.078914 -0.0489,-0.096926 0.05317,-0.035291 0.195282,-0.00151 0.375598,0.089276 0.197799,0.099591 0.224783,0.1043221 0.176732,0.030986 -0.0752,-0.1147753 -0.01243,-0.1321554 0.219229,-0.060702 0.206445,0.063675 0.240729,0.1502507 0.07597,0.1918321 l -0.0977,0.024657 0.08614,0.036955 c 0.04738,0.020325 0.102749,0.051986 0.123048,0.070356 0.02043,0.018486 0.06446,0.030247 0.0986,0.026339 0.05878,-0.00673 0.06244,-0.013738 0.07763,-0.1483339 0.0132,-0.1169803 0.0095,-0.1500092 -0.02173,-0.1920894 -0.05615,-0.07575 -0.261917,-0.1941458 -0.385415,-0.221766 -0.05977,-0.013367 -0.201583,-0.052252 -0.315144,-0.08641 -0.11356,-0.034159 -0.318747,-0.088114 -0.455971,-0.1199017 -0.137223,-0.031787 -0.285984,-0.076409 -0.330578,-0.09916 -0.04459,-0.02275 -0.106228,-0.041364 -0.136964,-0.041364 -0.05233,0 -0.09706,-0.05164 -0.06902,-0.079678 0.0069,-0.00693 0.126591,-0.020424 0.265913,-0.029986 0.224539,-0.01541 0.268466,-0.01242 0.38673,0.026324 0.18152,0.059468 0.513431,0.066579 0.573423,0.012287 0.05961,-0.053948 0.07701,-0.048395 0.172318,0.055005 0.254357,0.2759442 0.572182,0.8887558 0.572182,1.1032467 0,0.047542 -0.0088,0.086441 -0.01946,0.086441 -0.0107,0 -0.08793,-0.029136 -0.171609,-0.064745 -0.08368,-0.03561 -0.258308,-0.1026399 -0.388055,-0.148955 -0.229315,-0.081857 -0.402531,-0.1627365 -0.501879,-0.2343419 -0.04514,-0.032531 -0.0497,-0.032284 -0.0634,0.00343 -0.02232,0.058155 0.03258,0.1365822 0.180897,0.2584456 0.0737,0.060554 0.134813,0.1223237 0.135806,0.1372658 0.0041,0.062259 -0.276591,-0.00743 -0.408604,-0.1014309 -0.08214,-0.058491 -0.12452,-0.056931 -0.230744,0.00849 -0.118008,0.072683 -0.139279,0.068875 -0.178917,-0.032034 -0.04204,-0.1070323 -0.08613,-0.1117878 -0.104973,-0.011324 -0.01108,0.059052 -0.0019,0.096506 0.04172,0.1710108 0.03075,0.052469 0.04973,0.1015761 0.04218,0.1091271 -0.01991,0.01991 -0.0993,0.01622 -0.134819,-0.0063 z"
       id="path4"
       transform="scale(0.26458333)" /><path
       style="fill:#ffffff;stroke-width:1"
       d="m 21.038884,17.093762 c -0.07752,-0.02358 -0.278013,-0.06336 -0.445548,-0.0884 -0.167535,-0.02504 -0.352194,-0.06598 -0.410354,-0.09096 l -0.105744,-0.04543 -0.03764,0.0499 c -0.03639,0.04824 -0.03953,0.04866 -0.09441,0.0127 -0.03946,-0.02586 -0.07713,-0.03273 -0.123539,-0.02253 -0.05788,0.01271 -0.07793,0.0035 -0.150635,-0.06921 -0.08068,-0.08068 -0.131728,-0.199282 -0.131989,-0.306651 -1.71e-4,-0.07094 0.08565,-0.147517 0.185859,-0.165853 0.128532,-0.02352 0.187428,-0.06909 0.179378,-0.138796 -0.0053,-0.04549 -0.01729,-0.05731 -0.05444,-0.05344 -0.02931,0.0031 -0.06446,-0.01635 -0.09118,-0.05033 -0.02392,-0.03041 -0.07977,-0.06531 -0.124101,-0.07755 -0.04434,-0.01224 -0.128719,-0.05535 -0.187518,-0.0958 -0.175539,-0.12075 -0.331182,-0.145971 -0.529513,-0.0858 -0.277665,0.08423 -0.371113,-0.01329 -0.22464,-0.234419 0.127744,-0.192859 0.346156,-0.334264 0.346156,-0.22411 0,0.106182 0.22461,0.249895 0.543722,0.347891 0.12963,0.03981 0.223085,0.08591 0.314773,0.155279 0.07172,0.05426 0.195752,0.139215 0.275621,0.188781 0.07987,0.04957 0.157437,0.112954 0.172373,0.140862 0.02464,0.04603 0.0195,0.05858 -0.05534,0.135228 -0.04537,0.04647 -0.07645,0.09427 -0.06906,0.106231 0.01673,0.02707 0.19611,0.05642 0.6979,0.114201 0.215164,0.02477 0.448841,0.06446 0.519283,0.08819 0.07044,0.02373 0.207369,0.05792 0.304283,0.07599 0.272426,0.05078 0.343843,0.138479 0.112768,0.138479 -0.145858,0 -0.711981,-0.05526 -1.018198,-0.09938 -0.221536,-0.03192 -0.320208,-0.02845 -0.320208,0.01127 0,0.05251 0.524953,0.17477 0.893483,0.208093 0.305004,0.02758 0.291306,0.088 -0.02412,0.106391 -0.168016,0.0098 -0.232725,0.0041 -0.347412,-0.03083 z"
       id="path5"
       transform="scale(0.26458333)" /><path
       style="fill:#ffffff;stroke-width:1"
       d="m 15.689509,17.236713 c -0.02877,-0.02977 -0.290629,-0.0566 -0.758223,-0.07767 -0.86477,-0.03897 -1.13017,-0.128092 -1.13017,-0.379507 0,-0.210359 0.149086,-0.240583 1.086702,-0.220305 l 0.641154,0.01387 0.185668,0.189727 c 0.102117,0.104349 0.227462,0.242768 0.278543,0.307597 0.08389,0.106466 0.08916,0.119952 0.05443,0.139385 -0.0449,0.02513 -0.338508,0.04719 -0.358106,0.02691 z"
       id="path6"
       transform="scale(0.26458333)" /><path
       style="fill:#ffffff;stroke-width:1"
       d="m 27.151677,13.671055 c -0.04889,-0.02123 -0.114984,-0.02673 -0.217654,-0.01813 -0.112788,0.0095 -0.187266,0.0014 -0.31686,-0.03412 -0.185943,-0.05101 -0.384177,-0.14263 -0.384177,-0.177554 0,-0.01224 0.01751,-0.04875 0.03891,-0.08114 0.0214,-0.03239 0.04905,-0.07796 0.06145,-0.101266 0.05393,-0.101374 0.131253,-0.131495 0.337568,-0.131495 0.167291,0 0.198554,-0.0058 0.217831,-0.04013 0.03223,-0.05747 -0.0011,-0.08118 -0.137324,-0.09781 -0.100643,-0.01228 -0.117326,-0.0211 -0.123585,-0.06531 -0.004,-0.02811 -0.0015,-0.07404 0.0055,-0.102051 0.01083,-0.04314 0.02856,-0.05195 0.115905,-0.05756 0.09968,-0.0064 0.103483,-0.0092 0.113988,-0.08269 0.0087,-0.06062 0.0274,-0.08489 0.09231,-0.119537 0.160321,-0.08557 0.11282,-0.113996 -0.346065,-0.207122 -0.529277,-0.107411 -0.659076,-0.149082 -0.659076,-0.211591 0,-0.03758 0.09221,-0.0703 0.198101,-0.0703 0.106325,0 0.214846,-0.05298 0.214846,-0.104881 0,-0.04845 0.04111,-0.09072 0.08822,-0.09072 0.01983,0 0.0925,0.03012 0.161471,0.06692 0.09059,0.04834 0.150273,0.06563 0.214966,0.06228 0.143148,-0.0074 0.162568,-0.0019 0.200958,0.05665 0.06049,0.09232 0.01123,0.107687 -0.140481,0.04383 -0.340266,-0.143216 -0.312858,-0.0096 0.04641,0.226213 0.110008,0.07221 0.262108,0.177666 0.338001,0.234342 0.30828,0.230222 0.313695,0.239865 0.174571,0.310841 -0.0976,0.04979 -0.09299,0.0672 0.02801,0.105837 0.04387,0.01401 0.09119,0.03924 0.105154,0.05607 0.02786,0.03356 0.01257,0.03925 -0.174051,0.06474 -0.126415,0.01727 -0.282543,0.107739 -0.282543,0.163726 0,0.02699 0.03012,0.05748 0.0839,0.08491 0.04615,0.02354 0.150397,0.09954 0.231668,0.16888 l 0.147766,0.126077 -0.112812,0.01401 c -0.06205,0.0077 -0.144292,0.01953 -0.182767,0.02628 -0.03966,0.007 -0.100356,-9.29e-4 -0.140162,-0.01821 z"
       id="path7"
       transform="scale(0.26458333)" /></g></svg>
