<?xml version="1.0" encoding="UTF-8" standalone="no"?>
<!-- Created with Inkscape (http://www.inkscape.org/) -->

<svg
   width="32"
   height="32"
   viewBox="0 0 8.4666666 8.4666666"
   version="1.1"
   id="svg1"
   xml:space="preserve"
   inkscape:version="1.4.3 (0d15f75, 2025-12-25)"
   sodipodi:docname="FireIcon.svg"
   inkscape:export-filename="FireIcon.svg"
   inkscape:export-xdpi="96"
   inkscape:export-ydpi="96"
   xmlns:inkscape="http://www.inkscape.org/namespaces/inkscape"
   xmlns:sodipodi="http://sodipodi.sourceforge.net/DTD/sodipodi-0.dtd"
   xmlns="http://www.w3.org/2000/svg"
   xmlns:svg="http://www.w3.org/2000/svg"><sodipodi:namedview
     id="namedview1"
     pagecolor="#ffffff"
     bordercolor="#000000"
     borderopacity="0.25"
     inkscape:showpageshadow="2"
     inkscape:pageopacity="0.0"
     inkscape:pagecheckerboard="0"
     inkscape:deskcolor="#d1d1d1"
     inkscape:document-units="mm"
     inkscape:zoom="8.1336325"
     inkscape:cx="38.912503"
     inkscape:cy="28.339122"
     inkscape:window-width="1920"
     inkscape:window-height="1009"
     inkscape:window-x="-8"
     inkscape:window-y="-8"
     inkscape:window-maximized="1"
     inkscape:current-layer="layer2" /><defs
     id="defs1" /><g
     inkscape:groupmode="layer"
     id="layer2"
     inkscape:label="cheatsheet"><path
       id="path16"
       style="fill:#000000"
       d="m 4.5289225,0.09921875 c -0.00939,4.1406e-4 -0.019,6.3529e-4 -0.028422,0.0010335 -0.00317,9.5983e-4 -0.00614,0.002119 -0.0093,0.003101 -0.0091,0.003331 -0.017862,0.006236 -0.026872,0.009819 -0.025679,0.0102152 -0.049875,0.0243397 -0.07338,0.0387573 -0.016443,0.0100855 -0.030643,0.008192 -0.037207,0.001034 -0.034655,0.0337639 -0.00565,0.10356834 0.053227,0.10800374 0.00726,5.4709e-4 0.012618,0.002236 0.01602,0.005168 0.00492,0.005029 0.00639,0.0144285 0.00362,0.0289388 -0.00306,0.0160402 -4.039e-4,0.033335 0.00517,0.0397908 l 5.168e-4,5.1677e-4 5.168e-4,5.1676e-4 c 0.07909,0.0544383 0.1758922,0.29229582 0.1353922,0.33279622 -0.00447,0.004467 -0.00747,0.00819 -0.00827,0.0108521 v 5.1677e-4 5.1676e-4 5.1677e-4 5.1676e-4 5.1677e-4 l 5.167e-4,5.1676e-4 v 5.1676e-4 h 5.168e-4 v 5.1677e-4 h 5.168e-4 l 5.167e-4,5.1676e-4 h 5.168e-4 c 8.303e-4,1.7851e-4 0.00248,5.1677e-4 0.00362,5.1677e-4 h 5.167e-4 5.168e-4 c 2.685e-4,7.047e-5 0.0013,4.108e-4 0.00155,5.1676e-4 2.333e-4,1.4164e-4 0.00114,7.2824e-4 0.00155,0.001034 l 5.167e-4,5.1677e-4 5.168e-4,5.1676e-4 c 0.00391,0.006865 0.00306,0.0251972 -0.0031,0.0542603 -0.00661,0.0311862 -0.018642,0.10586022 -0.026872,0.16639812 -0.00745,0.0548625 -0.017791,0.10092768 -0.024288,0.10903728 l -5.167e-4,5.168e-4 -5.168e-4,5.167e-4 h -5.167e-4 -5.168e-4 -5.168e-4 l -5.167e-4,5.168e-4 h -5.168e-4 l -5.168e-4,5.167e-4 h -5.167e-4 c -0.00458,0.00392 -0.00827,0.016192 -0.00827,0.029972 0,0.016961 -0.011626,0.043139 -0.025838,0.058394 -0.014213,0.015255 -0.044673,0.087331 -0.067179,0.1596802 -0.022506,0.072349 -0.052532,0.1511571 -0.067179,0.1751831 -0.014647,0.024026 -0.026872,0.051011 -0.026872,0.060461 0,0.00945 -0.0122,0.042976 -0.027389,0.074414 -0.015185,0.031438 -0.024907,0.065241 -0.021187,0.074931 0.00372,0.00969 -0.00186,0.020755 -0.012402,0.024805 -0.01054,0.00405 -0.01912,0.016329 -0.01912,0.026872 0,0.010543 -0.021017,0.044317 -0.047026,0.075448 -0.02601,0.031132 -0.062934,0.082787 -0.081649,0.1147216 -0.016449,0.028068 -0.035116,0.052048 -0.043925,0.057361 -2.727e-4,1.357e-4 -8.316e-4,4.234e-4 -0.00103,5.167e-4 h -5.168e-4 l -5.168e-4,5.168e-4 h -5.167e-4 -5.168e-4 c -0.00673,0.0012 -0.016152,0.011216 -0.020671,0.023254 -0.00847,0.022573 -0.085639,0.1098569 -0.1472778,0.1669149 -0.015479,0.014328 -0.027911,0.030586 -0.029456,0.037207 l -5.167e-4,5.168e-4 v 5.167e-4 5.168e-4 c -0.00154,0.0068 -0.014494,0.024691 -0.029972,0.040824 -0.01651,0.017209 -0.041651,0.046783 -0.056327,0.065629 -0.054134,0.069513 -0.1106611,0.1277265 -0.1260905,0.1312581 h -5.167e-4 c -0.00756,0 -0.013953,0.00842 -0.013953,0.018604 v 5.168e-4 c -0.00897,0.029841 -0.296518,0.3203111 -0.3803385,0.3834391 -0.031296,0.02357 -0.05763,0.04969 -0.059428,0.058911 v 5.168e-4 5.168e-4 c -2.27e-4,0.00839 -0.00788,0.018724 -0.017053,0.023254 -0.00917,0.00453 -0.03483,0.020251 -0.056844,0.034623 -0.022014,0.014372 -0.057568,0.035971 -0.079582,0.048059 -0.022014,0.012088 -0.051987,0.032828 -0.066663,0.045992 -0.054454,0.048846 -0.2499418,0.1725993 -0.2723348,0.1725993 -0.012751,0 -0.052933,0.033021 -0.088884,0.07338 -0.034826,0.039097 -0.070395,0.071406 -0.081132,0.073381 h -5.167e-4 -5.168e-4 c -0.00938,0 -0.017053,0.0061 -0.017053,0.013436 0,0.00367 -0.00129,0.00715 -0.0031,0.0093 h -5.168e-4 v 5.167e-4 h -5.167e-4 v 5.168e-4 h -5.168e-4 c -8.875e-4,5.16e-4 -0.00284,0.00125 -0.00413,0.00155 H 2.5068237 2.506307 2.5057902 c -0.023015,-0.00332 -0.067026,0.018035 -0.069763,0.033073 -2.23e-5,2.392e-4 0,0.00131 0,0.00155 -9.875e-4,0.00942 -0.017142,0.029446 -0.03669,0.044442 -0.020179,0.01548 -0.050906,0.039058 -0.068213,0.052193 -0.017306,0.013135 -0.051813,0.040747 -0.076481,0.061495 -0.022403,0.018847 -0.046994,0.031338 -0.056844,0.029972 H 2.1972819 L 2.1967651,3.600297 h -5.167e-4 c -0.00133,-8.187e-4 -0.00336,-0.00172 -0.00465,-0.00207 h -5.168e-4 c -3.263e-4,7.1e-6 -9.59e-4,7.2e-6 -0.00103,0 h -5.168e-4 l -5.167e-4,5.167e-4 h -5.168e-4 -5.168e-4 l -5.167e-4,5.168e-4 h -5.168e-4 c -0.00249,0.00203 -0.00465,0.00647 -0.00465,0.011886 0,0.010828 -0.00506,0.021838 -0.011369,0.024288 -0.047146,0.018284 -0.3862775,0.3506079 -0.4020426,0.3927409 v 5.168e-4 5.167e-4 5.168e-4 c 0,0.00263 -0.020826,0.037882 -0.046509,0.078031 -0.025683,0.040149 -0.047026,0.084663 -0.047026,0.098702 0,0.014039 -0.011057,0.028713 -0.024805,0.033073 -0.015557,0.00494 -0.028016,0.025263 -0.032556,0.053227 -0.00401,0.024713 -0.028811,0.077418 -0.055294,0.1173055 -0.031436,0.047346 -0.053572,0.1007776 -0.063562,0.1545126 -0.00739,0.039743 -0.018261,0.074069 -0.025322,0.081649 h -5.167e-4 l -5.168e-4,5.168e-4 -5.167e-4,5.168e-4 h -5.168e-4 c -2.134e-4,0 -8.819e-4,-1.78e-5 -0.00103,0 h -5.168e-4 -5.168e-4 l -5.167e-4,5.167e-4 h -5.168e-4 l -5.168e-4,5.168e-4 h -5.167e-4 v 5.167e-4 l -5.168e-4,5.168e-4 -5.168e-4,5.168e-4 c -0.0019,0.00368 -0.00218,0.010557 5.168e-4,0.01757 0.0088,0.02293 -0.02397,0.1614734 -0.043925,0.1855184 -0.00712,0.00858 -0.01443,0.042194 -0.01602,0.074931 -0.00159,0.032737 -0.00746,0.065524 -0.012919,0.072864 -0.00546,0.00734 -0.016061,0.047514 -0.023771,0.0894 -0.00771,0.041885 -0.026782,0.1012099 -0.042375,0.1317749 -0.015965,0.031295 -0.028422,0.08069 -0.028422,0.1131714 0,0.033077 -0.00793,0.06452 -0.018603,0.07338 -0.01337,0.011092 -0.015137,0.022273 -0.00568,0.039791 0.0164,0.030643 0.016905,0.1981435 0.00155,0.2180745 l -5.167e-4,5.168e-4 -5.168e-4,5.167e-4 h -5.168e-4 v 5.168e-4 l -5.167e-4,5.168e-4 -5.168e-4,5.167e-4 c -0.011681,0.020155 -0.00758,0.1571169 0.00723,0.1989543 0.027997,0.07908 0.032763,0.09668 0.034623,0.1333252 0.00104,0.020638 3.728e-4,0.040579 -0.00103,0.045992 v 5.168e-4 5.167e-4 c -0.00577,0.012354 -0.027219,0.14523 -0.028939,0.179834 -0.00114,0.022978 0.014197,0.1879116 0.021187,0.2268596 0.00132,0.00734 0.012881,0.032326 0.025322,0.05581 0.012441,0.023484 0.022738,0.05524 0.022738,0.07028 0,0.01222 0.00343,0.022879 0.00827,0.026355 h 5.168e-4 l 5.168e-4,5.168e-4 h 5.167e-4 l 5.168e-4,5.168e-4 c 2.019e-4,2.37e-5 0.00135,0 0.00155,0 h 5.168e-4 5.167e-4 l 5.168e-4,5.167e-4 h 5.168e-4 c 0.00622,0.00402 0.014304,0.019051 0.018603,0.036174 0.0076,0.030297 0.067812,0.1598769 0.1126546,0.243396 0.039965,0.074445 0.042885,0.084274 0.030489,0.091984 l -5.168e-4,5.167e-4 h -5.167e-4 v 5.168e-4 l -5.168e-4,5.168e-4 c -9.03e-5,2.006e-4 -4.431e-4,0.00133 -5.168e-4,0.00155 v 5.167e-4 c -0.00491,0.030392 0.1070954,0.1859354 0.2191081,0.3002401 0.058371,0.059566 0.1037299,0.1132655 0.1059367,0.125057 v 5.167e-4 5.168e-4 5.168e-4 5.167e-4 c -7.425e-4,0.0012 -0.00168,0.00266 -0.00207,0.00362 v 5.167e-4 5.168e-4 5.168e-4 5.167e-4 5.168e-4 h 5.168e-4 v 5.168e-4 5.167e-4 h 5.168e-4 v 5.168e-4 h 5.167e-4 5.168e-4 v 5.167e-4 h 5.168e-4 5.167e-4 c 9.439e-4,-2.6e-6 0.00286,-1.38e-4 0.00413,-5.167e-4 h 5.168e-4 c 2.535e-4,1.07e-5 0.00126,-4.13e-5 0.00155,0 0.01979,0.00442 0.1013855,0.066252 0.1529622,0.1173055 0.015414,0.015257 0.046199,0.037539 0.068213,0.049093 0.1362684,0.071519 0.1687443,0.08946 0.2056722,0.1157552 0.022615,0.016103 0.082972,0.050255 0.1343587,0.075964 0.048184,0.024106 0.08821,0.049815 0.093018,0.058911 l 5.168e-4,5.168e-4 v 5.167e-4 5.168e-4 5.167e-4 5.168e-4 c 6.06e-5,2.007e-4 4.37e-4,0.00136 5.168e-4,0.00155 v 5.168e-4 l 5.167e-4,5.167e-4 5.168e-4,5.168e-4 v 5.168e-4 h 5.167e-4 l 5.168e-4,5.167e-4 h 5.168e-4 v 5.168e-4 h 5.167e-4 c 0.00449,0.00207 0.012261,0.0025 0.020154,0 0.013122,-0.00416 0.047176,0.00444 0.075964,0.01912 0.028788,0.014677 0.062757,0.026355 0.075448,0.026355 0.012692,0 0.026379,0.00575 0.030489,0.012402 v 5.168e-4 h 5.168e-4 5.167e-4 v 5.167e-4 5.168e-4 5.168e-4 l 5.168e-4,5.167e-4 v 5.168e-4 l -5.168e-4,5.167e-4 v 5.168e-4 5.168e-4 h -5.167e-4 v 5.167e-4 l -5.168e-4,5.168e-4 h -5.168e-4 l -5.167e-4,5.168e-4 h -5.168e-4 c -0.00321,9.975e-4 -0.00909,0.00129 -0.01602,-5.168e-4 -0.03874,-0.01013 -0.047857,0.020357 -0.010335,0.034623 0.018073,0.00687 0.037048,0.019082 0.041858,0.026872 0.0056,0.00746 0.02595,0.013953 0.045475,0.013953 0.020155,0 0.056891,0.015619 0.082165,0.034623 0.1280518,0.096286 0.2196304,0.1248952 0.4263306,0.1333252 0.077048,0.00314 0.1753685,0.011867 0.2180745,0.019637 0.1093465,0.019896 0.1555461,0.00783 0.1555461,-0.040824 0,-0.021006 0.015124,-0.055569 0.03359,-0.077515 0.048172,-0.05725 0.015277,-0.1090373 -0.06873,-0.1090373 -0.030295,0 -0.071314,-0.038609 -0.071314,-0.066663 0,-0.057164 -0.052305,-0.078002 -0.208256,-0.082682 -0.1045389,-0.00314 -0.1551027,-0.010083 -0.1715657,-0.023771 -0.012826,-0.010665 -0.035684,-0.021411 -0.05116,-0.023771 -0.015476,-0.00236 -0.031667,-0.00933 -0.035657,-0.015503 l -5.168e-4,-5.168e-4 c -0.00656,-0.00711 -0.034325,-0.024451 -0.063562,-0.039274 -0.030212,-0.015317 -0.05528,-0.035034 -0.057361,-0.044442 v -5.167e-4 c -2.531e-4,-0.00397 -0.00104,-0.0068 -0.00155,-0.00827 V 7.6367432 7.6362264 H 2.966744 v -5.168e-4 h -5.168e-4 v 5.168e-4 h -5.168e-4 l -5.167e-4,5.168e-4 c -0.00103,0.00153 -0.00302,0.00475 -0.00465,0.00879 -0.00828,0.020513 -0.031006,0.021966 -0.031006,0.00207 0,-0.02063 -0.055823,-0.064067 -0.082682,-0.064595 -0.012409,-2.44e-4 -0.026593,-0.00701 -0.031523,-0.014986 -0.0058,-0.00938 -0.013314,-0.00994 -0.021704,-0.00155 -0.027381,0.027381 -0.1173055,-0.053054 -0.1173055,-0.1049031 0,-0.00683 -0.00643,-0.012919 -0.013953,-0.012919 H 2.661853 2.6613363 2.6608195 V 7.4481242 H 2.6603027 L 2.659786,7.4476074 C 2.653866,7.4399674 2.649801,7.4115457 2.651001,7.3747437 2.653936,7.285196 2.624528,7.2463549 2.5486816,7.2403849 2.4740846,7.2345149 2.4398423,7.1819259 2.4463623,7.0832886 c 9.26e-4,-0.014011 -0.00423,-0.036272 -0.011369,-0.049609 -0.00888,-0.016602 -0.00768,-0.032552 0.00362,-0.050643 0.013995,-0.022409 0.012132,-0.031213 -0.012919,-0.057878 -0.016247,-0.017294 -0.029972,-0.040962 -0.029972,-0.052193 0,-0.011231 -0.011207,-0.030636 -0.025322,-0.043408 -0.019046,-0.017236 -0.023874,-0.034724 -0.018603,-0.067179 0.00801,-0.04938 -0.013943,-0.100769 -0.042891,-0.100769 -0.030534,0 -0.038064,-0.062021 -0.019637,-0.1596802 0.00935,-0.04954 0.01343,-0.1105862 0.00878,-0.1353922 -0.00483,-0.026243 2.654e-4,-0.075642 0.012402,-0.1183391 0.011478,-0.040359 0.028721,-0.106402 0.038241,-0.146761 0.021247,-0.090076 0.035795,-0.1306247 0.05116,-0.1374593 0.00482,-0.0017 0.010232,-7.98e-4 0.015503,0.00362 0.010563,0.00876 0.025216,0.012309 0.032556,0.00775 0.020816,-0.012865 0.00125,-0.047542 -0.026872,-0.047542 -0.013891,0 -0.025322,-0.00819 -0.025322,-0.018603 0,-0.041335 0.044325,-0.1902293 0.068213,-0.2294433 0.013938,-0.02288 0.025321,-0.052009 0.025321,-0.064596 0,-0.012582 0.00737,-0.02066 0.016536,-0.01757 h 5.168e-4 l 5.167e-4,5.168e-4 c 3.735e-4,1.934e-4 7.522e-4,3.587e-4 0.00103,5.168e-4 0.00813,0.0065 0.015066,0.030417 0.015503,0.056844 6.27e-4,0.037877 0.00745,0.053704 0.023771,0.056844 0.013045,0.00251 0.022221,-0.00436 0.022221,-0.01602 0,-0.01105 0.012294,-0.024149 0.027388,-0.028939 0.039739,-0.012612 0.059092,-0.070468 0.033073,-0.099219 -0.013113,-0.01449 -0.01978,-0.02493 -0.019637,-0.031006 V 5.536613 c 3.4e-5,-1.826e-4 4.682e-4,-0.00138 5.168e-4,-0.00155 l 5.167e-4,-5.168e-4 v -5.168e-4 l 5.168e-4,-5.167e-4 v -5.168e-4 h 5.168e-4 l 5.167e-4,-5.168e-4 5.168e-4,-5.167e-4 c 2.469e-4,-1.106e-4 0.00127,-4.268e-4 0.00155,-5.168e-4 0.0043,-9.7e-4 0.011608,7.2e-5 0.021187,0.0031 0.00808,0.00256 0.014557,0.00337 0.018604,0.00207 h 5.168e-4 l 5.168e-4,-5.168e-4 c 2.855e-4,-2.112e-4 0.00129,-0.0013 0.00155,-0.00155 0.00383,-0.00466 0.00568,-0.01513 0.00568,-0.032556 0,-0.021544 -0.00381,-0.034561 -0.00982,-0.038757 l -5.167e-4,-5.167e-4 -5.168e-4,-5.168e-4 c -0.00598,-0.00174 -0.015135,0.00325 -0.026355,0.014469 -0.011029,0.011029 -0.018684,0.015814 -0.023771,0.015503 L 2.6013916,5.4916545 H 2.6008748 2.6003581 2.5998413 2.5993245 L 2.5988078,5.4911377 2.598291,5.4906209 2.5977743,5.4901042 2.5972575,5.4895874 2.5967407,5.4890706 V 5.4885539 H 2.596224 v -5.168e-4 c -0.00821,-0.020263 0.021218,-0.1030059 0.070797,-0.1756999 0.075287,-0.110389 0.1060837,-0.1151292 0.1080037,-0.01602 6.475e-4,0.033532 0.00753,0.060233 0.01602,0.067179 l 5.168e-4,5.168e-4 h 5.167e-4 5.168e-4 c 0.022457,0.00748 0.047151,-0.060674 0.039791,-0.1100708 -0.00495,-0.033216 -0.00194,-0.056207 0.00517,-0.064079 l 5.168e-4,-5.168e-4 h 5.167e-4 l 5.168e-4,-5.167e-4 5.168e-4,-5.168e-4 c 2.289e-4,-7.17e-5 0.00131,-4.642e-4 0.00155,-5.168e-4 h 5.168e-4 c 0.00383,-1.877e-4 0.00927,0.00189 0.014469,0.0062 0.021495,0.017836 0.034952,-0.011413 0.024288,-0.052193 -0.00783,-0.029959 -0.024321,-0.036156 -0.037724,-0.014469 -0.00729,0.011789 -0.020024,0.014988 -0.027388,0.010852 -0.00329,-0.00232 -0.00568,-0.00663 -0.00568,-0.012402 v -5.167e-4 c 0.00514,-0.025546 0.1697949,-0.1821633 0.2180746,-0.2067058 0.023029,-0.011707 0.066244,-0.04623 0.095601,-0.076481 0.061546,-0.06342 0.2102101,-0.1684652 0.2387451,-0.1684652 0.010657,0 0.023365,-0.00558 0.027905,-0.012919 0.012425,-0.020099 0.090437,-0.016223 0.1224731,0.0062 0.024109,0.016885 0.030189,0.017019 0.043408,0.00103 0.0046,-0.00555 0.00706,-0.0099 0.00723,-0.013436 -1.8e-5,-2.851e-4 -2.55e-5,-0.00156 0,-0.00207 v -5.168e-4 l -5.168e-4,-5.167e-4 h -5.167e-4 v -5.168e-4 -5.168e-4 l -5.168e-4,-5.167e-4 c -0.00286,-0.00311 -0.00908,-0.00645 -0.018087,-0.0093 -0.038736,-0.012295 -0.011132,-0.1000904 0.031523,-0.1002523 0.00827,-3.1e-5 0.04191,-0.01784 0.074931,-0.039791 0.034048,-0.022633 0.077957,-0.040275 0.1012858,-0.040308 0.026752,-3.75e-5 0.043868,-0.00412 0.049609,-0.010335 l 5.168e-4,-5.168e-4 5.167e-4,-5.167e-4 c 8.84e-5,-2.05e-4 4.478e-4,-0.00134 5.168e-4,-0.00155 V 4.446757 4.4462402 4.4457235 h 5.168e-4 v -5.168e-4 -5.168e-4 c -5.703e-4,-0.00465 -0.00537,-0.010779 -0.013953,-0.017053 -0.00506,-0.0037 -0.00916,-0.00749 -0.010852,-0.010335 v -5.167e-4 c -8.74e-5,-2.305e-4 -4.568e-4,-0.00132 -5.168e-4,-0.00155 v -5.168e-4 -5.168e-4 l 5.168e-4,-5.167e-4 5.167e-4,-5.168e-4 V 4.4126506 4.4121338 4.411617 c 0.00299,-0.00462 0.012125,-0.010357 0.027388,-0.018087 0.020726,-0.010496 0.046354,-0.0271 0.057361,-0.03669 0.084432,-0.073593 0.1853022,-0.116557 0.1881022,-0.080099 7e-4,0.00917 0.00288,0.1008741 0.00465,0.2036052 0.00558,0.3235426 0.065043,0.5032409 0.1999878,0.605131 0.07454,0.056279 0.086036,0.073396 0.060978,0.088883 -0.020469,0.012651 -0.015533,0.033073 0.00775,0.033073 0.00572,0 0.00961,-0.00172 0.011886,-0.00413 h 5.168e-4 l 5.167e-4,-5.168e-4 v -5.168e-4 l 5.168e-4,-5.167e-4 v -5.168e-4 c 4.37e-5,-1.89e-4 4.904e-4,-0.00136 5.168e-4,-0.00155 v -5.167e-4 -5.168e-4 c -1.638e-4,-0.00125 -7.036e-4,-0.00327 -0.00155,-0.00465 -0.00226,-0.00367 -0.00287,-0.00688 -0.00207,-0.0093 v -5.168e-4 l 5.168e-4,-5.168e-4 5.167e-4,-5.167e-4 v -5.168e-4 h 5.168e-4 v -5.168e-4 l 5.168e-4,-5.167e-4 h 5.167e-4 c 7.122e-4,-2.934e-4 0.00249,-8.86e-4 0.00362,-0.00103 h 5.167e-4 c 0.00699,0 0.015807,0.00861 0.019637,0.018604 0.00726,0.018918 0.2106308,0.1764517 0.2335775,0.1813842 l 5.167e-4,5.168e-4 h 5.168e-4 5.168e-4 c 0.00674,0.00172 0.024668,0.015874 0.040824,0.033073 0.016157,0.017198 0.03409,0.031357 0.041341,0.033073 l 5.167e-4,5.168e-4 h 5.168e-4 c 0.021959,0 0.154062,0.09492 0.2320272,0.1669149 0.03997,0.036906 0.061916,0.059553 0.065112,0.067696 v 5.168e-4 5.167e-4 5.168e-4 h -5.168e-4 v 5.168e-4 h -5.167e-4 v 5.167e-4 h -5.168e-4 -5.168e-4 c -0.00732,-7.7e-5 -0.030093,-0.010229 -0.067179,-0.029972 -0.031534,-0.016786 -0.051876,-0.026281 -0.060462,-0.025838 h -5.167e-4 -5.168e-4 l -5.167e-4,5.167e-4 h -5.168e-4 l -5.168e-4,5.168e-4 -5.167e-4,5.168e-4 -5.168e-4,5.167e-4 v 5.168e-4 5.168e-4 c -0.00158,0.00883 0.010935,0.033288 0.036173,0.076481 0.059701,0.1021709 0.1678271,0.1630257 0.2744019,0.1539957 0.048634,-0.00412 0.014729,-0.063853 -0.056327,-0.098702 -0.035471,-0.017396 -0.066124,-0.037552 -0.072864,-0.047026 -1.72e-4,-2.932e-4 -3.988e-4,-8.128e-4 -5.168e-4,-0.00103 v -5.168e-4 -5.168e-4 -5.167e-4 c 0,-0.00434 0.00133,-0.00764 0.00362,-0.00982 0.00719,-0.0055 0.021769,-0.00262 0.029456,0.00982 0.00623,0.00794 0.041434,0.029632 0.079065,0.048059 0.038845,0.019021 0.099961,0.057738 0.135909,0.0863 0.035948,0.028561 0.077308,0.057385 0.091984,0.064079 0.08781,0.040053 0.2226819,0.2671889 0.2800863,0.4718058 0.00973,0.03467 0.030359,0.083743 0.045992,0.1090373 0.015633,0.025294 0.03684,0.089887 0.047542,0.1436605 0.010703,0.053774 0.025806,0.1215434 0.03359,0.1508951 0.051589,0.1945401 0.067628,0.2892669 0.065629,0.3870565 -0.00532,0.2611203 -0.00878,0.3410559 -0.016536,0.3488159 l -5.167e-4,5.168e-4 -5.168e-4,5.168e-4 v 5.167e-4 c -0.00244,0.00627 -1.736e-4,0.020776 0.00672,0.03359 0.010267,0.019184 0.010313,0.028967 -5.167e-4,0.035657 -0.00827,0.00511 -0.017364,0.021003 -0.020154,0.03514 -0.00279,0.014137 -0.020742,0.056296 -0.039791,0.094051 -0.018454,0.036575 -0.033692,0.073393 -0.034623,0.082166 0,0.00721 -0.00961,0.020879 -0.021187,0.030489 -0.011579,0.00961 -0.034694,0.044549 -0.051677,0.078031 -0.033321,0.06569 -0.1239965,0.1477946 -0.1632975,0.1477946 -0.013341,0 -0.031654,0.012196 -0.040824,0.026872 -0.00917,0.014675 -0.028261,0.026355 -0.042375,0.026355 -0.027888,0 -0.08029,0.064541 -0.07183,0.088367 v 5.168e-4 5.167e-4 5.168e-4 5.167e-4 5.168e-4 c -1.49e-4,2.778e-4 -8.855e-4,0.00126 -0.00103,0.00155 -0.00732,0.009 -0.035674,0.022951 -0.070797,0.03359 -0.1157088,0.035048 -0.1628911,0.112239 -0.096635,0.1586466 0.035135,0.02461 0.1295909,0.017284 0.2196249,-0.017053 0.036689,-0.013993 0.088465,-0.02916 0.1152384,-0.03359 0.026773,-0.00443 0.062844,-0.018828 0.080099,-0.032039 0.042164,-0.032283 0.1370332,-0.068213 0.1793172,-0.068213 0.018874,0 0.049556,-0.012196 0.068213,-0.026872 0.018657,-0.014675 0.043519,-0.026872 0.054777,-0.026872 0.066999,0 0.2173677,-0.1179758 0.3141927,-0.2464966 0.027641,-0.036689 0.071225,-0.089281 0.096635,-0.1167888 0.081216,-0.087921 0.1753118,-0.2200496 0.1912028,-0.2682006 0.00794,-0.024073 0.021046,-0.04615 0.029972,-0.051677 l 5.168e-4,-5.167e-4 5.167e-4,-5.168e-4 h 5.168e-4 5.167e-4 v -5.168e-4 h 5.168e-4 v -5.167e-4 h 5.168e-4 c 0.00973,-0.00613 0.029659,-0.033479 0.045475,-0.063562 0.01687,-0.032088 0.047623,-0.085318 0.06873,-0.1183391 0.021107,-0.033021 0.076039,-0.1333522 0.1219564,-0.2232422 0.043046,-0.084272 0.083321,-0.1543715 0.093018,-0.1627807 v -5.168e-4 h 5.167e-4 5.168e-4 v -5.168e-4 h 5.167e-4 5.168e-4 5.168e-4 5.167e-4 l 5.168e-4,-5.167e-4 5.168e-4,-5.168e-4 c 0.00437,-0.00471 0.00775,-0.019097 0.00775,-0.035657 0,-0.020381 0.00836,-0.049088 0.018087,-0.063562 0.01917,-0.028525 0.075197,-0.1674495 0.1023193,-0.2532145 0.00928,-0.029352 0.022979,-0.068472 0.030489,-0.086817 0.00751,-0.018345 0.012292,-0.040679 0.010852,-0.049609 -0.00144,-0.00893 0.00681,-0.051586 0.018087,-0.095085 0.011274,-0.043499 0.020671,-0.096501 0.020671,-0.1178222 0,-0.021321 0.00559,-0.044706 0.012402,-0.051676 l 5.168e-4,-5.167e-4 C 7.1016482,6.1478931 7.1186,5.6504209 7.099825,5.5412638 7.095408,5.5155811 7.0860745,5.4313921 7.0791545,5.3541951 7.0722315,5.2769983 7.0581748,5.1804647 7.0476318,5.1402547 7.0080958,4.9894724 6.982135,4.9070777 6.970634,4.8947917 c -0.00653,-0.00697 -0.011886,-0.025937 -0.011886,-0.041858 0,-0.03093 -0.030177,-0.1278466 -0.086816,-0.2790528 C 6.852692,4.5225169 6.8309561,4.456472 6.8233561,4.42712 6.8157551,4.397768 6.801064,4.3546416 6.7908,4.3315186 6.780538,4.3083956 6.7721965,4.2839015 6.7721965,4.2767415 c 0,-0.00716 -0.00899,-0.020613 -0.019637,-0.029456 -0.010647,-0.00884 -0.023482,-0.043024 -0.028422,-0.075964 -0.00494,-0.03294 -0.02235,-0.075941 -0.038757,-0.095601 -0.016407,-0.019659 -0.033757,-0.063294 -0.038757,-0.097152 -0.00584,-0.039575 -0.02048,-0.072386 -0.041341,-0.091984 -0.017848,-0.016767 -0.048333,-0.061272 -0.067696,-0.098702 -0.019363,-0.03743 -0.043557,-0.077298 -0.053743,-0.088883 -0.01019,-0.011585 -0.018604,-0.029467 -0.018604,-0.039791 0,-0.01913 -0.066424,-0.1604663 -0.081132,-0.1725993 -0.017329,-0.014296 -0.024052,-0.060823 -0.014986,-0.07338 l 5.167e-4,-5.168e-4 5.168e-4,-5.168e-4 5.168e-4,-5.167e-4 5.167e-4,-5.168e-4 c 2.341e-4,-1.058e-4 0.0013,-4.408e-4 0.00155,-5.168e-4 l 5.168e-4,-5.167e-4 h 5.168e-4 5.167e-4 5.168e-4 5.168e-4 v 5.167e-4 h 5.167e-4 c 3.388e-4,1.023e-4 0.00118,4.36e-4 0.00155,5.168e-4 h 5.168e-4 c 0.00533,0.00204 0.00967,0.00255 0.012919,0.00207 h 5.167e-4 5.168e-4 l 5.168e-4,-5.168e-4 c 3.816e-4,-2.062e-4 8.685e-4,-4.402e-4 0.00103,-5.168e-4 h 5.168e-4 5.167e-4 v -5.167e-4 h 5.168e-4 l 5.168e-4,-5.168e-4 5.167e-4,-5.168e-4 c 1.667e-4,-2.11e-4 9.401e-4,-0.00132 0.00103,-0.00155 l 5.167e-4,-5.167e-4 v -5.168e-4 -5.168e-4 c 0.00381,-0.011728 -0.00828,-0.037858 -0.033073,-0.057361 -0.019327,-0.015202 -0.030982,-0.035277 -0.026872,-0.045992 0.00162,-0.00422 0.0017,-0.0078 0.00103,-0.010335 V 3.293339 L 6.3381144,3.2928223 V 3.2923055 L 6.3375977,3.2917887 6.3370809,3.291272 6.3365641,3.2907552 6.3360474,3.2902384 6.3355306,3.2897217 c -0.00271,-0.00121 -0.00711,-0.00146 -0.012402,-5.168e-4 -0.011963,0.00213 -0.024695,-0.00374 -0.027905,-0.012919 -8.354e-4,-0.00239 -0.00117,-0.00456 -0.00103,-0.0062 v -5.167e-4 l 5.167e-4,-5.168e-4 c 7.89e-5,-1.89e-4 4.183e-4,-0.00138 5.168e-4,-0.00155 l 5.167e-4,-5.168e-4 5.168e-4,-5.167e-4 5.168e-4,-5.168e-4 H 6.29729 l 5.168e-4,-5.167e-4 c 0.00328,-9.196e-4 0.00902,-5.949e-4 0.01602,0.00155 8.4e-4,2.579e-4 0.0024,8.699e-4 0.0031,0.00103 h 5.167e-4 5.168e-4 5.168e-4 5.167e-4 5.168e-4 5.168e-4 V 3.2675008 3.266984 h -5.168e-4 v -5.167e-4 l -5.168e-4,-5.168e-4 c -0.00314,-0.00328 -0.012942,-0.00975 -0.027389,-0.018087 -0.1387435,-0.080053 -0.2771882,0.116432 -0.1674316,0.2377116 0.016008,0.01769 0.020389,0.037744 0.014469,0.069763 -0.00536,0.028973 -0.00176,0.053368 0.010335,0.069763 0.016387,0.022206 0.014526,0.032615 -0.012919,0.084233 -0.017195,0.032339 -0.031006,0.070203 -0.031006,0.084233 0,0.014029 -0.012196,0.031941 -0.026872,0.039791 -0.014675,0.00785 -0.026872,0.02589 -0.026872,0.040308 0,0.011715 -0.0029,0.021989 -0.00723,0.025321 h -5.167e-4 l -5.168e-4,5.168e-4 h -5.168e-4 l -5.167e-4,5.167e-4 h -5.168e-4 -5.168e-4 -5.167e-4 -5.168e-4 -5.168e-4 l -5.167e-4,5.168e-4 c -0.00652,0.00469 -0.017736,0.025532 -0.026355,0.049609 -0.017937,0.050098 -0.035478,0.074164 -0.1390096,0.1943034 -0.02861,0.033199 -0.052639,0.064511 -0.055811,0.072347 v 5.167e-4 5.168e-4 H 5.817216 v 5.168e-4 l -5.168e-4,5.167e-4 c -0.00238,0.00774 -0.019551,0.038268 -0.040308,0.07028 -0.046821,0.072209 -0.2042811,0.2432668 -0.225826,0.2485636 H 5.5500488 5.5495321 5.5490153 5.5484985 V 4.5371908 L 5.5479818,4.536674 v -5.168e-4 -5.167e-4 c 6.46e-5,-4.36e-4 3.573e-4,-0.00152 5.167e-4,-0.00207 0.00426,-0.014676 0.02696,-0.07767 0.050126,-0.1400431 0.023166,-0.062372 0.05124,-0.1492419 0.062528,-0.1932699 0.011288,-0.044028 0.031576,-0.1015068 0.044958,-0.1276408 0.013382,-0.026134 0.02846,-0.074401 0.03359,-0.1069702 0.00513,-0.03257 0.018796,-0.073961 0.030489,-0.091984 0.04709,-0.072574 0.022461,-0.6798519 -0.039274,-0.9678996 C 5.7146687,2.8299461 5.6987259,2.7368591 5.6771729,2.5926066 5.6689509,2.5375718 5.6571046,2.4745775 5.6513346,2.4525635 5.6455636,2.4305497 5.63056,2.3614565 5.617745,2.2990845 5.5753573,2.0927713 5.5014422,1.884787 5.3774495,1.624707 5.3447575,1.5561355 5.3180216,1.495058 5.3180216,1.488798 c 0,-0.00626 -0.028289,-0.056407 -0.062528,-0.1111043 C 5.2212486,1.3229967 5.1646047,1.2241098 5.1294027,1.1580688 5.0095952,0.93330469 4.9985745,0.91422224 4.9805745,0.89606934 4.9074883,0.82236043 4.7990163,0.62443768 4.8110758,0.59427897 l 5.168e-4,-5.1676e-4 5.168e-4,-5.1677e-4 5.167e-4,-5.1676e-4 5.168e-4,-5.1677e-4 5.168e-4,-5.1676e-4 c 2.267e-4,-8.084e-5 0.0013,-4.6252e-4 0.00155,-5.1676e-4 2.643e-4,-2.731e-5 0.00127,0 0.00155,0 0.010573,0 0.023065,-0.006127 0.027905,-0.0139526 2.814e-4,-4.5527e-4 0.00117,-0.00191 0.00155,-0.002584 0.00622,-0.0197185 -0.039005,-0.0505498 -0.056327,-0.0361735 -6.592e-4,4.5221e-4 -0.00216,0.001592 -0.0031,0.002067 h -5.167e-4 c -0.00122,1.7552e-4 -0.00339,-6.965e-5 -0.00465,-5.1676e-4 -0.00701,-0.00331 -0.015468,-0.0161913 -0.023254,-0.0377238 -0.00682,-0.0188553 -0.012268,-0.029971 -0.017053,-0.0341064 -2.78e-4,-1.9591e-4 -0.00128,-8.7754e-4 -0.00155,-0.001034 -2.721e-4,-1.0238e-4 -0.00128,-4.6056e-4 -0.00155,-5.1677e-4 H 4.7376953 4.7371785 4.7366618 4.736145 4.7356283 c -2.642e-4,1.245e-4 -0.00129,8.578e-4 -0.00155,0.001034 -0.00132,0.001062 -0.0033,0.00304 -0.00465,0.005168 -0.00157,0.002477 -0.00291,0.004484 -0.00413,0.005684 l -5.168e-4,5.1677e-4 h -5.168e-4 l -5.167e-4,5.1676e-4 h -5.168e-4 v 5.1677e-4 h -5.168e-4 -5.167e-4 -5.168e-4 l -5.167e-4,-5.1677e-4 -5.168e-4,-5.1676e-4 c -0.00166,-0.003067 -0.00303,-0.0109368 -0.0031,-0.0227376 -2.62e-4,-0.0450375 -0.032761,-0.12313738 -0.081649,-0.19585368 -0.021215,-0.031554 -0.038757,-0.0603378 -0.038757,-0.0640788 0,-0.005316 -0.031168,-0.0491979 -0.068213,-0.09715169 z m 0.1483114,0.62373454 h 5.168e-4 5.167e-4 l 5.168e-4,5.1676e-4 c 0.00626,0.006314 0.02454,0.0364894 0.052193,0.0878499 0.023658,0.0439399 0.075754,0.12471181 0.1157552,0.17983398 0.087479,0.12054623 0.1610352,0.24375583 0.1839681,0.30747473 0.00926,0.025736 0.035427,0.074488 0.058394,0.1085206 0.021533,0.031905 0.039709,0.063205 0.041858,0.072347 3.62e-5,2.55e-4 0,0.00135 0,0.00155 0.00126,0.00819 0.021628,0.045614 0.046509,0.084233 0.025683,0.039864 0.047026,0.080832 0.047026,0.090951 0,0.017202 0.044847,0.1174936 0.1348755,0.30024 0.021033,0.042694 0.038241,0.09111 0.038241,0.107487 0,0.016377 0.00541,0.035405 0.011885,0.042375 0.022203,0.023897 0.06179,0.1905188 0.1007691,0.4263305 0.046925,0.2838812 0.077499,0.4547756 0.08785,0.486792 0.028905,0.089384 0.048872,0.6857739 0.026355,0.7317383 v 5.168e-4 l -5.168e-4,5.167e-4 -5.167e-4,5.168e-4 h -5.168e-4 l -5.168e-4,5.168e-4 H 5.6218791 5.6213623 5.6208455 5.6203288 V 3.753776 H 5.619812 l -5.168e-4,5.168e-4 -5.167e-4,5.168e-4 -5.168e-4,5.167e-4 v 5.168e-4 H 5.617745 v 5.168e-4 c -0.00351,0.00728 -0.00381,0.025486 0,0.048059 0.00548,0.032432 6.926e-4,0.072446 -0.012402,0.1100708 -0.011318,0.032513 -0.020564,0.06961 -0.020671,0.082682 -1.07e-4,0.013072 -0.00959,0.027589 -0.021187,0.032039 -0.012993,0.00498 -0.018619,0.017728 -0.014469,0.03359 0.0037,0.014164 8.408e-4,0.044865 -0.0062,0.068213 -0.00706,0.023348 -0.018765,0.063717 -0.026355,0.0894 -0.00759,0.025683 -0.021803,0.064286 -0.031523,0.0863 -0.00972,0.022014 -0.0309,0.082476 -0.047026,0.1338419 -0.037636,0.1199 -0.033943,0.1109341 -0.073381,0.1731161 -0.018616,0.029352 -0.037448,0.064157 -0.041858,0.076998 -0.00413,0.012039 -0.012269,0.022053 -0.018604,0.023254 h -5.168e-4 -5.167e-4 -5.168e-4 c -3.374e-4,-8.1e-6 -9.825e-4,-2.15e-5 -0.00103,0 h -5.168e-4 l -5.167e-4,5.167e-4 h -5.168e-4 c -0.00479,0.00318 -0.00879,0.013094 -0.00879,0.024288 0,0.013777 -0.00859,0.032601 -0.01912,0.041341 -0.029502,0.024484 -0.03845,0.089004 -0.018603,0.1338419 0.021479,0.048522 0.029456,0.049301 0.080098,0.00672 0.021801,-0.018345 0.051109,-0.03359 0.065112,-0.03359 0.029877,0 0.1552521,-0.074458 0.1591634,-0.094051 v -5.168e-4 -5.167e-4 -5.168e-4 c 0.00206,-0.00837 0.01967,-0.030986 0.040308,-0.05116 0.022014,-0.021519 0.039791,-0.051223 0.039791,-0.066146 0,-0.015161 0.00903,-0.026872 0.020154,-0.026872 0.01095,0 0.03568,-0.018294 0.055294,-0.040308 0.019615,-0.022014 0.047161,-0.039791 0.060978,-0.039791 0.015505,0 0.03155,-0.016114 0.042375,-0.041858 0.00673,-0.016002 0.013711,-0.025979 0.01912,-0.028939 2.644e-4,-1.127e-4 0.00129,-4.396e-4 0.00155,-5.168e-4 h 5.168e-4 l 5.167e-4,-5.168e-4 h 5.168e-4 5.167e-4 c 2.303e-4,6.77e-5 0.00133,4.123e-4 0.00155,5.168e-4 l 5.168e-4,5.168e-4 5.168e-4,5.167e-4 5.167e-4,5.168e-4 c 9.48e-5,1.272e-4 7.427e-4,7.631e-4 0.00103,0.00103 l 5.167e-4,5.168e-4 c 0.00395,0.0064 0.0086,0.00992 0.012402,0.010852 h 5.167e-4 5.168e-4 5.168e-4 5.167e-4 c 3.271e-4,8.3e-6 9.64e-4,2.18e-5 0.00103,0 6.349e-4,-1.712e-4 0.00198,-7.695e-4 0.00258,-0.00103 0.0086,-0.00553 0.014152,-0.025492 0.00878,-0.049609 -0.0038,-0.017323 -0.00367,-0.030028 0,-0.035657 l 5.167e-4,-5.168e-4 5.168e-4,-5.167e-4 c 2.002e-4,-1.66e-4 0.00134,-9.484e-4 0.00155,-0.00103 l 5.168e-4,-5.167e-4 c 2.403e-4,-8.45e-5 0.0013,-4.602e-4 0.00155,-5.168e-4 2.668e-4,-2.84e-5 0.00127,0 0.00155,0 0.00792,0 0.014469,0.00971 0.014469,0.021704 0,0.00246 1.167e-4,0.00471 5.168e-4,0.0062 9.69e-5,2.595e-4 4.027e-4,0.00133 5.168e-4,0.00155 l 5.167e-4,5.167e-4 v 5.168e-4 h 5.168e-4 l 5.168e-4,5.168e-4 h 5.167e-4 5.168e-4 5.168e-4 c 2.422e-4,-5.91e-5 0.00129,-4.172e-4 0.00155,-5.168e-4 0.0045,-0.00224 0.012032,-0.00978 0.022221,-0.022738 0.012604,-0.016023 0.020943,-0.032409 0.021187,-0.040308 -1.47e-5,-2.791e-4 3.91e-5,-0.0013 0,-0.00155 V 4.3857788 L 5.9402059,4.385262 V 4.3847453 4.3842285 H 5.9396891 L 5.9391724,4.3837118 V 4.383195 c -8.06e-5,-1.966e-4 -4.559e-4,-0.00134 -5.168e-4,-0.00155 l -5.168e-4,-5.168e-4 c -5.846e-4,-0.00639 0.0053,-0.018745 0.014986,-0.029456 0.013236,-0.014628 0.019006,-0.037382 0.014986,-0.058394 -0.00438,-0.022893 0.00407,-0.048562 0.024805,-0.076998 0.017147,-0.023517 0.04118,-0.065501 0.053227,-0.093018 0.010918,-0.024937 0.023811,-0.045406 0.030489,-0.049093 l 5.167e-4,-5.167e-4 h 5.168e-4 5.168e-4 5.167e-4 v -5.168e-4 h 5.168e-4 5.168e-4 5.167e-4 c 0.029076,-0.019491 0.1979208,-0.3324818 0.1979208,-0.3689697 0,-0.00741 0.00147,-0.012372 0.00362,-0.014986 l 5.168e-4,-5.168e-4 5.167e-4,-5.167e-4 v -5.168e-4 h 5.168e-4 l 5.168e-4,-5.168e-4 h 5.167e-4 5.168e-4 5.168e-4 5.167e-4 5.168e-4 5.168e-4 v 5.168e-4 h 5.167e-4 c 0.00751,0.00203 0.018672,0.014317 0.028422,0.035657 0.02288,0.050076 0.059689,0.1138771 0.1012858,0.1767334 0.019136,0.028917 0.034911,0.063483 0.03514,0.076481 2.29e-4,0.012999 0.014995,0.047646 0.033073,0.076998 0.018078,0.029352 0.033035,0.061918 0.033073,0.072347 3.76e-5,0.010429 0.00793,0.028206 0.01757,0.039791 0.00964,0.011585 0.03728,0.066405 0.061495,0.1214396 0.024215,0.055034 0.054991,0.1241272 0.068213,0.153479 0.013222,0.029352 0.028412,0.086249 0.03359,0.1266073 0.00518,0.040359 0.019808,0.097256 0.032556,0.1266072 0.052364,0.1205611 0.057626,0.1351419 0.1069702,0.296106 0.00943,0.030752 0.017804,0.075969 0.018604,0.1002523 8.04e-4,0.024282 0.00892,0.051795 0.018087,0.061495 0.00917,0.0097 0.016874,0.036621 0.017053,0.059945 1.79e-4,0.023324 0.00565,0.066766 0.012402,0.096118 0.050716,0.2204028 0.042689,0.9816103 -0.011886,1.120345 -0.00577,0.014676 -0.021553,0.062942 -0.03514,0.1069702 -0.013162,0.042652 -0.030838,0.082275 -0.038757,0.0894 -0.00286,0.00197 -0.00483,0.00483 -0.00568,0.00723 -0.00137,0.00516 0.00155,0.011366 0.00878,0.018604 0.00911,0.00911 0.015968,0.028882 0.015503,0.043925 -2.743e-4,0.00887 -3.921e-4,0.014924 -0.00103,0.01757 l -5.168e-4,5.168e-4 v 5.168e-4 5.167e-4 h -5.167e-4 -5.168e-4 -5.168e-4 v -5.167e-4 l -5.167e-4,-5.168e-4 c -0.00184,-0.00281 -0.00503,-0.010051 -0.0093,-0.020671 -0.00588,-0.014641 -0.010409,-0.023704 -0.013436,-0.026872 L 6.8109538,6.6641927 H 6.810437 L 6.8099202,6.6636759 H 6.8094035 6.8088867 L 6.80837,6.6641927 v 5.168e-4 c -0.00218,0.00442 -0.00268,0.020112 -5.168e-4,0.047026 0.00148,0.018398 0.00204,0.029379 0.00103,0.03359 v 5.168e-4 L 6.80837,6.7463582 v 5.168e-4 h -5.168e-4 v 5.168e-4 H 6.8073364 6.8068197 V 6.746875 h -5.168e-4 l -5.168e-4,-5.168e-4 c -0.00154,-0.00199 -0.0038,-0.00622 -0.0062,-0.011369 l -0.012402,-0.026355 -0.00207,0.026355 c -0.00523,0.068525 -0.016579,0.1074955 -0.034107,0.1173055 -0.010513,0.00588 -0.01912,0.020179 -0.01912,0.031523 0,0.011344 -0.01203,0.03755 -0.026872,0.058394 -0.014843,0.020844 -0.045934,0.078675 -0.069246,0.1286743 -0.043737,0.093804 -0.1504644,0.2529253 -0.1725993,0.2578654 h -5.168e-4 -5.167e-4 c -2.963e-4,0 -0.00126,-3.9e-5 -0.00155,0 l -5.168e-4,5.168e-4 c -6.835e-4,3.937e-4 -0.00168,8.765e-4 -0.00207,0.00103 l -5.167e-4,5.168e-4 c -2.356e-4,1.875e-4 -0.00133,8.747e-4 -0.00155,0.00103 -0.00216,0.00307 -0.00377,0.00828 -0.0031,0.013436 0.00403,0.031029 -8.77e-4,0.045066 -0.025321,0.071313 -0.013411,0.014394 -0.035924,0.051665 -0.049609,0.082682 -0.011974,0.02714 -0.025483,0.050012 -0.032556,0.055294 h -5.167e-4 l -5.168e-4,5.168e-4 h -5.168e-4 v 5.168e-4 h -5.167e-4 -5.168e-4 -5.168e-4 -5.167e-4 c -0.00664,0.00319 -0.02037,0.021796 -0.031523,0.043408 -0.012306,0.023848 -0.057852,0.075812 -0.100769,0.1152384 -0.050751,0.046622 -0.078031,0.081778 -0.078031,0.1012858 0,0.019047 -0.016,0.04149 -0.044442,0.060978 -0.024634,0.016879 -0.05639,0.047839 -0.07028,0.06873 -0.017734,0.026672 -0.040204,0.040182 -0.075964,0.045992 -0.02801,0.00455 -0.059257,0.016365 -0.069247,0.026355 -0.00999,0.00999 -0.027743,0.018087 -0.039274,0.018087 -0.0082,0 -0.015752,0.00319 -0.01912,0.00672 l -5.168e-4,5.167e-4 v 5.168e-4 l -5.168e-4,5.168e-4 v 5.167e-4 l -5.167e-4,5.168e-4 v 5.167e-4 5.168e-4 5.168e-4 5.167e-4 5.168e-4 l -5.168e-4,5.168e-4 v 5.167e-4 l -5.168e-4,5.168e-4 c -0.0034,0.00452 -0.013878,0.00892 -0.025838,0.00982 -6.25e-4,4.72e-5 -0.00196,-1.5e-5 -0.00258,0 H 5.7815592 5.7810425 5.7805257 L 5.780009,8.0584229 5.7794922,8.0579061 5.7789754,8.0573893 5.7784587,8.0568726 H 5.7779419 L 5.7774251,8.0563558 5.7769084,8.055839 v -5.167e-4 h -5.168e-4 v -5.168e-4 c -0.00748,-0.016734 0.020378,-0.076246 0.068213,-0.1390096 0.00839,-0.011007 0.026309,-0.047078 0.039791,-0.080099 0.013482,-0.03302 0.035516,-0.084371 0.049093,-0.1142049 0.013577,-0.029834 0.024805,-0.063005 0.024805,-0.073897 0,-0.010892 0.00589,-0.025526 0.012919,-0.032556 0.00703,-0.00703 0.01546,-0.1359228 0.01912,-0.2862875 0.00745,-0.305912 -0.011822,-0.4509043 -0.099219,-0.7394897 -0.0076,-0.025087 -0.016614,-0.067917 -0.020154,-0.095601 C 5.8673782,6.4659665 5.8564315,6.433783 5.8466715,6.422347 5.8369135,6.410912 5.819697,6.3747528 5.808431,6.3417318 5.7383227,6.1362426 5.6985376,6.0404241 5.6776896,6.0275391 5.6705446,6.0231251 5.6647705,6.0083841 5.6647705,5.9944661 5.6622615,5.9680838 5.5037198,5.7997488 5.4766683,5.7944784 H 5.4761515 5.4756348 5.475118 c -0.00846,-0.0018 -0.05089,-0.031119 -0.096118,-0.066663 -0.045227,-0.035543 -0.088578,-0.064867 -0.098702,-0.066663 h -5.168e-4 -5.168e-4 c -0.00512,0 -0.00972,-0.00197 -0.012402,-0.00465 -7.188e-4,-8.938e-4 -0.00206,-0.00285 -0.00258,-0.00413 V 5.6518514 5.6513346 5.6508179 5.6503011 5.6497843 L 5.2637614,5.6492676 C 5.2598051,5.6429316 5.24275,5.6313943 5.2224202,5.6223958 5.1716945,5.5999424 5.0295263,5.5067209 5.0182983,5.4885539 c -0.00439,-0.0071 -0.017133,-0.00981 -0.027905,-0.00568 -0.011247,0.0043 -0.019499,5.84e-5 -0.019637,-0.010335 C 4.970495,5.453078 4.8744498,5.367631 4.8529338,5.367631 c -0.057172,0 -0.322461,-0.2227475 -0.322461,-0.2707845 V 5.0963298 5.095813 C 4.5272379,5.0867633 4.5003621,5.0530545 4.4679443,5.0188151 4.396788,4.9436608 4.357486,4.888564 4.3573568,4.863269 c -4.9e-5,-0.00947 -0.012789,-0.033815 -0.027905,-0.05426 -0.015115,-0.020445 -0.030246,-0.057138 -0.034106,-0.081649 -0.00386,-0.024511 -0.01583,-0.057834 -0.026355,-0.073897 -0.033695,-0.051418 -0.030295,-0.2025583 0.00517,-0.2273763 0.016273,-0.011398 0.029456,-0.031599 0.029456,-0.044958 0,-0.013361 0.0093,-0.031814 0.020154,-0.040824 0.039979,-0.033181 0.058027,-0.087145 0.03824,-0.1142049 -0.024339,-0.03328 -0.022946,-0.049828 0.00827,-0.085783 0.016187,-0.018666 0.023957,-0.041668 0.019637,-0.058911 -0.00533,-0.021292 0.0059,-0.038867 0.047026,-0.072864 0.058926,-0.04873 0.1188707,-0.1760469 0.1033528,-0.1984375 L 4.5397746,3.8095866 4.5392578,3.8090698 4.538741,3.8085531 4.5382243,3.8080363 c -2.176e-4,-1.145e-4 -0.00132,-4.23e-4 -0.00155,-5.168e-4 -2.465e-4,-7.27e-5 -0.00129,-4.653e-4 -0.00155,-5.167e-4 -0.00386,-4.163e-4 -0.00959,0.00139 -0.016536,0.00568 -0.00671,0.00415 -0.01538,-1.088e-4 -0.01912,-0.0093 -0.00129,-0.00318 -0.00272,-0.00576 -0.00413,-0.00723 L 4.4948161,3.795634 H 4.4942993 L 4.4937826,3.7951172 4.4932658,3.7946004 H 4.492749 c -2.049e-4,-2.29e-5 -0.00134,-4.2e-6 -0.00155,0 H 4.490682 4.4901652 4.4896484 4.4891317 l -5.168e-4,5.168e-4 c -0.00296,0.00169 -0.00692,0.00567 -0.011369,0.011369 -0.00508,0.00651 -0.00848,0.010412 -0.010335,0.011886 l -5.168e-4,5.167e-4 h -5.167e-4 v 5.168e-4 h -5.168e-4 v -5.168e-4 h -5.168e-4 v -5.167e-4 c -1.23e-5,-0.00196 0.00131,-0.00672 0.00362,-0.013953 0.00425,-0.013341 -0.002,-0.025776 -0.015503,-0.031006 -0.0072,-0.00279 -0.011744,-0.0051 -0.013953,-0.00723 L 4.4384888,3.7656616 4.437972,3.7651449 4.4374552,3.7646281 V 3.7641113 3.7635946 3.7630778 3.762561 l 5.168e-4,-5.167e-4 c 0.00172,-0.00319 0.0072,-0.00797 0.01602,-0.014469 0.045447,-0.03347 0.018609,-0.1410767 -0.03514,-0.1410767 -0.040975,0 -0.1088214,0.075822 -0.1219564,0.135909 -0.00533,0.024393 -0.024578,0.057871 -0.042375,0.074414 -0.015574,0.014475 -0.025902,0.031132 -0.025321,0.039791 2.45e-5,1.443e-4 4.034e-4,0.00123 5.168e-4,0.00155 v 5.168e-4 h 5.167e-4 v 5.168e-4 5.167e-4 l 5.168e-4,5.168e-4 c 8.64e-5,2.444e-4 4.549e-4,0.0013 5.168e-4,0.00155 0.00106,0.00743 -0.00706,0.019216 -0.020154,0.027389 -0.014493,0.00905 -0.026656,0.022911 -0.027388,0.031006 v 5.167e-4 5.168e-4 C 4.179164,3.9430767 4.0353735,4.0821799 4.012675,4.0865723 h -5.168e-4 -5.168e-4 c -0.00803,0 -0.014469,0.0061 -0.014469,0.013436 0,0.00734 -0.00796,0.013436 -0.01757,0.013436 h -5.168e-4 c -0.011059,0.0018 -0.049424,0.031119 -0.0863,0.066663 -0.036875,0.035543 -0.073775,0.064867 -0.083716,0.066663 h -5.167e-4 -5.168e-4 c -0.00955,0.00118 -0.040596,0.020587 -0.069763,0.043925 -0.056785,0.045437 -0.2359759,0.1511771 -0.3116089,0.1839681 -0.020867,0.00905 -0.038314,0.020246 -0.042375,0.026355 l -5.168e-4,5.167e-4 -5.168e-4,5.168e-4 v 5.167e-4 5.168e-4 c 0,0.020501 -0.060097,0.064079 -0.088367,0.064079 -0.016399,0 -0.057367,0.020875 -0.09095,0.046509 -0.029385,0.022431 -0.05371,0.039789 -0.059428,0.041858 H 3.1439941 3.1434774 3.1429606 V 4.655013 c 0,-0.00563 -0.057273,0.043149 -0.1286743,0.1090373 -0.025042,0.023104 -0.05175,0.041724 -0.060461,0.042891 l -5.168e-4,5.168e-4 c -0.037821,0 -0.4072592,0.3978714 -0.4490682,0.4836914 -0.0234,0.048032 -0.051296,0.094463 -0.062012,0.1033529 -0.010713,0.00889 -0.019637,0.023549 -0.019637,0.032039 0,0.00849 -0.012196,0.024045 -0.026872,0.034623 -0.014675,0.010577 -0.026355,0.029835 -0.026355,0.042891 0,0.010608 -0.0035,0.01972 -0.00827,0.022738 h -5.168e-4 l -5.167e-4,5.168e-4 h -5.168e-4 -5.168e-4 -5.167e-4 l -5.168e-4,5.168e-4 h -5.168e-4 -5.167e-4 -5.168e-4 -5.168e-4 l -5.167e-4,5.167e-4 c -0.00661,0.00469 -0.016648,0.025532 -0.023254,0.049609 -0.022331,0.081419 -0.069576,0.2035393 -0.09095,0.2361613 -0.01094,0.016696 -0.022825,0.065964 -0.026355,0.1090373 -0.00353,0.043072 -0.00977,0.093276 -0.014469,0.1116211 -0.0047,0.018345 -0.00943,0.039169 -0.010335,0.046509 -9.04e-4,0.00734 -0.00895,0.046457 -0.01757,0.086816 -0.032287,0.1511141 -0.04036,0.2220387 -0.03359,0.2899047 0.00383,0.0384 -4.072e-4,0.1275905 -0.0093,0.1984375 -0.014451,0.114792 -0.013636,0.1350781 0.00672,0.1839681 0.049635,0.1193999 0.067587,0.1821367 0.079582,0.2769857 0.00433,0.034255 0.016742,0.069708 0.027389,0.078548 0.010649,0.00884 0.01912,0.023279 0.01912,0.032039 v 5.167e-4 c 0.00195,0.010506 0.03384,0.052011 0.072347,0.094051 0.037266,0.040684 0.065571,0.078701 0.066146,0.08785 v 5.168e-4 5.167e-4 5.168e-4 l -5.167e-4,5.167e-4 v 5.168e-4 h -5.168e-4 v 5.168e-4 5.167e-4 5.168e-4 5.168e-4 5.167e-4 h 5.168e-4 v 5.168e-4 l 5.167e-4,5.168e-4 h 5.168e-4 c 0.00233,5.062e-4 0.00715,-8.6e-6 0.012402,-0.00207 0.019815,-0.00516 0.075448,0.051563 0.075448,0.078031 v 5.168e-4 c 9.116e-4,0.00835 0.015818,0.033545 0.03359,0.056844 0.027067,0.035487 0.037406,0.057606 0.030489,0.066663 -0.00893,0.00905 -0.039733,0.00336 -0.095085,-0.015503 -0.034416,-0.011727 -0.070358,-0.0326 -0.080099,-0.046509 -0.00731,-0.010435 -0.01585,-0.017907 -0.021187,-0.01912 H 2.3564453 2.3559285 2.3554118 2.354895 2.3543783 l -5.168e-4,5.167e-4 h -5.168e-4 l -5.167e-4,5.168e-4 h -5.168e-4 v 5.167e-4 h -5.168e-4 -5.167e-4 c -0.018406,3.473e-4 -0.1416594,-0.070733 -0.162264,-0.094568 -0.00734,-0.00849 -0.037311,-0.031428 -0.066663,-0.05116 -0.1423703,-0.095711 -0.277461,-0.2319808 -0.269751,-0.2723348 0.00661,-0.034586 -0.018064,-0.059842 -0.060461,-0.062012 -0.016164,-8.26e-4 -0.035568,-0.014761 -0.043408,-0.030489 -0.00784,-0.015728 -0.020672,-0.036549 -0.028422,-0.046509 -0.018948,-0.02435 -0.027937,-0.048892 -0.023771,-0.057878 l 5.167e-4,-5.168e-4 v -5.167e-4 l 5.168e-4,-5.168e-4 5.168e-4,-5.168e-4 5.167e-4,-5.167e-4 c 1.799e-4,-8.33e-5 0.00136,-4.508e-4 0.00155,-5.168e-4 l 5.168e-4,-5.167e-4 h 5.168e-4 c 0.00163,-8.41e-5 0.00443,2.077e-4 0.00672,0.00103 0.010553,0.00405 0.02637,-0.00131 0.03514,-0.011886 0.00473,-0.0057 0.00733,-0.010573 0.00775,-0.013953 V 6.8931193 6.8926025 6.8920858 L 1.7502808,6.891569 V 6.8910522 6.8905355 H 1.749764 V 6.8900187 L 1.7492472,6.889502 h -5.167e-4 l -5.168e-4,-5.168e-4 h -5.168e-4 -5.167e-4 -5.168e-4 l -5.168e-4,-5.168e-4 h -5.167e-4 -5.168e-4 -5.167e-4 c -2.4e-4,-5.31e-5 -0.00131,-4.381e-4 -0.00155,-5.167e-4 -0.00688,-0.0029 -0.015384,-0.015596 -0.01912,-0.030489 -0.00687,-0.027385 -0.059893,-0.088091 -0.1219564,-0.1400432 -0.013036,-0.010912 -0.018049,-0.027758 -0.012919,-0.043925 0.00459,-0.014448 0.00161,-0.035337 -0.00723,-0.045992 -0.00485,-0.00584 -0.008,-0.00997 -0.00879,-0.012919 v -5.167e-4 c -6.9e-6,-2.124e-4 -2.25e-5,-0.00135 0,-0.00155 v -5.168e-4 -5.168e-4 h 5.168e-4 V 6.610966 h 5.167e-4 l 5.168e-4,-5.168e-4 5.168e-4,-5.167e-4 c 0.00232,-9.845e-4 0.00644,-0.00155 0.011885,-0.00155 0.00916,0 0.015462,-0.00271 0.018604,-0.00672 0.0096,-0.014811 -0.014158,-0.04857 -0.053743,-0.063562 -0.031691,-0.012002 -0.044198,-0.04791 -0.026355,-0.076481 0.016993,-0.027212 -0.012325,-0.080099 -0.044442,-0.080099 -0.027626,0 -0.025556,-0.1042312 0.00258,-0.1353922 0.020155,-0.022269 0.020273,-0.026818 -0.00103,-0.059428 -0.020588,-0.031419 -0.021655,-0.046603 -0.00775,-0.1415935 0.00803,-0.054917 0.012112,-0.1030761 0.0093,-0.1121378 v -5.168e-4 l -5.167e-4,-5.167e-4 v -5.168e-4 l -5.168e-4,-5.168e-4 h -5.168e-4 v -5.167e-4 c -0.00205,-0.00546 1.117e-4,-0.018039 0.0062,-0.029456 0.0087,-0.016271 0.00664,-0.039151 -0.00723,-0.072347 -0.011124,-0.02662 -0.019961,-0.076522 -0.019637,-0.1111043 3.3e-4,-0.034582 -0.0031,-0.1199425 -0.00723,-0.1896525 -0.0069,-0.116571 -0.00487,-0.1306859 0.023254,-0.1736329 0.019659,-0.030021 0.0308,-0.067856 0.031523,-0.1064534 0.00179,-0.095509 0.1218428,-0.5996119 0.1560628,-0.6557739 0.010623,-0.017435 0.026743,-0.058446 0.036173,-0.091467 0.022428,-0.07854 0.066541,-0.1663057 0.1038696,-0.2067057 0.017855,-0.019328 0.026137,-0.040839 0.021187,-0.053743 -0.025474,-0.066385 0.1778414,-0.3140409 0.3803385,-0.4635376 0.041416,-0.030576 0.1000706,-0.07689 0.1302246,-0.1028361 0.030154,-0.025944 0.077555,-0.066586 0.10542,-0.090434 0.027865,-0.023848 0.058406,-0.043408 0.067696,-0.043408 h 5.167e-4 c 0.010444,-0.00174 0.043135,-0.030244 0.073897,-0.064595 0.031755,-0.035461 0.080487,-0.078065 0.1080038,-0.094568 0.024937,-0.014956 0.045923,-0.031173 0.049609,-0.038241 v -5.167e-4 l 5.167e-4,-5.168e-4 v -5.168e-4 -5.167e-4 -5.168e-4 -5.167e-4 l 5.168e-4,-5.168e-4 c 0.00459,-0.007 0.02498,-0.021342 0.048576,-0.03359 C 2.9574713,3.2193586 3.2080765,3.0258632 3.4230469,2.8189494 3.6614353,2.589498 3.7568766,2.4954637 3.7568766,2.4892537 c 0,-0.00354 0.052582,-0.064886 0.1167888,-0.1364257 0.2813489,-0.3134802 0.2605141,-0.2853714 0.3911906,-0.5296835 0.036029,-0.067359 0.065629,-0.129526 0.065629,-0.137976 0,-0.00845 0.021492,-0.041993 0.048059,-0.074414 0.021715,-0.0265 0.036965,-0.049839 0.038241,-0.057361 V 1.5528768 1.55236 1.5518433 H 4.4162679 L 4.4157511,1.5513265 H 4.4152344 4.4147176 4.4142008 4.4136841 V 1.5508097 H 4.4131673 V 1.550293 h -5.167e-4 v -5.168e-4 l 5.167e-4,-5.168e-4 5.168e-4,-5.167e-4 v -5.168e-4 c 0.00211,-0.00279 0.00759,-0.00707 0.014986,-0.011369 0.030787,-0.017896 0.064105,-0.09671 0.053227,-0.125057 -0.00449,-0.01169 0.00143,-0.03123 0.012919,-0.043925 0.011489,-0.012695 0.040064,-0.086377 0.063562,-0.1632976 0.023499,-0.076921 0.05757,-0.1779893 0.075448,-0.22479244 0.017877,-0.0468032 0.029548,-0.0969095 0.025838,-0.11110433 -0.00371,-0.0141948 8.498e-4,-0.0448247 0.010335,-0.0682129 0.00949,-0.0233882 0.014055,-0.0515216 0.010335,-0.0625285 -0.00223,-0.006586 -0.00347,-0.0111248 -0.00362,-0.0134359 v -5.1676e-4 -5.1677e-4 h 5.168e-4 z M 23.753589,2.9858643 c 0.05671,-0.057707 -0.06538,0.052512 -0.199471,0.1777669 -3.7e-5,2.98e-4 -5e-6,7.316e-4 0,0.00103 3.6e-5,6.063e-4 7.3e-5,0.00199 0,0.00258 0.06357,-0.04791 0.127244,-0.107884 0.199471,-0.1813842 z" /><path
       style="fill:#ffffff;stroke-width:1"
       d="m 22.007387,30.256288 c 0,-0.01482 0.147428,-0.327767 0.327615,-0.695431 0.296897,-0.605798 0.327694,-0.80105 0.328444,-2.08236 8.61e-4,-1.540779 -0.163736,-2.358092 -0.792466,-3.934023 -0.202277,-0.507012 -0.517131,-1.080102 -0.699679,-1.273532 -0.375755,-0.398156 -2.036079,-1.554491 -2.232019,-1.554491 -0.07067,0 -0.128499,-0.05007 -0.128499,-0.111264 0,-0.0612 -0.239496,-0.251618 -0.532216,-0.423163 -0.967942,-0.567252 -2.172602,-2.260054 -2.172602,-3.052965 0,-0.136102 0.104069,-0.394313 0.231264,-0.573803 0.127195,-0.179489 0.230931,-0.471248 0.230524,-0.648353 -4.06e-4,-0.177105 0.144491,-0.535735 0.321995,-0.796955 0.335936,-0.494375 0.410175,-0.786704 0.199787,-0.786704 -0.06762,0 -0.122946,-0.140051 -0.122946,-0.311225 0,-0.406601 -0.355011,-0.549044 -0.579922,-0.232685 -0.09249,0.130099 -0.317971,0.465987 -0.501064,0.746418 -0.482671,0.739274 -1.623181,1.597595 -3.818274,2.873545 -0.825869,0.480056 -2.1771815,1.822197 -2.773997,2.75517 -0.6011038,0.939678 -0.8664718,1.638851 -1.104847,2.910978 -0.4101245,2.188693 -0.1358436,3.892007 0.7857266,4.879444 0.2709594,0.290326 0.4926533,0.584239 0.4926533,0.653141 0,0.224486 -1.2476351,-0.547163 -1.8297275,-1.131667 C 6.7078842,26.533261 6.5970522,26.386484 6.583226,26.070639 6.5759623,25.904717 6.4414519,25.632107 6.2843133,25.464841 6.1157588,25.285423 6.036797,25.098927 6.0917439,25.010021 c 0.054024,-0.08741 0.0067,-0.213901 -0.1126825,-0.301197 -0.1433431,-0.104816 -0.221676,-0.388387 -0.258056,-0.934183 -0.02873,-0.431025 -0.08777,-1.319486 -0.1311993,-1.974357 -0.047809,-0.720909 -0.028129,-1.351497 0.049881,-1.598302 0.070864,-0.224195 0.242882,-0.933224 0.3822612,-1.575618 0.1393792,-0.642394 0.4182458,-1.493909 0.6197035,-1.892257 0.2014577,-0.398347 0.3662867,-0.794424 0.3662867,-0.880173 0,-0.378845 2.3139445,-2.416643 4.1408095,-3.646647 0.528804,-0.356037 1.653218,-1.339587 2.498697,-2.185666 2.056933,-2.0583929 2.918154,-3.3802452 3.69323,-5.66858 l 0.441162,-1.3024887 0.565496,0.8721767 c 0.638546,0.9848453 1.544655,2.7506239 1.93017,3.7614146 0.700305,1.8361492 1.143627,6.1185394 0.763658,7.3767774 -0.37307,1.235389 -0.681584,2.055243 -0.956675,2.542293 -0.285654,0.505749 -0.389618,1.146096 -0.186075,1.146096 0.27119,0 0.990054,-0.453299 1.441255,-0.908821 0.275146,-0.277784 0.647829,-0.634612 0.828181,-0.792952 0.180352,-0.15834 0.384195,-0.496905 0.452982,-0.752365 0.06879,-0.255459 0.227981,-0.596178 0.35376,-0.757151 0.125779,-0.160974 0.364733,-0.561426 0.53101,-0.889893 l 0.302321,-0.597212 0.590345,1.211943 c 0.576295,1.183098 1.224368,2.988539 1.560407,4.347075 0.106569,0.430837 0.163623,1.345391 0.157236,2.5204 -0.0091,1.671745 -0.04143,1.936166 -0.345819,2.827764 -0.184685,0.540964 -0.539757,1.335613 -0.789048,1.765887 -0.24929,0.430274 -0.562147,0.974135 -0.695239,1.20858 -0.377982,0.665834 -1.751082,2.212777 -2.028502,2.285324 -0.137451,0.03594 -0.249913,0.05322 -0.249913,0.0384 z"
       id="path1"
       transform="scale(0.26458333)" /></g></svg>
