<?xml version="1.0" encoding="UTF-8" standalone="no"?>
<!-- Created with Inkscape (http://www.inkscape.org/) -->

<svg
   width="32"
   height="32"
   viewBox="0 0 8.4666666 8.4666666"
   version="1.1"
   id="svg1"
   xml:space="preserve"
   inkscape:version="1.4.3 (0d15f75, 2025-12-25)"
   sodipodi:docname="WaterIcon.svg"
   inkscape:export-filename="WaterIcon.svg"
   inkscape:export-xdpi="96"
   inkscape:export-ydpi="96"
   xmlns:inkscape="http://www.inkscape.org/namespaces/inkscape"
   xmlns:sodipodi="http://sodipodi.sourceforge.net/DTD/sodipodi-0.dtd"
   xmlns="http://www.w3.org/2000/svg"
   xmlns:svg="http://www.w3.org/2000/svg"><sodipodi:namedview
     id="namedview1"
     pagecolor="#ffffff"
     bordercolor="#000000"
     borderopacity="0.25"
     inkscape:showpageshadow="2"
     inkscape:pageopacity="0.0"
     inkscape:pagecheckerboard="0"
     inkscape:deskcolor="#d1d1d1"
     inkscape:document-units="mm"
     inkscape:zoom="23.005387"
     inkscape:cx="15.757179"
     inkscape:cy="16.4092"
     inkscape:window-width="1920"
     inkscape:window-height="1009"
     inkscape:window-x="-8"
     inkscape:window-y="-8"
     inkscape:window-maximized="1"
     inkscape:current-layer="layer2" /><defs
     id="defs1" /><g
     inkscape:groupmode="layer"
     id="layer2"
     inkscape:label="cheatsheet"><path
       id="path84"
       style="fill:#000000"
       d="m 4.3248006,0.0883667 c -0.00451,1.781e-5 -0.00905,3.5806e-4 -0.013436,0.0010335 -0.020156,0.0031012 -0.03905,0.01297981 -0.057878,0.02015381 -0.020518,0.009232 -0.040914,0.0180074 -0.059428,0.0310059 2.34e-5,-4.0527e-4 2.2e-6,-8.0733e-4 0,-0.001034 V 0.1390096 0.13849284 0.13797607 0.13745931 h -5.167e-4 v 5.1676e-4 h -5.168e-4 c -0.00228,0.002868 -0.00774,0.0169457 -0.011886,0.0201538 h -5.167e-4 v 5.1677e-4 h -5.168e-4 -5.168e-4 c -2.899e-4,3.3399e-4 -7.665e-4,7.8216e-4 -0.00103,0.001034 l -5.167e-4,5.1676e-4 v 5.1676e-4 l -5.168e-4,5.1677e-4 v 5.1676e-4 H 4.177006 v 5.1677e-4 5.1676e-4 c 2.754e-4,0.001592 0.00128,0.004939 0.00155,0.0129191 0.00111,0.0328978 0.00727,0.0653962 0.00982,0.0981852 0.00445,0.0583414 0.00409,0.11669531 0.00362,0.17518311 -5.005e-4,0.0614001 -0.014121,0.10978444 -0.03514,0.14469401 -2.278e-4,0.0527728 -3.578e-4,0.11065093 -5.168e-4,0.17466634 -3.37e-4,0.13536385 -0.00745,0.26590375 -0.015503,0.28990475 -0.011072,0.032991 -0.010384,0.046244 0.00258,0.053744 0.01165,0.00673 0.013996,0.025978 0.00775,0.059945 -0.00506,0.027536 -0.010899,0.084894 -0.012919,0.1276408 -0.00509,0.1079012 -0.00738,0.1450446 -0.013436,0.1545125 l -5.167e-4,5.168e-4 v 5.167e-4 l -5.168e-4,5.168e-4 -5.168e-4,5.168e-4 h -5.167e-4 l -5.168e-4,5.167e-4 h -5.168e-4 -5.167e-4 -5.168e-4 -5.168e-4 -5.167e-4 c -0.00109,-2.737e-4 -0.00285,-8.09e-4 -0.00413,-0.00155 -7.05e-4,-4.076e-4 -0.00199,-0.00129 -0.00258,-0.00155 H 4.1124105 4.1118937 4.111377 4.1108602 4.1103434 4.1098267 4.1093099 l -5.168e-4,5.168e-4 -5.167e-4,5.168e-4 v 5.167e-4 l -5.168e-4,5.168e-4 v 5.168e-4 c -3.99e-5,2.462e-4 1.75e-5,0.00127 0,0.00155 3.96e-5,0.00189 4.264e-4,0.00449 0.00155,0.00723 v 5.167e-4 c 0.00588,0.026084 -0.052831,0.2600338 -0.085783,0.3395142 -0.011815,0.028497 -0.023578,0.06011 -0.025838,0.070797 -0.00226,0.010686 -0.013341,0.040177 -0.024805,0.065112 -0.011464,0.024935 -0.037845,0.089194 -0.058911,0.1426269 -0.019749,0.050093 -0.040541,0.094614 -0.047026,0.1028362 l -5.167e-4,5.167e-4 c -0.0049,0.00356 -0.042612,0.070459 -0.083716,0.1488281 -0.076992,0.1467907 -0.161591,0.2817881 -0.181901,0.2893881 -0.00635,0.00237 -0.011886,0.011907 -0.011886,0.021187 0,0.037807 -0.055443,0.1130711 -0.1901692,0.2563151 -0.031375,0.033359 -0.057703,0.067531 -0.059428,0.077515 v 5.167e-4 c -1.46e-4,0.00867 -0.022059,0.039285 -0.048576,0.067696 -0.026517,0.02841 -0.057606,0.070084 -0.069246,0.093018 -0.01164,0.022933 -0.043354,0.063926 -0.070797,0.09095 -0.027443,0.027024 -0.065996,0.07243 -0.085266,0.1007691 -0.01927,0.028339 -0.043503,0.05916 -0.053743,0.06873 -0.010237,0.00957 -0.018604,0.022542 -0.018604,0.028422 0,0.010402 -0.028247,0.044058 -0.1209229,0.1431437 -0.023243,0.02485 -0.042676,0.050739 -0.044958,0.058911 v 5.168e-4 5.168e-4 5.167e-4 l -5.168e-4,5.168e-4 c -0.00366,0.00818 -0.024362,0.028577 -0.049093,0.047026 -0.027289,0.020357 -0.070761,0.067605 -0.096635,0.10542 -0.025874,0.037815 -0.065842,0.081296 -0.088883,0.096635 -0.021601,0.014379 -0.03999,0.032728 -0.042375,0.041858 -2.21e-5,1.421e-4 -6.5e-6,0.00123 0,0.00155 -2.51e-4,0.00842 -0.026074,0.038681 -0.056844,0.067179 -0.03077,0.028498 -0.081611,0.08828 -0.1131714,0.1328084 -0.030574,0.043135 -0.06348,0.078436 -0.074414,0.080615 h -5.167e-4 c -0.00981,0 -0.018087,0.011143 -0.018087,0.024288 0,0.013145 -0.012825,0.034346 -0.028422,0.047542 -0.015597,0.013196 -0.037799,0.043395 -0.049609,0.066663 -0.01181,0.023268 -0.033553,0.045826 -0.048059,0.050126 -0.014506,0.0043 -0.026355,0.016149 -0.026355,0.026355 0,0.010207 -0.0064,0.018604 -0.014469,0.018604 -0.00189,0 -0.00433,4.703e-4 -0.00568,0.00103 l -5.167e-4,5.168e-4 h -5.168e-4 v 5.167e-4 l -5.167e-4,5.168e-4 h -5.168e-4 v 5.168e-4 l -5.168e-4,5.167e-4 v 5.168e-4 5.168e-4 5.167e-4 c -3.07e-5,2.538e-4 4.2e-6,0.00128 0,0.00155 4.73e-5,5.691e-4 3.509e-4,0.00197 5.168e-4,0.00258 3.434e-4,9.447e-4 9.018e-4,0.00212 0.00155,0.0031 v 5.168e-4 5.168e-4 c 0.00144,0.00989 -0.018184,0.044897 -0.045992,0.080098 -0.065263,0.082613 -0.099736,0.1429044 -0.099736,0.1746664 0,0.013018 -0.00831,0.03504 -0.018603,0.049093 -0.010289,0.014053 -0.022195,0.046378 -0.026355,0.071313 -0.00416,0.024935 -0.026995,0.08454 -0.050643,0.1328084 -0.023648,0.048268 -0.042891,0.1021606 -0.042891,0.1193726 0,0.016136 -0.00454,0.031735 -0.010335,0.03669 l -5.167e-4,5.168e-4 -5.168e-4,5.167e-4 h -5.168e-4 l -5.167e-4,5.168e-4 c -0.00672,0.00818 -0.019215,0.051995 -0.028422,0.1007691 -0.00981,0.051972 -0.023162,0.1041019 -0.029972,0.1162719 -0.00681,0.01217 -0.016131,0.067995 -0.020671,0.1235067 -0.00453,0.055512 -0.011416,0.1050476 -0.014986,0.1105876 -0.033888,0.052624 -0.034782,0.6189223 -0.00103,0.6810953 0.028473,0.052479 0.048608,0.1540965 0.057878,0.2945557 0.00379,0.057479 0.015977,0.1301707 0.027389,0.1617472 0.011412,0.031576 0.027467,0.096986 0.035657,0.1452108 0.012879,0.075839 0.044086,0.1600256 0.084749,0.2294434 0.00626,0.010687 0.025138,0.045972 0.041858,0.078031 0.01672,0.03206 0.054954,0.085572 0.084749,0.1193725 0.029795,0.033801 0.067676,0.083314 0.084749,0.1100708 0.017073,0.026757 0.043498,0.067841 0.058394,0.090951 0.013965,0.021665 0.032808,0.039681 0.042375,0.041858 h 5.167e-4 5.168e-4 5.168e-4 c 0.021143,0.00362 0.1285418,0.1169964 0.1286743,0.1364258 v 5.167e-4 c 0.0018,0.00786 0.016744,0.024138 0.034623,0.03669 0.01786,0.01254 0.032841,0.028676 0.034623,0.03669 3.01e-5,2.496e-4 0,0.00132 0,0.00155 v 5.168e-4 5.168e-4 h 5.168e-4 v 5.167e-4 c 0.00326,0.00945 0.021948,0.031908 0.044442,0.052193 0.024767,0.022336 0.087913,0.082732 0.1405599,0.1343588 0.052647,0.051626 0.1212672,0.1061666 0.1524455,0.1209228 0.031178,0.014756 0.1011578,0.055235 0.1550293,0.089917 0.053871,0.034683 0.1052049,0.063045 0.1142049,0.063045 0.009,0 0.016536,0.0058 0.016536,0.012919 0,0.00713 0.00752,0.012858 0.017053,0.012919 0.00953,6.13e-5 0.070101,0.024266 0.1348755,0.053743 0.1575286,0.071689 0.487245,0.1486648 0.5637898,0.1317749 0.019351,-0.00427 0.040453,0.00348 0.059945,0.021704 0.020614,0.019272 0.039535,0.025606 0.059945,0.020154 0.061698,-0.016483 0.091282,-0.021995 0.100769,-0.017053 l 5.168e-4,5.168e-4 5.167e-4,5.168e-4 5.168e-4,5.167e-4 5.168e-4,5.168e-4 h 5.167e-4 v 5.168e-4 h 5.168e-4 v 5.167e-4 c 0.041024,-0.00691 0.082141,-0.012746 0.1235067,-0.018087 0.1618104,-0.0144 0.3246794,-0.00846 0.4867919,-0.00465 0.0048,1.298e-4 0.00967,3.945e-4 0.014469,5.168e-4 7.194e-4,-0.00469 0.00103,-0.00961 0.00103,-0.014469 0,-0.01163 0.00633,-0.021187 0.013953,-0.021187 2.355e-4,-1.96e-5 0.00132,3.89e-5 0.00155,0 L 4.644161,8.3783 c 0.00631,-0.00212 0.011838,-0.011311 0.011885,-0.022221 8e-5,-0.018256 0.014145,-0.023158 0.072347,-0.025838 0.058232,-0.00268 0.078298,-0.00995 0.1033528,-0.037207 0.019333,-0.021038 0.039179,-0.031205 0.05271,-0.026355 0.011971,0.00429 0.03244,0.00276 0.045475,-0.00362 0.050333,-0.024626 0.1637582,-0.057977 0.1860352,-0.054777 0.012855,0.00185 0.02927,-0.0072 0.03669,-0.020154 0.00742,-0.012958 0.037403,-0.031591 0.066663,-0.041341 0.081295,-0.027076 0.1759754,-0.069222 0.1963704,-0.08785 0.01007,-0.00919 0.022792,-0.017053 0.028422,-0.017053 h 5.168e-4 c 0.00737,-0.00204 0.030881,-0.019365 0.053227,-0.039791 0.023836,-0.021787 0.051442,-0.037817 0.061495,-0.035657 0.010053,0.00216 0.037347,-0.014606 0.060978,-0.037724 0.022154,-0.021673 0.044278,-0.039695 0.05116,-0.041858 l 5.168e-4,-5.168e-4 h 5.168e-4 5.167e-4 5.168e-4 c 0.00828,-0.00267 0.042396,-0.024959 0.078548,-0.051676 0.035023,-0.025882 0.069169,-0.047936 0.079582,-0.051676 h 5.167e-4 5.168e-4 5.168e-4 c 1.962e-4,-2.81e-5 0.00135,-4.613e-4 0.00155,-5.168e-4 h 5.167e-4 c 0.00586,-0.00303 0.013904,-0.016455 0.018087,-0.032039 0.00478,-0.017811 0.018298,-0.032556 0.029972,-0.032556 0.011675,0 0.029895,-0.019987 0.040824,-0.044442 0.01093,-0.024455 0.034901,-0.059545 0.053227,-0.078031 0.018326,-0.018486 0.04123,-0.051971 0.05116,-0.074931 0.00993,-0.02296 0.021598,-0.045016 0.025838,-0.048576 0.00887,-0.00745 0.039231,-0.055635 0.066146,-0.1054199 0.010187,-0.018843 0.028001,-0.041376 0.039274,-0.050126 0.011276,-0.00875 0.020154,-0.024687 0.020154,-0.03514 0,-0.010453 0.013402,-0.02867 0.029456,-0.040824 0.016055,-0.012154 0.030309,-0.039413 0.032039,-0.060461 0.00423,-0.051265 0.022389,-0.1122587 0.039274,-0.1322917 0.00756,-0.00897 0.01562,-0.041104 0.01757,-0.071313 0.00833,-0.1291991 0.022157,-0.2128076 0.037207,-0.2273763 1.301e-4,-1.05e-4 7.216e-4,-7.044e-4 0.00103,-0.00103 l 5.168e-4,-5.167e-4 c 2.614e-4,-1.267e-4 0.00129,-4.321e-4 0.00155,-5.168e-4 h 5.167e-4 5.168e-4 l 5.168e-4,-5.168e-4 c 0.00202,0 0.00363,-3.683e-4 0.00517,-0.00103 h 5.168e-4 5.167e-4 v -5.168e-4 h 5.168e-4 l 5.168e-4,-5.167e-4 5.167e-4,-5.168e-4 5.168e-4,-5.168e-4 c 2.131e-4,-2.712e-4 8.434e-4,-0.00125 0.00103,-0.00155 0.00252,-0.00466 0.00347,-0.012478 0.00103,-0.021187 -0.004,-0.014287 4.765e-4,-0.03488 0.010335,-0.045992 0.017987,-0.020263 0.024126,-0.047356 0.031006,-0.1390096 0.00191,-0.025403 0.00949,-0.050293 0.017053,-0.057361 2.524e-4,-1.96e-4 0.0013,-8.93e-4 0.00155,-0.00103 0.021281,-0.013089 0.046509,-0.090261 0.046509,-0.1410766 0,-0.024097 0.012009,-0.077081 0.026355,-0.1178223 0.014346,-0.040741 0.03076,-0.097076 0.03669,-0.1255737 0.00593,-0.028497 0.013063,-0.060627 0.015503,-0.071314 0.00244,-0.010686 -0.00281,-0.035848 -0.011369,-0.055811 -0.015471,-0.036073 0.00317,-0.1260151 0.032556,-0.1576131 0.013964,-0.015013 0.014012,-0.083533 0.00207,-0.098185 L 6.558256,5.7092122 H 6.5577393 V 5.7086955 H 6.5572225 6.5567057 L 6.556189,5.7081787 H 6.5556722 C 6.5327477,5.694606 6.5236343,5.5273801 6.5443034,5.5092244 l 5.167e-4,-5.167e-4 h 5.168e-4 l 5.168e-4,-5.168e-4 h 5.167e-4 c 0.014483,-0.00519 0.021704,-0.024638 0.021704,-0.058394 0,-0.026877 -0.007,-0.045764 -0.014469,-0.050643 h -5.167e-4 l -5.168e-4,-5.167e-4 h -5.167e-4 c -2.168e-4,-2.49e-5 -0.00133,2.7e-6 -0.00155,0 H 6.5499878 6.549471 6.5489543 6.5484375 l -5.168e-4,5.167e-4 H 6.547404 c -0.00353,0.00216 -0.00776,0.0079 -0.010852,0.016536 -3.981e-4,0.00111 -7.46e-4,0.00199 -0.00103,0.00258 v 5.168e-4 h -5.168e-4 v 5.168e-4 h -5.167e-4 v -5.168e-4 l -5.168e-4,-5.168e-4 c -2.629e-4,-0.00272 8.665e-4,-0.010033 0.00258,-0.02067 0.00298,-0.018323 -0.0012,-0.036989 -0.00879,-0.042375 l -5.167e-4,-5.168e-4 c -0.00807,-0.00466 -0.014469,-0.019321 -0.014469,-0.032556 0,-0.013235 -0.00723,-0.026199 -0.01602,-0.028939 h -5.168e-4 l -5.168e-4,-5.168e-4 -5.167e-4,-5.168e-4 c -0.00786,-0.00612 -0.015529,-0.029744 -0.016536,-0.055294 l -0.00207,-0.05116 0.049093,-0.00672 c 0.049613,-0.00653 0.071203,-0.074874 0.027905,-0.088367 -2.686e-4,-1.068e-4 -0.00131,-3.945e-4 -0.00155,-5.167e-4 L 6.5515381,5.0896118 6.5510213,5.0890951 6.5505046,5.0885783 6.5499878,5.0880615 6.549471,5.0875448 6.5489543,5.087028 c -7.54e-5,-2.23e-4 -4.653e-4,-0.00131 -5.168e-4,-0.00155 -2.78e-5,-2.496e-4 4.1e-6,-0.00129 0,-0.00155 3.712e-4,-0.00523 0.00479,-0.01329 0.013436,-0.022221 l 0.023771,-0.024288 -0.022738,-0.032039 c -0.012435,-0.017742 -0.022738,-0.058369 -0.022738,-0.089917 0,-0.039038 -0.00653,-0.059526 -0.020671,-0.064596 -0.011433,-0.0041 -0.020671,-0.022273 -0.020671,-0.040308 0,-0.020511 -0.00767,-0.033073 -0.02067,-0.033073 -0.00366,0 -0.00718,-7.894e-4 -0.00982,-0.00258 -0.00722,-0.00589 -0.011369,-0.020289 -0.011369,-0.043925 0,-0.034166 -0.00871,-0.053537 -0.03359,-0.07183 -0.019708,-0.014493 -0.030865,-0.032942 -0.026355,-0.043925 0.00428,-0.010424 8.025e-4,-0.01912 -0.00775,-0.01912 -2.675e-4,0 -0.00117,-1.94e-5 -0.00155,0 H 6.387207 c -0.00915,-0.00334 -0.025164,-0.022361 -0.03669,-0.044958 -0.011527,-0.022597 -0.025448,-0.04162 -0.032556,-0.044958 L 6.3174438,4.5056681 H 6.3169271 6.3164103 6.3158936 6.3153768 6.31486 l -5.167e-4,-5.167e-4 h -5.168e-4 -5.168e-4 c -0.00456,-0.00288 -0.00836,-0.012091 -0.00827,-0.022221 6.22e-5,-0.00666 2.468e-4,-0.011169 0.00103,-0.013436 l 5.168e-4,-5.167e-4 v -5.168e-4 h 5.168e-4 v -5.168e-4 h 5.167e-4 5.168e-4 5.168e-4 l 5.167e-4,5.168e-4 5.168e-4,5.168e-4 c 0.00197,0.0018 0.00521,0.00566 0.00878,0.010852 0.0047,0.00679 0.0086,0.010322 0.010852,0.011369 v 5.168e-4 h 5.168e-4 5.168e-4 5.167e-4 v -5.168e-4 h 5.168e-4 V 4.490682 h 5.167e-4 v -5.168e-4 c 3.97e-5,-2.437e-4 -1.42e-5,-0.00126 0,-0.00155 -1.544e-4,-0.00471 -0.0027,-0.014053 -0.00775,-0.026355 -0.00444,-0.010819 -0.015948,-0.016986 -0.025838,-0.013436 -3.886e-4,8.87e-5 -0.0019,3.993e-4 -0.00258,5.167e-4 -1.411e-4,-1.47e-5 -7.28e-4,-1.09e-5 -0.00103,0 h -5.167e-4 c -0.01717,-0.00495 -0.045966,-0.056304 -0.050126,-0.093534 -8.49e-4,-0.0076 -0.012502,-0.024193 -0.025838,-0.03669 -0.013335,-0.012497 -0.025225,-0.038278 -0.026355,-0.057361 -0.00112,-0.019084 -0.00284,-0.046213 -0.00362,-0.060462 -9.1e-4,-0.016704 -0.012415,-0.027232 -0.033073,-0.029972 -0.027171,-0.0036 -0.030901,-0.00996 -0.023771,-0.040308 0.010633,-0.04526 -0.024545,-0.08044 -0.045475,-0.045475 -0.015534,0.02595 -0.046491,0.013186 -0.03514,-0.014469 0.0043,-0.010455 1.01e-4,-0.018603 -0.0093,-0.018603 -0.00114,0 -0.00265,-2.495e-4 -0.00362,-5.167e-4 -9.15e-4,-3.591e-4 -0.00261,-0.00132 -0.00362,-0.00207 l -5.168e-4,-5.168e-4 c -0.00486,-0.00642 -0.00506,-0.022536 -5.167e-4,-0.049093 0.00492,-0.028765 0.00546,-0.041801 -5.168e-4,-0.047542 -0.00368,-0.00277 -0.010092,-0.00413 -0.018604,-0.00413 -0.021645,0 -0.027905,-0.00853 -0.027905,-0.038241 0,-0.03418 -0.00579,-0.038902 -0.052193,-0.045992 -0.086317,-0.013185 -0.1178554,-0.020541 -0.1266072,-0.027905 l -5.168e-4,-5.167e-4 v -5.168e-4 c -3.006e-4,-6.949e-4 -8.483e-4,-0.00216 -0.00103,-0.0031 v -5.167e-4 c 0,-0.0216 0.027964,-0.027264 0.036174,-0.00723 0.014326,0.034907 0.080282,0.0265 0.06873,-0.00879 -0.00525,-0.01603 -0.010134,-0.036169 -0.010852,-0.044958 -2.195e-4,-0.00269 -0.00123,-0.00472 -0.00207,-0.0062 V 3.7641113 L 5.8973145,3.7635946 5.8967977,3.7630778 V 3.762561 h -5.168e-4 l -5.167e-4,-5.167e-4 h -5.168e-4 -5.168e-4 -5.167e-4 c -2.021e-4,2.8e-6 -0.00134,-2.16e-5 -0.00155,0 -0.00266,4.848e-4 -0.00623,0.00198 -0.010335,0.00517 -0.00951,0.00738 -0.017667,0.00922 -0.022221,0.00672 l -5.167e-4,-5.168e-4 -5.168e-4,-5.168e-4 c -0.00462,-0.00498 -0.00409,-0.01661 0.00517,-0.030489 0.022334,-0.033434 -0.075203,-0.1239001 -0.1131714,-0.1049031 -0.038338,0.019182 -0.053185,0.016136 -0.063045,-0.012919 -0.00655,-0.019302 -0.016875,-0.023587 -0.040308,-0.018087 -0.023591,0.00554 -0.037306,-0.00143 -0.054777,-0.026355 -0.012824,-0.018298 -0.032392,-0.033073 -0.043408,-0.033073 -0.011016,0 -0.016599,-0.00706 -0.012919,-0.01602 v -5.167e-4 c 1.722e-4,-7.767e-4 4.478e-4,-0.0019 5.167e-4,-0.00258 1.009e-4,-0.00862 -0.010227,-0.020081 -0.025321,-0.026355 -0.021044,-0.00875 -0.030115,-0.022426 -0.027905,-0.041858 0.00136,-0.011948 -8.979e-4,-0.022459 -0.00465,-0.026872 L 5.4787354,3.4323486 5.4782186,3.4318319 5.4777018,3.4313151 H 5.4771851 L 5.4766683,3.4307983 H 5.4761515 5.4756348 L 5.475118,3.4302816 c -3.151e-4,0 -0.00119,-2.25e-5 -0.00155,0 h -5.168e-4 c -6.002e-4,-2.657e-4 -0.00201,-0.00112 -0.00258,-0.00155 -0.015606,-0.013941 -0.023225,-0.086403 -0.0093,-0.1028361 2.669e-4,-2.616e-4 0.00127,-0.00133 0.00155,-0.00155 l 5.167e-4,-5.168e-4 c 0.00283,-0.00176 0.00572,-0.00404 0.00723,-0.00568 1.58e-4,-2.397e-4 9.177e-4,-0.00131 0.00103,-0.00155 1.025e-4,-2.426e-4 4.42e-4,-0.00131 5.167e-4,-0.00155 l 5.168e-4,-5.167e-4 v -5.168e-4 -5.168e-4 -5.167e-4 -5.168e-4 -5.168e-4 h -5.168e-4 v -5.167e-4 c -0.00135,-0.00394 -0.00545,-0.00904 -0.012402,-0.014469 -0.011431,-0.00894 -0.027783,-0.027773 -0.036173,-0.041858 -0.00839,-0.014084 -0.031489,-0.027206 -0.051677,-0.029456 -0.032936,-0.00368 -0.044907,-0.020929 -0.038757,-0.057361 l 5.168e-4,-5.168e-4 V 3.1672485 L 5.3330078,3.1667318 V 3.166215 3.1656982 L 5.332491,3.1651815 5.3319743,3.1646647 5.3314575,3.1641479 c -0.0041,-0.00317 -0.013571,-0.00568 -0.024288,-0.00568 -0.024317,0 -0.034746,-0.019442 -0.029456,-0.05426 V 3.1036865 3.1031698 L 5.2771973,3.102653 c -0.0033,-0.00824 -0.025479,-0.03471 -0.05271,-0.062012 -0.029984,-0.030061 -0.058285,-0.071217 -0.063045,-0.091467 -0.00584,-0.024868 -0.017684,-0.03669 -0.035657,-0.03669 -0.011891,0 -0.021939,-0.00457 -0.025321,-0.010335 l -5.168e-4,-5.167e-4 v -5.168e-4 c -6.76e-5,-2.343e-4 -4.711e-4,-0.00131 -5.168e-4,-0.00155 -2.31e-5,-2.411e-4 0,-0.00131 0,-0.00155 0,-0.00781 -0.011974,-0.029665 -0.026355,-0.048576 -0.014381,-0.018911 -0.033738,-0.059172 -0.043408,-0.0894 -0.012246,-0.03828 -0.02271,-0.050815 -0.03359,-0.042375 -0.023108,0.01793 -0.051985,-0.00455 -0.069763,-0.053743 -0.00729,-0.020184 -0.019503,-0.03654 -0.028422,-0.039791 h -5.168e-4 -5.168e-4 c -3.055e-4,-1.98e-5 -0.00157,9e-6 -0.00207,0 h -5.168e-4 -5.168e-4 -5.167e-4 c -2.794e-4,2.9e-6 -0.00128,2.28e-5 -0.00155,0 h -5.168e-4 -5.167e-4 -5.168e-4 c -2.604e-4,-9.62e-5 -0.0013,-3.971e-4 -0.00155,-5.167e-4 -0.00597,-0.00342 -0.010852,-0.013898 -0.010852,-0.026355 0,-0.016569 -0.015468,-0.043575 -0.034106,-0.059945 -0.018638,-0.01637 -0.035404,-0.048005 -0.037724,-0.07028 -0.00195,-0.01873 -0.00817,-0.032132 -0.015503,-0.036173 -8.937e-4,-3.946e-4 -0.00269,-9.338e-4 -0.00362,-0.00103 -4.711e-4,-8.7e-6 -0.00192,-1.96e-5 -0.00258,0 -0.00134,2.504e-4 -0.0034,1.515e-4 -0.00465,0 h -5.167e-4 c -5.818e-4,-2.763e-4 -0.00205,-0.00114 -0.00258,-0.00155 -0.00593,-0.00552 -0.0094,-0.020903 -0.0093,-0.043925 7.9e-5,-0.018067 9.607e-4,-0.029014 0.0031,-0.03359 l 5.167e-4,-5.168e-4 5.168e-4,-5.167e-4 v -5.168e-4 l 5.168e-4,-5.168e-4 h 5.167e-4 5.168e-4 5.168e-4 5.167e-4 5.168e-4 l 5.167e-4,5.168e-4 c 0.00156,0.0012 0.00378,0.00344 0.00568,0.0062 0.00191,0.00276 0.00372,0.00491 0.00517,0.0062 2.296e-4,1.721e-4 0.00133,9.18e-4 0.00155,0.00103 h 5.168e-4 v 5.167e-4 h 5.167e-4 5.168e-4 5.167e-4 5.168e-4 v -5.167e-4 h 5.168e-4 v -5.168e-4 h 5.167e-4 l 5.168e-4,-5.167e-4 c 0.0019,-0.00416 0.00303,-0.014309 0.0031,-0.029456 1.66e-4,-0.033511 -0.00525,-0.041747 -0.024288,-0.038757 -0.024742,0.00388 -0.030953,-0.047123 -0.013953,-0.1126547 0.00208,-0.00802 0.00306,-0.013706 0.0031,-0.015503 v -5.168e-4 h -5.168e-4 v 5.168e-4 c -1.938e-4,3.892e-4 -0.00112,0.00185 -0.00155,0.00258 -0.013268,0.032955 -0.058007,0.0453 -0.056327,0.015503 0.00361,-0.064072 -0.00442,-0.099736 -0.022221,-0.099736 -0.010273,0 -0.029663,-0.023695 -0.043408,-0.052193 -0.012027,-0.024936 -0.02559,-0.045791 -0.032039,-0.050643 L 4.6028198,1.9802409 H 4.6023031 L 4.6017863,1.9797241 H 4.6012695 4.6007528 4.600236 v -5.167e-4 h -5.168e-4 l -5.167e-4,-5.168e-4 c -0.00426,-0.00577 -0.00882,-0.026598 -0.010335,-0.050643 l -0.0031,-0.052193 h 0.03514 c 0.02787,0 0.03514,-0.00599 0.03514,-0.030489 0,-0.021525 -0.00742,-0.030706 -0.024288,-0.029456 -0.014962,0.00111 -0.023967,-0.00668 -0.023254,-0.020671 6.3e-4,-0.012468 0.00235,-0.045916 0.00362,-0.074414 0.00162,-0.036462 0.00863,-0.052193 0.023254,-0.052193 0.013853,0 0.020671,-0.01285 0.020671,-0.038757 0,-0.02458 -0.00691,-0.038757 -0.01912,-0.038757 -0.025242,0 -0.03611,-0.028645 -0.036173,-0.095085 -3e-5,-0.031084 -0.011982,-0.071702 -0.027905,-0.096118 -0.036758,-0.056363 -0.036018,-0.1435594 0.00155,-0.2030884 0.011619,-0.018415 0.018006,-0.034457 0.01757,-0.041858 V 1.1544515 1.1539347 L 4.591451,1.153418 V 1.1529012 L 4.5909342,1.1523844 V 1.1518677 H 4.5904175 V 1.1513509 H 4.5899007 V 1.1508341 H 4.589384 4.5888672 4.5883504 4.5878337 4.5873169 4.5868001 l -5.167e-4,-5.167e-4 c -3.767e-4,-2.027e-4 -8.122e-4,-4.174e-4 -0.00103,-5.168e-4 -2.71e-4,-1.706e-4 -0.00129,-8.326e-4 -0.00155,-0.00103 -0.014854,-0.0144 -0.01236,-0.091287 0.00465,-0.1043864 5.941e-4,-3.703e-4 0.00144,-8.25e-4 0.00207,-0.00103 0.00346,-0.00119 0.00602,-0.0023 0.00775,-0.00362 l 5.168e-4,-5.167e-4 5.168e-4,-5.168e-4 5.167e-4,-5.168e-4 V 1.0376628 L 4.600236,1.037146 c 5.41e-5,-2.002e-4 4.897e-4,-0.00134 5.168e-4,-0.00155 V 1.0350789 1.0345622 1.0340454 H 4.600236 v -5.168e-4 -5.167e-4 c -0.0013,-0.00307 -0.00462,-0.00777 -0.00982,-0.012919 -0.00953,-0.00944 -0.01757,-0.0306395 -0.01757,-0.0470256 0,-0.017847 -0.00822,-0.0294556 -0.020671,-0.0294556 -0.019293,0 -0.029381,-0.0280669 -0.020671,-0.0583944 0.012097,-0.0421029 0.021159,-0.13454048 0.014986,-0.1477946 V 0.73690592 H 4.5459757 V 0.73638916 H 4.545459 C 4.52212,0.7206989 4.5529981,0.56936767 4.5847331,0.54363607 l 0.031523,-0.0258382 -0.028422,-0.0144694 c -0.040398,-0.0202127 -0.035935,-0.0380012 0.013953,-0.0542603 0.015293,-0.004984 0.024975,-0.009488 0.028939,-0.0134359 2.052e-4,-2.4444e-4 8.846e-4,-0.001308 0.00103,-0.00155 1.209e-4,-2.405e-4 4.378e-4,-0.001311 5.168e-4,-0.00155 h 5.168e-4 v -5.1677e-4 -5.1676e-4 -5.1676e-4 -5.1677e-4 l -5.168e-4,-5.1676e-4 v -5.1677e-4 l -5.168e-4,-5.1676e-4 v -5.1677e-4 l -5.167e-4,-5.1676e-4 c -9.932e-4,-9.3216e-4 -0.00302,-0.002677 -0.00465,-0.003617 -0.00357,-0.002065 -0.00615,-0.004029 -0.00775,-0.005684 L 4.6183228,0.41806234 4.617806,0.41754557 4.6172892,0.41702881 v -5.1677e-4 l -5.167e-4,-5.1676e-4 v -5.1676e-4 -5.1677e-4 -5.1676e-4 -5.1677e-4 l 5.167e-4,-5.1676e-4 v -5.1677e-4 l 5.168e-4,-5.1676e-4 c 0.00219,-0.002147 0.00747,-0.004723 0.014469,-0.007235 0.018076,-0.006485 0.025463,-0.0240274 0.022221,-0.0392741 -0.002,-0.004088 -0.00366,-0.008328 -0.00568,-0.0124023 v -5.1677e-4 h -5.167e-4 c -0.00362,-0.004645 -0.00845,-0.008508 -0.014986,-0.0108521 l -0.022738,-0.007751 0.01912,-0.0201538 C 4.6005055,0.26343191 4.566342,0.2161919 4.5253052,0.17414958 4.4938383,0.14393883 4.4613993,0.11296115 4.4198853,0.09715169 c -0.024486,-0.0118565 -0.05551,-0.0065601 -0.081649,-0.008785 -0.00443,2.8676e-4 -0.00892,-1.783e-5 -0.013436,0 z M 4.1609863,1.7973063 h 5.168e-4 5.168e-4 c 0.02975,-0.00433 0.087397,0.08557 0.1142049,0.2020549 0.00492,0.021374 0.017209,0.063762 0.027905,0.094568 0.00971,0.027978 0.014871,0.056705 0.012402,0.066663 v 5.168e-4 l -5.168e-4,5.168e-4 -5.167e-4,5.167e-4 v 5.168e-4 5.168e-4 l -5.168e-4,5.167e-4 c -0.00189,0.0095 0.01319,0.042097 0.03514,0.075448 0.023414,0.035574 0.042375,0.079255 0.042375,0.096635 0,0.01738 0.015572,0.045751 0.034623,0.063562 0.019051,0.017811 0.034623,0.040617 0.034623,0.050643 0,0.022393 0.1043796,0.2140442 0.1322916,0.2428792 0.010431,0.010779 0.019112,0.023573 0.020154,0.029456 v 5.167e-4 5.168e-4 5.167e-4 5.168e-4 h 5.168e-4 v 5.168e-4 c 0.00576,0.019276 0.069584,0.097404 0.1431437,0.1741496 0.037254,0.038867 0.077428,0.089701 0.0894,0.1131713 0.010476,0.020537 0.022773,0.037861 0.029456,0.041858 2.24e-4,1.085e-4 0.00134,4.436e-4 0.00155,5.168e-4 h 5.168e-4 v 5.168e-4 h 5.167e-4 5.168e-4 5.168e-4 5.167e-4 c 0.00618,0.00394 0.016886,0.021598 0.024805,0.041858 0.014955,0.038277 0.068601,0.087457 0.278536,0.2563151 0.034046,0.027384 0.06725,0.049697 0.075448,0.05116 l 5.167e-4,5.167e-4 c 0.020639,2.518e-4 0.1403897,0.1206977 0.1503785,0.151412 0.00515,0.015844 0.024288,0.040069 0.042891,0.053743 0.017438,0.012824 0.03185,0.028346 0.03359,0.035657 v 5.168e-4 l 5.167e-4,5.167e-4 v 5.168e-4 5.168e-4 c 0.00214,0.00827 0.019909,0.032333 0.041341,0.054777 0.021432,0.022443 0.039202,0.045395 0.041341,0.053227 3.61e-5,2.267e-4 0,0.00136 0,0.00155 l 5.168e-4,5.168e-4 c 0.00285,0.00836 0.026717,0.036274 0.055294,0.064079 0.030482,0.029658 0.055294,0.061923 0.055294,0.071314 0,0.021554 0.058327,0.1084669 0.088367,0.1317749 0.012468,0.00967 0.022221,0.027804 0.022221,0.040308 0,0.012504 0.00942,0.029511 0.020671,0.038241 0.020831,0.016163 0.1457275,0.2469662 0.1457275,0.2692342 9.111e-4,0.00742 0.016069,0.02947 0.034107,0.049093 0.016287,0.017724 0.027807,0.035575 0.028422,0.042891 -6.7e-6,2.342e-4 3.61e-5,0.00134 0,0.00155 v 5.168e-4 l -5.167e-4,5.168e-4 v 5.167e-4 c -0.00269,0.01638 0.045271,0.1410859 0.062528,0.1607137 0.00626,0.00712 0.015827,0.0347 0.021187,0.061495 0.00503,0.025147 0.015005,0.049744 0.021704,0.055811 h 5.167e-4 l 5.168e-4,5.168e-4 c 0.0062,0.00569 0.012175,0.026746 0.012402,0.048059 2.42e-4,0.022734 0.00948,0.052834 0.02067,0.066663 0.011192,0.013829 0.020154,0.044647 0.020154,0.06873 0,0.024083 0.00924,0.052875 0.020671,0.063562 0.011433,0.010687 0.021187,0.033504 0.021187,0.05116 0,0.017656 0.00793,0.047941 0.018087,0.067179 0.010159,0.019239 0.026404,0.069909 0.036174,0.1126546 0.00977,0.042746 0.023216,0.095416 0.029456,0.1167887 0.031974,0.1094828 0.04404,0.2893323 0.03514,0.5146973 C 6.3282656,6.1706647 6.3282399,6.1752104 6.2931559,6.2766195 6.24908,6.4040212 6.209545,6.5524058 6.178951,6.7070841 6.152856,6.8390154 6.1059316,7.0023028 6.0812826,7.0476318 6.0745516,7.0600028 6.069397,7.079575 6.069397,7.09104 c 0,0.011465 -0.00912,0.036384 -0.020154,0.055294 -0.011038,0.01891 -0.032615,0.060441 -0.048059,0.092501 -0.015444,0.03206 -0.033678,0.066828 -0.040308,0.077515 -0.034525,0.055692 -0.043925,0.081264 -0.043925,0.1167887 0,0.018115 -0.00502,0.033374 -0.011369,0.037724 l -5.168e-4,5.168e-4 c -2.434e-4,9.92e-5 -0.0013,4.498e-4 -0.00155,5.167e-4 -2.504e-4,3.39e-5 -0.0013,0 -0.00155,0 h -5.167e-4 -5.168e-4 c -0.020945,0.00405 -0.080078,0.069782 -0.1126546,0.1266073 -0.025359,0.044234 -0.075161,0.092644 -0.096635,0.093534 h -5.168e-4 c -0.00665,0.00138 -0.023435,0.011049 -0.037724,0.022738 -0.015241,0.012468 -0.040053,0.033007 -0.055294,0.045475 -0.014288,0.011689 -0.029662,0.021571 -0.035657,0.022738 h -5.168e-4 -5.168e-4 -5.167e-4 c -0.0069,0.00167 -0.030844,0.015341 -0.05426,0.032039 -0.023416,0.016698 -0.047246,0.03089 -0.055294,0.032556 h -5.167e-4 -5.168e-4 -5.168e-4 -5.167e-4 c -0.00775,0.00202 -0.029652,0.018994 -0.050126,0.039274 -0.021839,0.021632 -0.062514,0.048207 -0.089917,0.058911 -0.02569,0.010035 -0.049519,0.02234 -0.055811,0.028422 l -5.168e-4,5.167e-4 -5.167e-4,5.168e-4 c -0.011471,0.015638 -0.1313206,0.066663 -0.1565796,0.066663 -0.012385,0 -0.026523,0.00639 -0.031523,0.013953 -0.025069,0.037921 -0.2526268,0.086895 -0.359668,0.077515 -0.089331,-0.00783 -0.1526483,0.012273 -0.1638143,0.052193 v 5.167e-4 l -5.168e-4,5.168e-4 c -1.432e-4,2.633e-4 -8.68e-4,0.00129 -0.00103,0.00155 -0.02626,0.032504 -0.3078953,0.043646 -0.4118612,0.014469 -0.012694,-0.00356 -0.027279,-4.905e-4 -0.032039,0.00672 v 5.168e-4 l -5.168e-4,5.168e-4 c -0.030521,0.029092 -0.3613867,0.00718 -0.3927409,-0.024288 -2.195e-4,-2.634e-4 -8.706e-4,-0.00129 -0.00103,-0.00155 -1.338e-4,-2.657e-4 -8.309e-4,-0.00155 -0.00103,-0.00207 V 8.1819295 8.1814128 8.180896 8.1803792 H 3.6995158 V 8.1798625 L 3.698999,8.1793457 3.6984823,8.1788289 c -0.00493,-0.00401 -0.019871,-0.00723 -0.037207,-0.00723 -0.021338,0 -0.046717,-0.00763 -0.056327,-0.016536 -0.00961,-0.0089 -0.040623,-0.01602 -0.06873,-0.01602 -0.023453,0 -0.038264,-0.00254 -0.044442,-0.00775 -2.451e-4,-2.479e-4 -0.00134,-0.00129 -0.00155,-0.00155 l -5.167e-4,-5.167e-4 v -5.168e-4 c -1.888e-4,-5.051e-4 -4.157e-4,-0.00126 -5.168e-4,-0.00155 -2.017e-4,-9.075e-4 -4.766e-4,-0.00292 -5.168e-4,-0.00413 v -5.168e-4 c 0.005,-0.023041 -0.038675,-0.036468 -0.052193,-0.01602 -0.0072,0.01089 -0.020001,0.013135 -0.03669,0.0062 l -0.025322,-0.010335 0.029456,-0.00517 c 0.021773,-0.0036 0.044921,-0.03539 0.041858,-0.049093 -8.22e-5,-2.593e-4 -4.132e-4,-0.00131 -5.168e-4,-0.00155 L 3.444751,8.0460205 c -1.476e-4,-2.105e-4 -8.777e-4,-0.00136 -0.00103,-0.00155 l -5.167e-4,-5.167e-4 -5.168e-4,-5.168e-4 h -5.167e-4 v -5.168e-4 h -5.168e-4 -5.168e-4 c -8.7e-4,-2.791e-4 -0.00288,-8.416e-4 -0.00413,-0.00103 h -5.168e-4 c -0.018696,0 -0.055294,-0.038823 -0.055294,-0.058911 0,-0.010175 0.012664,-0.018604 0.027905,-0.018604 0.012383,0 0.022833,-0.00404 0.026355,-0.0093 l 5.168e-4,-5.168e-4 c 9.27e-5,-2.102e-4 4.463e-4,-0.00134 5.167e-4,-0.00155 v -5.167e-4 -5.168e-4 -5.168e-4 c 0,-0.00712 -0.00866,-0.012919 -0.019637,-0.012919 -0.010981,0 -0.023712,0.0058 -0.028422,0.012919 -0.00471,0.00712 -0.018447,0.012919 -0.029972,0.012919 -0.035632,0 -0.065503,0.036547 -0.047026,0.057361 0.00976,0.010993 0.01075,0.021128 0.00258,0.025838 -0.02252,0.013012 -0.057361,-0.00724 -0.057361,-0.033073 0,-0.014543 -0.00991,-0.024533 -0.024288,-0.024805 -0.013336,-2.52e-4 -0.039414,-0.00853 -0.057878,-0.018087 l -0.03359,-0.017053 0.029456,-0.00879 c 0.020211,-0.006 0.03839,-6.49e-4 0.057878,0.01757 l 0.028422,0.026872 0.027905,-0.022738 c 0.010634,-0.00847 0.017177,-0.014259 0.01912,-0.018087 9.6e-5,-2.568e-4 4.633e-4,-0.00131 5.168e-4,-0.00155 V 7.9473185 7.9468018 7.946285 L 3.3036743,7.9457682 V 7.9452515 L 3.3031576,7.9447347 3.3026408,7.9442179 H 3.302124 c -0.00224,-0.00119 -0.00657,-0.00268 -0.011369,-0.00362 -0.013076,-0.00255 -0.018969,-0.012287 -0.014469,-0.023254 0.010255,-0.024986 -0.032902,-0.039678 -0.048576,-0.016536 -0.0033,0.00487 -0.00646,0.00867 -0.00827,0.010335 l -5.167e-4,5.168e-4 h -5.168e-4 v 5.167e-4 H 3.2178914 3.2173747 L 3.2168579,7.9116618 H 3.2163411 V 7.911145 7.9106283 c -4.902e-4,-0.00188 -9.994e-4,-0.00536 -0.00103,-0.0093 -2.6e-5,-0.00216 -4.454e-4,-0.00413 -0.00103,-0.00568 V 7.8951253 H 3.2137573 V 7.8946086 7.8940918 L 3.2132406,7.893575 3.2127238,7.8930583 3.212207,7.8925415 3.2116903,7.8920247 C 3.21148,7.8918843 3.2103658,7.8911146 3.21014,7.8909912 h -5.168e-4 c -0.00411,-0.00143 -0.011161,-9.245e-4 -0.01912,0.00207 -0.037737,0.014126 -0.129234,0.020161 -0.146761,0.00982 H 3.0432251 L 3.0427083,7.90236 3.0421916,7.9018433 3.0416748,7.9013265 3.041158,7.9008097 3.0406413,7.900293 v -5.168e-4 -5.168e-4 l -5.168e-4,-5.167e-4 v -5.168e-4 -5.168e-4 h 5.168e-4 v -5.167e-4 -5.168e-4 c 1.466e-4,-2.039e-4 8.664e-4,-0.00135 0.00103,-0.00155 0.00388,-0.0037 0.013976,-0.00767 0.027905,-0.010852 0.0095,-0.00217 0.01503,-0.00407 0.017053,-0.00517 h 5.168e-4 l 5.167e-4,-5.167e-4 v -5.168e-4 h -5.167e-4 c -0.00311,-9.934e-4 -0.017545,-7.375e-4 -0.043925,0.00103 -0.056963,0.00386 -0.07346,-3.395e-4 -0.1012858,-0.026355 -0.018245,-0.017058 -0.040429,-0.030897 -0.049609,-0.031006 -0.00197,-2.34e-5 -0.00352,-6.805e-4 -0.00465,-0.00103 H 2.8871623 2.8866455 L 2.8861287,7.8201945 H 2.885612 V 7.8196777 7.819161 h -5.168e-4 v -5.168e-4 -5.168e-4 l 5.168e-4,-5.167e-4 v -5.168e-4 c 0.00126,-0.00232 0.00512,-0.00551 0.010852,-0.0093 0.00586,-0.00388 0.00962,-0.00716 0.011369,-0.00982 5.9e-5,-1.076e-4 4.136e-4,-0.00122 5.168e-4,-0.00155 l 5.168e-4,-5.167e-4 V 7.7953898 7.794873 7.7943563 7.7938395 L 2.9083496,7.7933228 V 7.792806 l -5.168e-4,-5.168e-4 -5.167e-4,-5.167e-4 c -0.00151,-0.00133 -0.00449,-0.00342 -0.00775,-0.00465 -0.00953,-0.00361 -0.017053,-0.017136 -0.017053,-0.029972 0,-0.028558 -0.06156,-0.069261 -0.1178223,-0.078031 -0.034417,-0.00536 -0.043632,-0.014556 -0.05426,-0.054777 -0.00618,-0.023377 -0.016783,-0.042993 -0.024805,-0.047542 -2.803e-4,-1.234e-4 -0.00156,-8.275e-4 -0.00207,-0.00103 h -5.167e-4 -5.168e-4 c -0.00825,0 -0.022603,-0.010937 -0.031523,-0.024288 -0.00892,-0.013351 -0.03272,-0.028263 -0.053227,-0.033073 -0.020507,-0.00481 -0.046901,-0.017677 -0.058394,-0.028422 -0.011493,-0.010743 -0.028651,-0.016876 -0.038241,-0.013436 -0.00234,8.4e-4 -0.00499,0.00107 -0.00672,0.00103 H 2.4939046 2.4933879 2.4928711 2.4923543 L 2.4918376,7.477063 H 2.4913208 L 2.490804,7.4765462 2.4902873,7.4760295 2.4897705,7.4755127 v -5.168e-4 c -8.86e-5,-2.098e-4 -4.431e-4,-0.00132 -5.168e-4,-0.00155 -7.048e-4,-0.00294 -4.595e-4,-0.00752 0.00103,-0.012919 0.00373,-0.013336 -0.01108,-0.039999 -0.036173,-0.065112 -0.021244,-0.021262 -0.039766,-0.044854 -0.042892,-0.05426 v -5.168e-4 -5.168e-4 -5.167e-4 -5.168e-4 c -4.65e-5,-2.578e-4 -4.262e-4,-0.00125 -5.167e-4,-0.00155 -0.004,-0.00997 -0.027093,-0.036377 -0.054777,-0.061495 -0.030482,-0.027656 -0.055294,-0.061707 -0.055294,-0.075964 0,-0.012029 -0.0046,-0.022433 -0.010335,-0.025321 H 2.2897827 L 2.289266,7.1742391 h -5.168e-4 c -3.309e-4,8.4e-6 -9.29e-4,1.12e-5 -0.00103,0 h -5.168e-4 -5.168e-4 l -5.167e-4,-5.168e-4 h -5.168e-4 l -5.168e-4,-5.167e-4 c -0.00756,-0.00494 -0.019392,-0.026749 -0.026872,-0.05271 -0.017156,-0.059568 -0.04145,-0.088883 -0.074414,-0.088883 -0.032569,0 -0.027665,-0.052818 0.00568,-0.060978 0.016424,-0.00402 0.025639,-0.00987 0.026872,-0.01602 2.41e-5,-2.057e-4 -7.2e-6,-0.00134 0,-0.00155 v -5.168e-4 c -8.01e-4,-0.0062 -0.00921,-0.012788 -0.025322,-0.01757 -0.044197,-0.013114 -0.063083,-0.042302 -0.042375,-0.065629 0.014703,-0.016563 0.012385,-0.026534 -0.012402,-0.057878 -0.016438,-0.020787 -0.029972,-0.044707 -0.029972,-0.053227 0,-2.662e-4 3e-5,-0.00125 0,-0.00155 -0.00178,-0.00996 -0.016763,-0.034436 -0.034623,-0.056327 C 2.0363749,6.6570524 2.0260946,6.599023 2.0510376,6.584611 2.0749596,6.570788 2.0663818,6.541168 2.0220988,6.4843587 1.9844778,6.4360957 1.9802553,6.4216097 1.9859253,6.3649862 c 0.00411,-0.040991 -2.6e-4,-0.074278 -0.011886,-0.090951 -0.010058,-0.014419 -0.016293,-0.041903 -0.013953,-0.061495 0.00175,-0.014694 3.775e-4,-0.027646 -0.0031,-0.033073 L 1.9564697,6.178951 1.955953,6.1784342 1.9554362,6.1779175 1.9549194,6.1774007 1.9544027,6.176884 h -5.168e-4 -5.168e-4 -5.167e-4 c -9.43e-5,-8.4e-6 -0.00121,-3.939e-4 -0.00155,-5.168e-4 H 1.9507853 1.9502686 V 6.1758504 H 1.9497518 L 1.949235,6.1753337 H 1.9487183 V 6.1748169 L 1.9482015,6.1743001 1.9476847,6.1737834 1.947168,6.1732666 v -5.168e-4 c -9.578e-4,-0.00367 -3.324e-4,-0.00966 0.00207,-0.015503 0.00453,-0.011032 -0.00178,-0.022838 -0.014469,-0.027388 -0.015011,-0.00538 -0.022221,-0.024026 -0.022221,-0.057361 0,-0.024344 -0.00597,-0.045599 -0.013953,-0.05271 -5.812e-4,-4.339e-4 -0.00198,-0.00127 -0.00258,-0.00155 l -5.168e-4,-5.168e-4 c -0.00149,-4.866e-4 -0.00348,-9.973e-4 -0.00465,-0.00155 l -5.168e-4,-5.167e-4 c -2.251e-4,-1.854e-4 -0.00135,-0.00135 -0.00155,-0.00155 l -5.168e-4,-5.168e-4 v -5.167e-4 l -5.167e-4,-5.168e-4 -5.168e-4,-5.168e-4 v -5.167e-4 -5.168e-4 c 8.9e-6,-3.219e-4 1.04e-5,-9.09e-4 0,-0.00103 1.564e-4,-0.00506 0.00501,-0.012726 0.014986,-0.023254 0.018815,-0.019851 0.023013,-0.04238 0.018603,-0.1007691 -0.00334,-0.044202 0.00175,-0.09597 0.012919,-0.1255737 l 0.01912,-0.050126 h -0.03669 c -0.011888,0 -0.019763,-4.276e-4 -0.023771,-0.00155 -2.828e-4,-1.053e-4 -0.00132,-3.993e-4 -0.00155,-5.168e-4 l -5.168e-4,-5.168e-4 h -5.168e-4 v -5.167e-4 h -5.167e-4 v -5.168e-4 -5.167e-4 -5.168e-4 -5.168e-4 l 5.167e-4,-5.167e-4 c 0.00154,-0.00236 0.00549,-0.00596 0.011369,-0.010335 0.019629,-0.014614 0.043201,-0.094901 0.039791,-0.135909 -0.00458,-0.055076 0.00656,-0.1641928 0.018603,-0.1824178 0.0049,-0.00741 0.00257,-0.017234 -0.00517,-0.021704 -0.016482,-0.00952 -0.017988,-0.049899 -0.00465,-0.057361 h 5.168e-4 c 2.477e-4,-8.84e-5 0.00129,-4.495e-4 0.00155,-5.168e-4 3.985e-4,-6.81e-5 0.0019,-3.927e-4 0.00258,-5.167e-4 h 5.167e-4 5.168e-4 c 2.322e-4,-9.02e-5 8.187e-4,-3.832e-4 0.00103,-5.168e-4 l 5.168e-4,-5.167e-4 c 0.00597,-0.00586 0.010852,-0.027277 0.010852,-0.051677 0,-0.022823 0.00305,-0.038268 0.00775,-0.043408 l 5.168e-4,-5.167e-4 c 2.182e-4,-1.439e-4 0.00133,-9.447e-4 0.00155,-0.00103 h 5.167e-4 5.168e-4 5.168e-4 5.167e-4 5.168e-4 5.167e-4 5.168e-4 l 5.168e-4,5.168e-4 c 2.483e-4,1.434e-4 8.033e-4,4.048e-4 0.00103,5.168e-4 h 5.168e-4 l 5.167e-4,5.167e-4 h 5.168e-4 5.168e-4 5.167e-4 5.168e-4 5.168e-4 5.167e-4 l 5.168e-4,-5.167e-4 5.168e-4,-5.168e-4 h 5.167e-4 l 5.168e-4,-5.168e-4 c 0.00367,-0.00408 0.00672,-0.014197 0.00672,-0.026872 0,-0.019452 0.00963,-0.045402 0.021704,-0.057878 0.012077,-0.012475 0.025822,-0.046503 0.029972,-0.075448 0.00415,-0.028945 0.015913,-0.059079 0.026355,-0.067179 0.010446,-0.0081 0.01912,-0.025994 0.01912,-0.039791 0,-0.00679 0.00151,-0.013212 0.00362,-0.016536 l 5.167e-4,-5.168e-4 5.168e-4,-5.167e-4 h 5.168e-4 l 5.167e-4,-5.168e-4 5.168e-4,-5.167e-4 h 5.167e-4 l 5.168e-4,-5.168e-4 c 1.897e-4,-3.16e-5 0.00136,1.06e-5 0.00155,0 h 5.168e-4 5.167e-4 5.168e-4 l 5.168e-4,5.168e-4 h 5.167e-4 l 5.168e-4,5.167e-4 h 5.168e-4 c 0.00682,0.00394 0.015457,-0.00118 0.019637,-0.011369 0.003,-0.00731 0.00164,-0.015696 -0.00103,-0.020154 V 4.880839 L 2.1233846,4.8803223 2.1228678,4.8798055 2.1223511,4.8792887 H 2.1218343 L 2.1213175,4.878772 c -0.026635,-0.00965 -0.03044,-0.0625 -0.00517,-0.07028 0.059223,-0.018216 0.1052316,-0.053872 0.1080037,-0.071314 4.41e-5,-5.615e-4 5.44e-5,-0.00206 0,-0.00258 V 4.734078 4.7335612 l -5.167e-4,-5.168e-4 v -5.167e-4 l -5.168e-4,-5.168e-4 c -0.00409,-0.00488 -0.016313,-0.0063 -0.038757,-0.00103 -0.012185,0.00286 -0.021197,0.00401 -0.025838,0.0031 H 2.1580078 L 2.157491,4.7335612 2.1569743,4.7330444 2.1564575,4.7325277 2.1559408,4.7320109 H 2.155424 v -5.168e-4 l -5.168e-4,-5.167e-4 -5.167e-4,-5.168e-4 v -5.168e-4 -5.167e-4 c -8.02e-5,-0.0023 0.001,-0.00595 0.00258,-0.00982 0.00442,-0.01077 0.018933,-0.019637 0.032039,-0.019637 0.00618,0 0.01073,-0.00117 0.013953,-0.00362 2.703e-4,-2.462e-4 0.0013,-0.00128 0.00155,-0.00155 0.00407,-0.00531 0.00524,-0.01537 0.0031,-0.030489 -0.00387,-0.027398 0.00762,-0.048175 0.050643,-0.09095 0.024994,-0.024854 0.046634,-0.043738 0.053743,-0.047542 l 5.167e-4,-5.167e-4 h 5.168e-4 l 5.168e-4,-5.168e-4 h 5.167e-4 v 5.168e-4 h 5.168e-4 v 5.167e-4 5.168e-4 h 5.168e-4 5.167e-4 c 0.00453,-0.00177 0.018701,-0.014865 0.034623,-0.032556 0.017221,-0.019137 0.028158,-0.040474 0.027389,-0.050126 v -5.168e-4 -5.167e-4 -5.168e-4 h -5.167e-4 v -5.167e-4 -5.168e-4 c -9.375e-4,-0.00142 -0.00214,-0.00339 -0.00258,-0.00465 v -5.168e-4 c 1.17e-5,-3.267e-4 1.58e-5,-9.205e-4 0,-0.00103 v -5.167e-4 l 5.167e-4,-5.168e-4 v -5.168e-4 -5.167e-4 -5.168e-4 l 5.168e-4,-5.168e-4 v -5.167e-4 l 5.168e-4,-5.168e-4 h 5.167e-4 l 5.168e-4,-5.168e-4 c 2.388e-4,-1.683e-4 0.00128,-8.895e-4 0.00155,-0.00103 0.00151,-6.86e-4 0.0036,-0.00103 0.00568,-0.00103 0.00889,0 0.012875,-0.00858 0.00879,-0.018603 -0.00474,-0.011552 0.00731,-0.02361 0.033073,-0.03359 0.019555,-0.00757 0.035985,-0.017508 0.039791,-0.023254 l 5.168e-4,-5.168e-4 v -5.167e-4 -5.168e-4 l 5.168e-4,-5.168e-4 v -5.167e-4 c 0.00144,-0.00628 0.01345,-0.023692 0.027905,-0.039274 0.01446,-0.015582 0.024279,-0.033911 0.023254,-0.042375 V 4.2679565 4.2674398 4.266923 c -0.0027,-0.00756 0.0033,-0.021526 0.013436,-0.031006 0.010143,-0.00948 0.018087,-0.031827 0.018087,-0.049609 0,-0.011618 0.00253,-0.020216 0.00568,-0.024288 2.612e-4,-1.788e-4 0.00126,-8.897e-4 0.00155,-0.00103 0.00437,-0.00183 0.011377,-0.0012 0.02067,0.00155 0.00908,0.00269 0.015772,0.00352 0.020154,0.00207 5.843e-4,-2.532e-4 0.00208,-0.0012 0.00258,-0.00155 l 5.167e-4,-5.168e-4 5.168e-4,-5.167e-4 c 0.00233,-0.00293 0.00411,-0.00837 0.00413,-0.014986 5.2e-5,-0.012947 0.021642,-0.037442 0.048059,-0.05426 0.052677,-0.033537 0.110304,-0.081333 0.1173055,-0.096635 l 5.168e-4,-5.168e-4 V 3.995105 c -1.12e-5,-3.353e-4 -1.5e-5,-9.44e-4 0,-0.00103 v -5.168e-4 -5.168e-4 c 0.00107,-0.00503 0.010471,-0.016853 0.021187,-0.026872 0.011433,-0.010686 0.020671,-0.029983 0.020671,-0.042892 0,-0.012909 0.011747,-0.026402 0.026355,-0.029972 0.014608,-0.00357 0.038224,-0.026913 0.052193,-0.051676 0.031844,-0.056451 0.1028312,-0.1389673 0.1881022,-0.2185913 0.035066,-0.032744 0.063858,-0.065801 0.065629,-0.074931 v -5.167e-4 c 0,-0.00781 0.00976,-0.017604 0.021187,-0.021704 0.011433,-0.0041 0.020671,-0.01775 0.020671,-0.030489 0,-0.012738 0.015615,-0.036965 0.03514,-0.053743 0.019525,-0.016778 0.053646,-0.046554 0.075448,-0.066146 0.021121,-0.01898 0.044637,-0.034698 0.053227,-0.035657 h 5.168e-4 5.168e-4 5.167e-4 c 2.54e-4,-8.33e-5 0.00129,-3.933e-4 0.00155,-5.167e-4 2.603e-4,-1.625e-4 0.00129,-8.475e-4 0.00155,-0.00103 0.00688,-0.00617 0.014825,-0.025319 0.018604,-0.047025 0.00465,-0.026716 0.020904,-0.070791 0.035657,-0.098185 0.01429,-0.026537 0.022141,-0.054479 0.018087,-0.063045 l -5.167e-4,-5.168e-4 c -9.585e-4,-0.00145 -0.00164,-0.00308 -0.00207,-0.00413 V 3.1248739 H 3.4251139 V 3.1243571 3.1238403 3.1233236 3.1228068 3.12229 h 5.168e-4 v -5.167e-4 h 5.168e-4 5.167e-4 5.168e-4 c 0.00144,1.893e-4 0.00356,0.00106 0.0062,0.00258 2.578e-4,1.489e-4 7.851e-4,3.923e-4 0.00103,5.168e-4 h 5.168e-4 l 5.167e-4,5.167e-4 h 5.168e-4 5.167e-4 5.168e-4 c 0.00744,8.224e-4 0.016561,-0.00649 0.020671,-0.018603 0.00487,-0.014352 0.016358,-0.025838 0.025838,-0.025838 0.018365,0 0.078031,-0.068363 0.078031,-0.0894 v -5.168e-4 c 0.00181,-0.00768 0.017178,-0.024652 0.035657,-0.038241 0.015994,-0.011765 0.026847,-0.025993 0.027905,-0.034623 1.08e-5,-3.159e-4 -1e-5,-0.00157 0,-0.00207 v -5.168e-4 c -8.26e-5,-2.63e-4 -4.018e-4,-0.00131 -5.167e-4,-0.00155 v -5.167e-4 l -5.168e-4,-5.168e-4 v -5.168e-4 c -9.56e-5,-2.63e-4 -4.466e-4,-0.00127 -5.168e-4,-0.00155 -0.00126,-0.00838 0.00709,-0.023995 0.020671,-0.03669 0.015519,-0.014509 0.027905,-0.035305 0.027905,-0.045992 0,-0.01069 0.00633,-0.019637 0.013953,-0.019637 h 5.168e-4 c 3.293e-4,8.1e-6 9.29e-4,2.15e-5 0.00103,0 h 5.168e-4 c 0.0063,-0.00235 0.011886,-0.012705 0.011886,-0.024805 0,-0.013828 0.00633,-0.02919 0.013953,-0.03359 0.00761,-0.0044 0.013436,-0.018759 0.013436,-0.032039 0,-0.01328 0.019528,-0.04172 0.042891,-0.063562 0.020443,-0.019113 0.034657,-0.039568 0.03514,-0.048576 -9.5e-6,-1.465e-4 -9.4e-6,-7.257e-4 0,-0.00103 v -5.168e-4 -5.168e-4 l -5.168e-4,-5.167e-4 v -5.168e-4 l -5.168e-4,-5.168e-4 v -5.167e-4 c -0.00216,-0.00675 0.00315,-0.01838 0.013436,-0.026355 0.01135,-0.0088 0.020671,-0.030087 0.020671,-0.047026 0,-0.019378 0.00799,-0.030489 0.021704,-0.030489 0.01325,0 0.019873,-0.00905 0.017053,-0.022738 -0.00255,-0.012386 0.00673,-0.034245 0.020154,-0.048576 0.059402,-0.063414 0.065629,-0.072591 0.065629,-0.090951 0,-0.01069 0.00673,-0.01912 0.014986,-0.01912 0.00826,0 0.012215,-0.00763 0.00879,-0.016536 -0.00345,-0.00891 0.00325,-0.026166 0.014986,-0.038757 0.012746,-0.013673 0.022688,-0.051738 0.024288,-0.094568 0.00213,-0.057123 0.010001,-0.079144 0.038241,-0.1069702 0.026114,-0.025728 0.033275,-0.043669 0.027905,-0.069246 -0.00508,-0.024203 0.00139,-0.043696 0.021704,-0.064079 0.019051,-0.019118 0.029456,-0.046273 0.029456,-0.078548 0,-0.031559 0.00645,-0.04743 0.017053,-0.050126 h 5.167e-4 z m -0.324528,1.4097331 c -0.1053841,-0.00433 -0.3028239,0.085235 -0.3028239,0.1570963 0,0.02188 -0.053034,0.066146 -0.079065,0.066146 -0.028795,0 -0.072785,0.039006 -0.099735,0.08785 -0.00768,0.013906 -0.019945,0.022395 -0.028422,0.021704 h -5.167e-4 -5.168e-4 c -5.715e-4,-1.978e-4 -0.00205,-7.413e-4 -0.00258,-0.00103 -0.00278,-0.0016 -0.00471,-0.00237 -0.0062,-0.00258 h -5.167e-4 -5.168e-4 -5.168e-4 l -5.167e-4,5.167e-4 v 5.168e-4 h -5.168e-4 v 5.168e-4 5.167e-4 l 5.168e-4,5.168e-4 c 5.022e-4,0.00133 0.00132,0.00326 0.00258,0.00517 0.00511,0.00773 0.00309,0.017741 -0.00465,0.022221 -0.00775,0.00447 -0.01446,0.018442 -0.014469,0.030489 -1e-5,0.012047 -0.015581,0.038728 -0.034623,0.059428 -0.019042,0.0207 -0.034623,0.04503 -0.034623,0.05426 v 5.168e-4 c -0.00261,0.01133 -0.044959,0.059561 -0.096635,0.1090373 -0.051676,0.049477 -0.094541,0.094814 -0.097152,0.1028361 v 5.167e-4 c 0,0.00577 -0.00828,0.018495 -0.018087,0.027905 -0.00981,0.00942 -0.028308,0.043388 -0.041341,0.075448 -0.013033,0.03206 -0.056613,0.09097 -0.096635,0.1312581 -0.091834,0.092445 -0.1074869,0.1108018 -0.1074869,0.1255738 0,0.00655 -0.00905,0.018778 -0.020154,0.027388 -0.025953,0.020137 -0.1317749,0.2219594 -0.1317749,0.2511474 0,0.012217 -0.011847,0.043847 -0.025838,0.07028 -0.013991,0.026433 -0.039486,0.085983 -0.056844,0.1322917 -0.017359,0.046309 -0.040953,0.1038567 -0.052193,0.1276407 -0.051432,0.1088292 0.020466,0.4303409 0.1049031,0.4697388 0.020245,0.00945 0.046138,0.024106 0.057878,0.033073 0.01174,0.00897 0.058543,0.033919 0.1038697,0.055294 l 0.082682,0.038757 0.1979208,-0.00413 c 0.1590936,-0.00346 0.2026274,-0.00832 0.2227254,-0.025321 0.013752,-0.011635 0.037035,-0.021143 0.051676,-0.021187 0.014641,-4.4e-5 0.044319,-0.00899 0.066146,-0.019637 0.021827,-0.01064 0.059167,-0.01912 0.083199,-0.01912 0.024032,0 0.067049,-0.014745 0.095085,-0.032556 0.026285,-0.016698 0.054636,-0.030871 0.064595,-0.032556 h 5.168e-4 5.167e-4 5.168e-4 c 2.444e-4,-6.61e-5 0.00131,-4.188e-4 0.00155,-5.168e-4 h 5.168e-4 5.167e-4 v -5.167e-4 h 5.168e-4 c 0.00593,-0.0049 0.010852,-0.019975 0.010852,-0.037207 0,-0.026838 0.010515,-0.045177 0.034623,-0.059945 0.040345,-0.024714 0.044934,-0.054211 0.010335,-0.066146 -0.045366,-0.015648 -0.042907,-0.081411 0.0031,-0.081649 0.079671,-4.115e-4 0.17722,-0.073773 0.135909,-0.1023193 -0.012959,-0.00896 -0.020121,-0.053202 -0.020154,-0.1245403 -1.25e-5,-0.017814 -0.00125,-0.030631 -0.0031,-0.035657 V 4.8255452 L 3.7909831,4.8250285 V 4.8245117 L 3.7904663,4.823995 H 3.7899495 3.7894328 3.788916 v 5.167e-4 l -5.167e-4,5.168e-4 -5.168e-4,5.167e-4 v 5.168e-4 c -0.00382,0.0089 -0.013024,0.016536 -0.020154,0.016536 -2.775e-4,0 -0.00128,2.51e-5 -0.00155,0 h -5.168e-4 -5.167e-4 l -5.168e-4,-5.168e-4 c -2.711e-4,-1.311e-4 -0.0013,-8.859e-4 -0.00155,-0.00103 L 3.762561,4.8405314 3.7620443,4.8400146 c -1.793e-4,-2.478e-4 -8.908e-4,-0.00128 -0.00103,-0.00155 -0.00731,-0.016244 0.016188,-0.07043 0.043925,-0.090434 0.034746,-0.025057 0.03279,-0.043704 -0.00982,-0.1012858 -0.016638,-0.022487 -0.026152,-0.062324 -0.028422,-0.1198893 -0.00289,-0.073053 -0.00683,-0.085783 -0.027905,-0.085783 -0.011965,0 -0.023042,-0.00334 -0.026355,-0.00775 V 4.4328044 L 3.7119181,4.4322876 V 4.4317708 L 3.7114014,4.4312541 C 3.7034774,4.3957581 3.6984676,4.3400827 3.6912476,4.2224813 3.6873597,4.1591669 3.6809075,4.11774 3.6752279,4.1067261 L 3.6747111,4.1062093 V 4.1056925 4.1051758 L 3.6741943,4.104659 H 3.6736776 V 4.1041423 H 3.6731608 3.672644 3.6721273 v 5.167e-4 h -5.168e-4 v 5.168e-4 h -5.168e-4 l -5.167e-4,5.167e-4 c -0.00245,0.00361 -0.00446,0.00666 -0.0062,0.00827 -2.74e-4,2.039e-4 -0.00129,9.097e-4 -0.00155,0.00103 h -5.167e-4 v 5.168e-4 H 3.661792 3.6612752 3.6607585 l -5.168e-4,-5.168e-4 h -5.168e-4 v -5.168e-4 l -5.167e-4,-5.167e-4 c -0.00321,-0.00555 -0.0048,-0.024847 -0.00672,-0.063562 -9.28e-4,-0.018715 -0.00989,-0.043214 -0.020154,-0.054777 -0.00614,-0.00692 -0.0096,-0.012087 -0.010335,-0.015503 l -5.167e-4,-5.167e-4 v -5.168e-4 -5.168e-4 l 5.167e-4,-5.167e-4 V 3.977535 3.9770182 l 5.168e-4,-5.167e-4 5.168e-4,-5.168e-4 h 5.167e-4 l 5.168e-4,-5.168e-4 c 0.00128,-4.554e-4 0.00355,-0.00103 0.00568,-0.00103 0.01923,0 0.08015,-0.061903 0.091467,-0.093018 0.00437,-0.01201 0.018545,-0.024198 0.031523,-0.027388 0.00258,-6.337e-4 0.00448,-0.00147 0.00568,-0.00207 l 5.168e-4,-5.168e-4 h 5.167e-4 v -5.168e-4 h 5.168e-4 V 3.850411 3.8498942 h -5.168e-4 v -5.168e-4 h -5.167e-4 l -5.168e-4,-5.167e-4 c -0.00331,-0.00104 -0.010447,-0.00169 -0.020154,-0.00207 -0.04107,-0.00162 -0.044227,-0.00977 -0.038757,-0.098702 0.00197,-0.032081 0.012481,-0.062876 0.020154,-0.07028 l 5.168e-4,-5.168e-4 5.167e-4,-5.167e-4 5.168e-4,-5.168e-4 h 5.168e-4 5.167e-4 5.168e-4 5.167e-4 5.168e-4 l 5.168e-4,5.168e-4 5.167e-4,5.167e-4 5.168e-4,5.168e-4 v 5.168e-4 h 5.168e-4 v 5.167e-4 c 0.00105,0.00289 0.00155,0.00841 0.00155,0.015503 0,0.00705 0.00222,0.011984 0.00517,0.014469 l 5.168e-4,5.168e-4 5.167e-4,5.168e-4 h 5.168e-4 l 5.168e-4,5.167e-4 h 5.167e-4 5.168e-4 c 2.027e-4,1.12e-5 0.00134,8.3e-6 0.00155,0 h 5.167e-4 5.168e-4 c 4.922e-4,-1.539e-4 0.00192,-7.474e-4 0.00258,-0.00103 0.00729,-0.00421 0.00997,-0.016414 0.00568,-0.026872 -0.00203,-0.00494 -0.00211,-0.010097 -0.00103,-0.013436 v -5.168e-4 l 5.168e-4,-5.167e-4 5.167e-4,-5.168e-4 c 1.695e-4,-2.452e-4 8.517e-4,-0.00133 0.00103,-0.00155 l 5.167e-4,-5.168e-4 h 5.168e-4 l 5.168e-4,-5.167e-4 c 0.00121,-5.58e-4 0.00307,-0.00103 0.00465,-0.00103 0.00844,0 0.015503,-0.00922 0.015503,-0.020154 0,-0.010937 0.00962,-0.033913 0.021704,-0.05116 0.011332,-0.016169 0.017317,-0.034996 0.013953,-0.043408 v -5.168e-4 h -5.168e-4 v -5.168e-4 -5.167e-4 c -0.00138,-0.00209 -0.00233,-0.00452 -0.00258,-0.0062 v -5.168e-4 -5.167e-4 -5.168e-4 l 5.168e-4,-5.168e-4 v -5.167e-4 -5.168e-4 l 5.168e-4,-5.167e-4 v -5.168e-4 l 5.167e-4,-5.168e-4 5.168e-4,-5.167e-4 5.167e-4,-5.168e-4 c 0.00163,-8.939e-4 0.00437,-0.00155 0.00672,-0.00155 h 5.167e-4 5.168e-4 5.168e-4 c 2.515e-4,-5.97e-5 0.00131,-4.378e-4 0.00155,-5.168e-4 h 5.167e-4 c 2.122e-4,-1.164e-4 0.00135,-9.128e-4 0.00155,-0.00103 l 5.168e-4,-5.168e-4 5.168e-4,-5.167e-4 5.167e-4,-5.168e-4 5.168e-4,-5.167e-4 c 0.00262,-0.00441 0.00274,-0.012631 -5.168e-4,-0.022221 -0.00657,-0.019338 -2.51e-4,-0.02971 0.025838,-0.040824 0.028827,-0.012281 0.033442,-0.020959 0.026872,-0.051676 -0.00324,-0.015141 -0.00376,-0.02489 -0.00103,-0.030489 3.672e-4,-6.052e-4 0.00161,-0.00208 0.00207,-0.00258 2.544e-4,-2.264e-4 0.00127,-8.457e-4 0.00155,-0.00103 0.00273,-0.00161 0.00708,-0.0031 0.011886,-0.0031 0.041763,0 0.046162,-0.1069177 0.0062,-0.1519287 -0.010971,-0.012359 -0.030458,-0.018638 -0.054777,-0.019637 z M 3.293339,4.0509155 c 0.018639,-3.877e-4 0.039824,0.00587 0.056844,0.019637 0.017146,0.013865 0.031006,0.036361 0.031006,0.049609 0,0.013247 0.011996,0.045397 0.026355,0.07183 0.029097,0.053564 0.051169,0.1483984 0.064079,0.2749186 0.00473,0.046309 0.017625,0.1454834 0.028939,0.2206584 0.01493,0.099183 0.01664,0.1524816 0.00672,0.1937866 -0.00706,0.02935 -0.00966,0.058222 -0.00672,0.066663 v 5.168e-4 l 5.168e-4,5.167e-4 v 5.168e-4 h 5.168e-4 v 5.167e-4 5.168e-4 c 2.6e-5,2.653e-4 -1.4e-6,0.00126 0,0.00155 -6.886e-4,0.00959 -0.012197,0.031156 -0.028939,0.051676 -0.019704,0.024152 -0.036173,0.052994 -0.036173,0.063562 0,0.010568 -0.00468,0.020884 -0.010852,0.023254 h -5.168e-4 l -5.167e-4,5.168e-4 c -0.01705,0.012857 -0.084749,0.1402692 -0.084749,0.1607137 v 5.168e-4 l -5.167e-4,5.167e-4 c -0.00481,0.0093 -0.044795,0.028168 -0.093018,0.042375 -0.090474,0.026657 -0.2239944,0.043142 -0.2666504,0.033073 -0.01143,-0.0027 -0.051168,-0.00892 -0.08785,-0.013436 -0.032621,-0.00402 -0.049323,-0.0079 -0.05426,-0.013436 l -5.168e-4,-5.168e-4 -5.167e-4,-5.167e-4 v -5.168e-4 l -5.168e-4,-5.168e-4 v -5.167e-4 -5.168e-4 -5.168e-4 c 4.39e-5,-4.549e-4 3.487e-4,-0.00191 5.168e-4,-0.00258 5.361e-4,-9.933e-4 0.00162,-0.00305 0.00258,-0.00413 0.00986,-0.01111 0.00217,-0.021626 -0.026872,-0.037207 -0.017456,-0.00937 -0.032522,-0.013656 -0.038241,-0.011886 h -5.168e-4 l -5.167e-4,5.168e-4 h -5.168e-4 v 5.167e-4 h -5.168e-4 v 5.168e-4 5.167e-4 l -5.167e-4,5.168e-4 v 5.168e-4 5.167e-4 5.168e-4 5.168e-4 h -5.168e-4 v 5.167e-4 h -5.168e-4 v 5.168e-4 c -1.835e-4,8.11e-5 -0.00134,4.545e-4 -0.00155,5.168e-4 h -5.167e-4 c -0.00554,5.502e-4 -0.017129,-0.0033 -0.029456,-0.010852 -0.026028,-0.015947 -0.031829,-0.029611 -0.028939,-0.068213 0.00199,-0.026585 0.00508,-0.090458 0.00672,-0.1421102 0.00144,-0.045347 0.0076,-0.084378 0.013436,-0.093018 l 5.168e-4,-5.168e-4 h 5.167e-4 v -5.168e-4 h 5.168e-4 c 2.088e-4,0 8.411e-4,2.53e-5 0.00103,0 h 5.168e-4 5.168e-4 L 2.7342,4.9325155 2.7347168,4.9319987 c 0.00496,-0.0037 0.00921,-0.014881 0.0093,-0.027905 6.09e-5,-0.00838 8.094e-4,-0.014218 0.00207,-0.017053 l 5.168e-4,-5.168e-4 v -5.167e-4 l 5.167e-4,-5.168e-4 h 5.168e-4 v -5.168e-4 h 5.168e-4 5.167e-4 5.168e-4 5.168e-4 l 5.167e-4,5.168e-4 c 0.00148,0.00105 0.00363,0.00318 0.00568,0.0062 v 5.167e-4 l 5.168e-4,5.168e-4 h 5.168e-4 v 5.168e-4 l 5.167e-4,5.167e-4 h 5.168e-4 l 5.168e-4,5.168e-4 5.167e-4,5.168e-4 h 5.168e-4 5.167e-4 5.168e-4 5.168e-4 5.167e-4 5.168e-4 c 2.462e-4,-1.247e-4 0.0013,-8.835e-4 0.00155,-0.00103 0.013158,-0.010597 0.031394,-0.074377 0.042891,-0.1581298 0.0068,-0.04953 0.013517,-0.061495 0.03514,-0.061495 0.012004,0 0.022424,-0.00362 0.025838,-0.00827 v -5.168e-4 l 5.168e-4,-5.168e-4 5.168e-4,-5.167e-4 V 4.663798 4.6632812 4.6627645 4.6622477 4.661731 4.6612142 l 5.167e-4,-5.168e-4 c 0.0026,-0.00584 0.014053,-0.013273 0.027388,-0.016536 0.032108,-0.00785 0.036875,-0.045185 0.00723,-0.055811 -0.00524,-0.00188 -0.00865,-0.00389 -0.010335,-0.0062 V 4.5816325 H 2.8928467 V 4.5811157 4.580599 l -5.168e-4,-5.168e-4 v -5.168e-4 -5.167e-4 c 2.808e-4,-0.00493 0.00606,-0.012733 0.01757,-0.024288 0.014341,-0.014391 0.022673,-0.034015 0.018603,-0.043925 -0.00407,-0.00991 -2.05e-4,-0.018087 0.00879,-0.018087 0.037453,0 0.1342286,-0.078894 0.1653646,-0.1348755 l 0.033073,-0.059945 -0.022738,-0.023254 c -0.041844,-0.043228 0.0086,-0.092295 0.077515,-0.075448 0.015378,0.00376 0.024288,-0.00105 0.024288,-0.012919 0,-0.010466 -0.010435,-0.017806 -0.023771,-0.016536 -0.013336,0.00127 -0.029647,0.00134 -0.035657,5.168e-4 -2.634e-4,-6.52e-5 -0.00132,-4.284e-4 -0.00155,-5.168e-4 H 3.1532959 V 4.1692546 H 3.1527791 L 3.1522624,4.1687378 V 4.168221 L 3.1517456,4.1677043 V 4.1671875 4.1666707 4.166154 4.1656372 c 0.00405,-0.013946 0.050267,-0.050712 0.072347,-0.053743 0.014754,-0.00203 0.025322,-0.014282 0.025322,-0.028422 0,-0.02049 0.019961,-0.032055 0.043925,-0.032556 z" /><path
       style="fill:#ffffff;stroke-width:1"
       d="M 14.453137,31.027769 C 14.28675,31.00589 13.737715,30.848871 13.6387,30.794848 c -0.04151,-0.02265 -0.143519,-0.04118 -0.226678,-0.04118 -0.106711,0 -0.164889,-0.02558 -0.197726,-0.08694 -0.02559,-0.04781 -0.08533,-0.08694 -0.132762,-0.08694 -0.06938,0 -0.0811,-0.02044 -0.05999,-0.104572 0.02003,-0.07979 0.0057,-0.111084 -0.06036,-0.132059 -0.165575,-0.05255 -0.158085,-0.189769 0.01403,-0.257111 0.0278,-0.01088 0.02611,-0.03554 -0.0047,-0.06842 -0.03678,-0.03927 -0.09838,-0.02726 -0.260809,0.05085 -0.184179,0.08857 -0.211508,0.118378 -0.204095,0.222595 0.0065,0.09189 -0.0088,0.116996 -0.0647,0.106222 -0.111886,-0.02155 -0.115153,-0.160987 -0.0065,-0.276663 0.08608,-0.09163 0.08906,-0.106852 0.02567,-0.131177 -0.03944,-0.01514 -0.07171,-0.06543 -0.07171,-0.111768 0,-0.07585 -0.02492,-0.0823 -0.249942,-0.06471 -0.137468,0.01074 -0.328184,0.0324 -0.423813,0.04813 -0.162738,0.02676 -0.16847,0.02424 -0.0895,-0.0393 0.07929,-0.0638 0.07159,-0.0679 -0.127714,-0.0679 -0.214689,0 -0.499063,-0.138434 -0.499717,-0.243263 -5.74e-4,-0.09211 -0.137722,-0.321813 -0.231508,-0.387741 -0.05214,-0.03665 -0.169631,-0.08687 -0.261093,-0.111592 -0.131221,-0.03547 -0.180056,-0.07789 -0.231551,-0.201136 -0.08333,-0.199428 -0.185221,-0.284922 -0.5467253,-0.45873 C 9.5659419,28.274079 9.4339076,28.190697 9.4334342,28.166146 9.4323194,28.10834 9.1197107,27.689315 8.9316603,27.49356 8.8512774,27.409884 8.7043065,27.178787 8.6050584,26.98001 8.4887754,26.747116 8.3874222,26.601656 8.3200372,26.570954 8.1927683,26.512966 8.1853815,26.426018 8.3024032,26.36339 8.4234326,26.298617 8.4111796,26.246513 8.2560538,26.166294 8.139994,26.106277 8.1263809,26.080921 8.150721,25.970102 8.170944,25.878022 8.153711,25.807776 8.0884,25.716056 8.03875,25.646326 7.99777,25.572738 7.997335,25.552521 7.9968999,25.532301 7.938218,25.429686 7.8669308,25.324482 7.7364335,25.131898 7.7003146,24.956944 7.7807858,24.90721 7.8568478,24.8602 7.8282138,24.747115 7.6829828,24.520956 7.5721268,24.348327 7.5354506,24.235205 7.5126309,23.995533 7.4693209,23.54065 7.4012861,23.231743 7.3261192,23.148684 c -0.036823,-0.04069 -0.068325,-0.12134 -0.070005,-0.179226 -0.00168,-0.05789 -0.017901,-0.143169 -0.036046,-0.189517 -0.019703,-0.05033 -0.00768,-0.135014 0.029862,-0.21026 0.038484,-0.07714 0.053232,-0.185282 0.038038,-0.278911 -0.023584,-0.145333 0.01805,-0.468532 0.081517,-0.632799 0.022284,-0.05768 0.00725,-0.07607 -0.062197,-0.07607 -0.1091696,0 -0.1082034,0.0069 -0.026385,-0.188902 0.035861,-0.08583 0.065202,-0.271373 0.065202,-0.412322 0,-0.14095 0.019367,-0.358393 0.043037,-0.483208 0.028071,-0.148019 0.028265,-0.254538 5.562e-4,-0.306313 -0.029924,-0.05591 -0.023452,-0.115862 0.021897,-0.20281 0.035408,-0.06789 0.064499,-0.167446 0.064646,-0.221238 1.473e-4,-0.05379 0.019829,-0.0978 0.043736,-0.0978 0.023907,0 0.043468,-0.0417 0.043468,-0.09267 0,-0.05097 0.037011,-0.153663 0.082247,-0.228207 0.045236,-0.07454 0.096595,-0.203219 0.1141311,-0.285944 0.038792,-0.182997 0.1889353,-0.479878 0.2426914,-0.479878 0.05331,0 0.049671,-0.162195 -0.00439,-0.195606 -0.095809,-0.05921 -0.03181,-0.150419 0.1956063,-0.278765 0.2616701,-0.147678 0.3121342,-0.261504 0.1195373,-0.269629 -0.065745,-0.0028 -0.087649,-0.01354 -0.048674,-0.02392 0.043299,-0.01153 0.081372,-0.08459 0.097879,-0.187824 0.022133,-0.138412 0.078326,-0.214275 0.310908,-0.41974 0.1561407,-0.137936 0.2951518,-0.295654 0.3089134,-0.350485 0.013762,-0.05483 0.042461,-0.09969 0.063777,-0.09969 0.021316,0 0.038756,-0.0378 0.038756,-0.08401 0,-0.0463 0.039685,-0.0966 0.088407,-0.112066 0.048624,-0.01543 0.1283609,-0.07054 0.1771938,-0.122467 0.1052813,-0.111945 0.2994846,-0.507084 0.2994846,-0.609351 0,-0.04769 0.036569,-0.07187 0.1086702,-0.07187 0.06658,0 0.1086702,-0.02472 0.1086702,-0.06383 0,-0.03511 0.1026934,-0.139737 0.2282083,-0.232511 0.270639,-0.200043 0.554218,-0.503914 0.554218,-0.593877 0,-0.03524 0.05001,-0.09684 0.11113,-0.13689 0.06112,-0.04005 0.171675,-0.162754 0.245673,-0.272678 0.074,-0.109924 0.302729,-0.378031 0.50829,-0.595793 0.448781,-0.47542 0.485559,-0.519002 0.569875,-0.675305 0.06456,-0.119682 0.549432,-0.558817 0.617017,-0.558817 0.01896,0 0.03448,-0.02019 0.03448,-0.04487 0,-0.02468 0.06071,-0.202294 0.134909,-0.3947 0.109172,-0.283093 0.179658,-0.392245 0.369479,-0.572162 0.129013,-0.122283 0.23457,-0.246438 0.23457,-0.2759 0,-0.02946 0.04512,-0.08922 0.100276,-0.132793 0.09002,-0.07112 0.148949,-0.163296 0.307495,-0.480964 0.02675,-0.05361 0.06331,-0.09762 0.08125,-0.0978 0.01793,-1.87e-4 0.0326,-0.02554 0.0326,-0.05635 0,-0.07073 0.149493,-0.366183 0.232712,-0.459929 0.09727,-0.109574 0.288905,-0.4710797 0.288905,-0.5449962 0,-0.036396 0.03912,-0.087112 0.08694,-0.1127014 0.04781,-0.02559 0.08694,-0.076778 0.08694,-0.1137511 0,-0.036973 0.06511,-0.1487588 0.14468,-0.2484121 0.198181,-0.2481896 0.367407,-0.6295016 0.40232,-0.9065361 0.01744,-0.1383696 0.07046,-0.2864178 0.132265,-0.3693205 0.05674,-0.076104 0.10316,-0.1957201 0.10316,-0.2658134 0,-0.070093 0.04107,-0.1796588 0.09127,-0.2434788 0.0502,-0.06382 0.101742,-0.1940789 0.114535,-0.2894643 0.01279,-0.095385 0.03997,-0.1837521 0.06038,-0.1963704 0.07424,-0.04588 0.290427,0.3824089 0.423712,0.8393987 0.07507,0.2573844 0.136375,0.502499 0.136238,0.5446992 -1.3e-4,0.0422 0.05646,0.1791246 0.125777,0.3042765 0.06931,0.1251519 0.140342,0.2764505 0.15784,0.3362191 0.0175,0.059769 0.07202,0.1657214 0.121167,0.2354507 0.04914,0.069729 0.168831,0.2848963 0.265973,0.4781489 0.23865,0.4747662 0.542637,0.9233502 0.865096,1.2765942 0.263824,0.289011 0.564942,0.684574 0.721636,0.947977 0.09153,0.153862 0.837818,0.791351 1.276031,1.090003 0.162468,0.110726 0.367854,0.298205 0.456415,0.416621 0.08856,0.118416 0.219699,0.282511 0.291422,0.364655 0.07172,0.08215 0.198866,0.237346 0.282542,0.34489 0.08368,0.107545 0.244725,0.302223 0.357886,0.432618 0.113161,0.130395 0.233514,0.303537 0.267452,0.384761 0.03394,0.08122 0.132067,0.225563 0.218066,0.320754 0.086,0.09519 0.156362,0.196459 0.156362,0.225041 0,0.02858 0.04977,0.117217 0.110598,0.196968 0.06083,0.07975 0.215782,0.352014 0.344341,0.605029 0.128558,0.253015 0.271543,0.5141 0.317744,0.580189 0.0462,0.06609 0.09808,0.178211 0.115277,0.249161 0.0172,0.07095 0.0775,0.227435 0.133997,0.347744 0.129558,0.275894 0.26633,0.653784 0.304422,0.841093 0.01613,0.07931 0.0567,0.196674 0.09016,0.260809 0.03346,0.06414 0.06096,0.166048 0.06111,0.226474 1.31e-4,0.06043 0.02894,0.150801 0.06398,0.200832 0.03504,0.05003 0.0833,0.166858 0.107235,0.259614 0.02394,0.09276 0.112302,0.410539 0.196372,0.706186 0.188209,0.661879 0.241778,1.071522 0.239349,1.830331 -0.0037,1.143331 -0.06106,1.660223 -0.251147,2.26148 -0.09448,0.298843 -0.244132,0.866101 -0.332563,1.260574 -0.210749,0.940104 -0.44473,1.632711 -0.763426,2.25982 -0.142615,0.280629 -0.259301,0.561126 -0.259301,0.623327 0,0.06842 -0.03417,0.131381 -0.08651,0.159391 -0.04758,0.02547 -0.168687,0.158187 -0.269126,0.294939 -0.225791,0.307427 -0.430361,0.531182 -0.485635,0.531182 -0.02299,0 -0.141403,0.0753 -0.263149,0.167331 -0.121745,0.09203 -0.336569,0.231959 -0.477385,0.31095 -0.140816,0.07899 -0.316862,0.196899 -0.391213,0.262019 -0.1643,0.143904 -0.968725,0.563743 -1.080147,0.563743 -0.04403,0 -0.133056,0.03854 -0.197833,0.08564 -0.178475,0.129785 -0.590638,0.224225 -1.074075,0.246107 -0.605436,0.0274 -0.712445,0.04982 -0.826817,0.173236 -0.141025,0.152168 -0.774873,0.225886 -1.304808,0.151751 -0.256546,-0.03589 -0.392913,-0.0378 -0.451716,-0.0063 -0.07967,0.04264 -0.698627,0.05204 -0.981041,0.0149 z m -2.15167,-10.36085 c 0.122202,-0.06818 0.374842,-0.146507 0.760884,-0.235884 0.361758,-0.08376 0.673562,-0.26329 0.673562,-0.387834 0,-0.05325 0.05868,-0.153042 0.130404,-0.221757 0.149121,-0.142866 0.168211,-0.264685 0.04748,-0.303002 -0.19183,-0.06088 -0.118812,-0.283817 0.09296,-0.283817 0.133054,0 0.416356,-0.166229 0.446805,-0.262165 0.01567,-0.04936 0.0092,-0.113263 -0.0143,-0.142 -0.02353,-0.02874 -0.05674,-0.184046 -0.0738,-0.34513 -0.01706,-0.161084 -0.04832,-0.282184 -0.06948,-0.26911 -0.08611,0.05322 -0.03086,-0.109855 0.06946,-0.205006 0.136168,-0.12916 0.136277,-0.222586 5.7e-4,-0.490078 -0.07042,-0.138806 -0.108489,-0.286269 -0.108489,-0.420258 0,-0.259864 -0.03201,-0.343933 -0.130976,-0.343933 -0.08594,0 -0.103889,-0.09168 -0.155759,-0.795514 -0.01717,-0.232904 -0.05162,-0.405991 -0.08807,-0.442443 -0.03293,-0.03293 -0.05988,-0.111461 -0.05988,-0.174508 0,-0.06305 -0.01849,-0.149175 -0.04108,-0.191391 -0.03287,-0.06142 0.0064,-0.127825 0.196686,-0.33224 l 0.237766,-0.255481 -0.10975,-0.0575 c -0.09188,-0.04814 -0.109253,-0.08736 -0.106695,-0.240855 0.0031,-0.18869 0.07456,-0.437118 0.08083,-0.281154 0.0037,0.09101 0.08999,0.103647 0.08999,0.01317 0,-0.0346 0.0489,-0.154874 0.10867,-0.267283 0.05977,-0.112409 0.10867,-0.240588 0.10867,-0.284842 0,-0.04425 0.02088,-0.08046 0.0464,-0.08046 0.02553,0 0.0348,-0.03653 0.02062,-0.08121 -0.01792,-0.05646 0.0077,-0.103134 0.08401,-0.15314 0.07313,-0.04791 0.109782,-0.111648 0.109782,-0.190878 0,-0.07187 0.03441,-0.140434 0.08694,-0.173239 0.144727,-0.09038 0.103228,-0.519289 -0.06084,-0.628842 -0.25301,-0.168939 -1.280824,0.236865 -1.322179,0.522026 -0.01535,0.105816 -0.200465,0.270601 -0.303994,0.270601 -0.08307,0 -0.557904,0.491488 -0.598546,0.619539 -0.05368,0.169128 -0.381524,0.611685 -0.71693,0.967784 -0.181063,0.192233 -0.394404,0.471839 -0.474091,0.621347 -0.07969,0.149508 -0.283636,0.426702 -0.453221,0.615987 -0.169584,0.189284 -0.351891,0.40147 -0.405126,0.471523 -0.145452,0.191404 -0.4351709,0.744136 -0.5297286,1.010628 -0.045979,0.129584 -0.1938886,0.499675 -0.3286875,0.822425 -0.2420344,0.579506 -0.2448516,0.59122 -0.226048,0.939901 0.025237,0.467977 0.1773055,0.973464 0.3508645,1.1663 0.074196,0.08244 0.3207276,0.249767 0.5478486,0.371846 l 0.412947,0.221962 0.782425,-0.01672 c 0.561963,-0.01201 0.813045,-0.0338 0.891096,-0.07736 z"
       id="path1"
       transform="scale(0.26458333)" /><path
       style="fill:#ff00ff;stroke-width:1"
       d="m 11.073493,20.092317 c -0.193664,-0.0277 -0.293409,-0.06156 -0.293409,-0.09962 0,-0.07845 -0.171581,-0.192988 -0.28911,-0.192988 -0.05274,0 -0.12873,-0.03284 -0.168863,-0.07297 -0.06336,-0.06336 -0.06888,-0.133481 -0.04193,-0.532483 0.03011,-0.44565 0.06268,-0.571855 0.177161,-0.686334 0.05133,-0.05133 0.192337,-0.582308 0.192337,-0.724263 0,-0.03551 0.04401,-0.07822 0.0978,-0.09492 0.124972,-0.0388 0.336877,-0.18735 0.336877,-0.236156 0,-0.02057 -0.0288,-0.0662 -0.06399,-0.101394 -0.05634,-0.05634 -0.05634,-0.07034 0,-0.117097 0.03519,-0.02921 0.06399,-0.08957 0.06399,-0.134138 0,-0.05025 0.05365,-0.103589 0.141272,-0.140429 0.173232,-0.07284 0.464219,-0.358935 0.575797,-0.566123 0.08141,-0.151168 0.08141,-0.155224 -1.74e-4,-0.24537 -0.118953,-0.131442 -0.04112,-0.234982 0.189496,-0.252077 0.206355,-0.0153 0.264106,-0.138772 0.0649,-0.138772 -0.112654,0 -0.11353,-0.0021 -0.03673,-0.08694 0.04327,-0.04781 0.103654,-0.08694 0.134181,-0.08694 0.03053,0 0.09729,-0.05868 0.148362,-0.130405 0.05107,-0.07172 0.119774,-0.130404 0.152674,-0.130404 0.170651,0 0.398542,0.397478 0.540904,0.943426 0.09675,0.371022 0.236444,1.569541 0.233367,2.002172 -0.0029,0.401653 -0.01408,0.462388 -0.112439,0.608553 -0.0601,0.0893 -0.135911,0.213451 -0.168477,0.275883 -0.370755,0.710777 -0.378568,0.722013 -0.549667,0.790473 -0.164553,0.06584 -0.504591,0.134258 -0.857054,0.172441 -0.09563,0.01036 -0.305906,-4.3e-5 -0.467282,-0.02313 z"
       id="path2"
       transform="scale(0.26458333)" /><path
       style="fill:#ff00ff;stroke-width:1"
       d="m 11.030566,20.062451 c -0.08936,-0.01735 -0.210676,-0.08356 -0.2696,-0.14714 -0.05893,-0.06358 -0.13649,-0.115601 -0.172368,-0.115601 -0.03588,0 -0.117393,-0.02377 -0.181146,-0.05281 l -0.115914,-0.05281 0.01973,-0.457936 c 0.0168,-0.389998 0.03703,-0.49071 0.136348,-0.678857 0.06414,-0.121506 0.144312,-0.353295 0.178163,-0.515085 0.03385,-0.161791 0.06775,-0.298934 0.07532,-0.304764 0.0076,-0.0058 0.09691,-0.05638 0.198515,-0.112339 0.173555,-0.09558 0.239365,-0.220712 0.14632,-0.278217 -0.07289,-0.04505 0.09371,-0.315728 0.244201,-0.396773 0.186473,-0.100422 0.524973,-0.471361 0.560951,-0.614706 0.01474,-0.05873 0.0015,-0.15414 -0.02953,-0.212031 -0.06872,-0.1284 -0.04278,-0.157611 0.189802,-0.21374 0.196349,-0.04738 0.224687,-0.115829 0.06446,-0.155693 -0.09719,-0.02418 -0.09578,-0.02781 0.04417,-0.114531 0.0795,-0.04926 0.173519,-0.130933 0.208938,-0.181501 0.09715,-0.138696 0.218093,-0.113122 0.340615,0.07202 0.242771,0.366851 0.399355,1.047487 0.504811,2.194299 0.07485,0.813983 0.06283,0.873905 -0.309343,1.542211 -0.363135,0.652075 -0.3731,0.660151 -0.948697,0.768891 -0.382187,0.0722 -0.616556,0.07938 -0.885753,0.02712 z"
       id="path3"
       transform="scale(0.26458333)" /></g></svg>
