<?xml version="1.0" encoding="UTF-8" standalone="no"?>
<!-- Created with Inkscape (http://www.inkscape.org/) -->

<svg
   width="32"
   height="32"
   viewBox="0 0 8.4666666 8.4666666"
   version="1.1"
   id="svg1"
   xml:space="preserve"
   inkscape:version="1.4.3 (0d15f75, 2025-12-25)"
   sodipodi:docname="WoodIcon.svg"
   inkscape:export-filename="WoodIcon.svg"
   inkscape:export-xdpi="96"
   inkscape:export-ydpi="96"
   xmlns:inkscape="http://www.inkscape.org/namespaces/inkscape"
   xmlns:sodipodi="http://sodipodi.sourceforge.net/DTD/sodipodi-0.dtd"
   xmlns="http://www.w3.org/2000/svg"
   xmlns:svg="http://www.w3.org/2000/svg"><sodipodi:namedview
     id="namedview1"
     pagecolor="#ffffff"
     bordercolor="#000000"
     borderopacity="0.25"
     inkscape:showpageshadow="2"
     inkscape:pageopacity="0.0"
     inkscape:pagecheckerboard="0"
     inkscape:deskcolor="#d1d1d1"
     inkscape:document-units="mm"
     inkscape:zoom="8.1336326"
     inkscape:cx="26.37198"
     inkscape:cy="27.355551"
     inkscape:window-width="1920"
     inkscape:window-height="1009"
     inkscape:window-x="-8"
     inkscape:window-y="-8"
     inkscape:window-maximized="1"
     inkscape:current-layer="layer1" /><defs
     id="defs1" /><g
     inkscape:label="Layer 1"
     inkscape:groupmode="layer"
     id="layer1"><path
       id="path1"
       style="fill:#000000"
       d="m 3.7920166,0.18241781 -0.2904215,0.00155 -0.2909384,0.00155 -0.053227,0.0191203 -0.053227,0.0186035 -0.053227,0.0356567 -0.053743,0.0356567 -0.059945,0.0692464 -0.059945,0.0692464 -0.053227,0.054777 -0.053744,0.0552938 -0.029455,0.0397909 -0.029456,0.0403076 -0.013953,0.0268717 -0.013953,0.026355 -0.026355,0.0403076 -0.026872,0.0397909 -0.014469,0.0366903 -0.014469,0.0366903 h -0.01912 -0.018603 v 0.0304891 0.0304891 l -0.020154,0.028422 -0.019637,0.0289388 -0.021704,0.0842326 -0.021187,0.084233 -0.014469,0.01757 -0.013953,0.01757 -0.00982,0.05581 -0.00982,0.055811 -0.037207,0.1415934 -0.037207,0.1410767 0.01602,0.1255737 0.016536,0.1255737 0.00672,0.078031 0.0062,0.078031 0.012402,0.022738 0.011886,0.022738 0.0093,0.0863 0.00982,0.085783 0.016537,0.080099 0.016536,0.080099 0.021704,0.053227 0.022221,0.053227 0.050643,0.047026 0.05116,0.046509 0.056844,0.076481 0.056844,0.076481 -0.020154,0.020154 -0.020671,0.020671 H 2.686141 2.6732218 l -0.069246,0.046509 -0.069763,0.046509 h -0.011369 -0.011886 l -0.021704,0.03359 -0.021704,0.033073 h -0.021187 -0.020671 l -0.060978,0.029456 -0.060978,0.028939 -0.00672,0.00775 -0.00672,0.00775 -0.053227,0.038757 -0.053743,0.038757 -0.1452108,0.1457275 -0.1457275,0.1457276 -0.024288,0.048059 -0.024805,0.048576 v 0.016537 0.016536 l -0.018087,0.010852 -0.018603,0.010335 -0.027905,0.055811 -0.028422,0.055811 -0.013436,0.00827 -0.013436,0.00879 v 0.023771 0.024288 l -0.020154,0.017053 -0.020154,0.016536 v 0.032039 0.032556 l -0.019637,0.038241 -0.020154,0.038757 -0.00207,0.064079 -0.00155,0.064596 -0.00982,0.012919 -0.00982,0.013436 -0.00879,0.047026 -0.0093,0.046509 -0.013436,0.066663 -0.013436,0.066663 -0.00465,0.047026 -0.00465,0.046509 -0.019637,0.073381 -0.019637,0.07338 -0.00362,0.1467611 -0.00413,0.146761 5.168e-4,0.053227 v 0.053227 l 0.010335,0.040308 0.010335,0.039791 0.023254,0.026872 0.023254,0.026872 0.00723,0.058911 0.00775,0.058911 0.020671,0.011886 0.021187,0.011369 v 0.01912 0.018603 l 0.069763,0.075448 0.07028,0.075964 0.020154,0.01757 0.019637,0.017053 0.1291911,0.1090372 0.1286743,0.1090373 -0.032039,0.047026 -0.032039,0.047542 v 0.014469 l -5.168e-4,0.014986 -0.019637,0.037724 -0.019637,0.038241 0.00103,0.041858 0.00103,0.042375 -0.014986,0.066663 -0.014986,0.066663 -0.00103,0.080099 -0.00103,0.080098 0.040824,0.085266 0.040824,0.085783 0.043925,0.053227 0.043925,0.053227 0.034106,0.034623 0.034107,0.034623 0.039274,0.031523 0.039274,0.031523 0.066663,0.042891 0.066663,0.042891 0.060461,0.023254 0.059945,0.023771 0.080099,0.049609 0.080099,0.050126 0.066663,0.031523 0.066663,0.032039 0.080098,-0.00103 0.080099,-0.00103 0.1198893,-0.00103 0.1198893,-5.168e-4 h 0.033073 l 0.033073,5.168e-4 0.028939,0.034106 0.029456,0.034107 0.00672,0.034623 0.00723,0.034623 0.047542,0.053743 0.048059,0.053227 0.0062,0.020154 0.00672,0.019637 0.06873,0.047026 0.069247,0.046509 0.014469,0.013436 0.014469,0.013436 0.053227,0.039274 0.053227,0.039791 0.034623,0.03359 0.034107,0.034106 0.072347,0.055294 0.072347,0.055294 0.054777,0.028422 0.05426,0.027905 0.072347,0.020671 0.072347,0.020671 0.07338,0.020671 0.07338,0.020154 0.00879,0.00879 0.00827,0.00878 0.00775,0.059945 0.00775,0.059945 0.00879,0.044958 0.00878,0.044442 -0.017053,0.051676 -0.017053,0.051676 0.037207,0.05426 0.037724,0.05426 0.014469,-0.00465 0.014469,-0.00517 0.015503,-0.045475 0.014986,-0.045475 -0.0031,-0.067179 -0.00362,-0.066663 -0.00982,-0.07338 -0.00982,-0.07338 0.042891,-0.024805 0.043408,-0.025321 0.096118,-0.00413 0.096635,-0.00362 0.050643,-0.034623 0.050126,-0.034107 h 0.023771 0.023771 l 0.08785,-0.046509 0.088367,-0.047026 h 0.032039 0.032039 l 0.024805,-0.031523 0.024805,-0.031523 0.026355,-0.00827 0.026355,-0.00827 0.033073,-0.029972 0.03359,-0.030489 0.079065,-0.066663 0.079065,-0.066663 0.049093,-0.076481 0.049609,-0.075964 0.05426,-0.1374593 0.05426,-0.1369426 0.0093,-0.039791 0.0093,-0.040308 0.0093,-0.013436 0.00982,-0.013436 0.010852,-0.039791 0.010335,-0.039791 0.00413,-0.013436 0.00465,-0.013436 0.010335,-0.040308 0.010335,-0.039791 0.019637,-0.026872 0.020154,-0.026872 0.03359,-0.017053 0.033073,-0.017053 0.031006,-0.01757 0.031006,-0.018087 -0.00207,-0.011369 -0.00207,-0.011886 0.063045,-0.022738 0.063562,-0.022738 0.00775,-0.012402 0.00775,-0.011886 0.047026,-0.023771 0.046509,-0.023254 0.09095,-0.060978 0.09095,-0.060461 0.01602,-0.021704 0.015503,-0.021704 0.078548,-0.059428 0.078548,-0.059428 0.03514,-0.026355 0.034623,-0.026355 0.00465,-0.010335 0.00413,-0.010335 0.053743,-0.056327 0.053743,-0.056844 0.043408,-0.066663 0.043408,-0.066663 0.064079,-0.1002522 0.064079,-0.099735 0.041341,-0.053744 0.041341,-0.053227 0.026355,-0.053227 0.026355,-0.053744 0.00775,-0.0062 0.00775,-0.00672 0.029972,-0.093534 0.029972,-0.093534 0.011369,-0.026355 0.010852,-0.026872 0.046509,-0.094568 0.045992,-0.094568 0.00827,-0.091984 0.00827,-0.092501 0.01912,-0.086816 0.01912,-0.086816 0.01912,-0.081132 0.019637,-0.081132 -0.018604,-0.052193 -0.018604,-0.052193 -0.00827,-0.1167887 -0.00827,-0.1167888 -0.018087,-0.014986 -0.018087,-0.014986 v -0.03669 -0.03669 l -0.018604,-0.015503 -0.01912,-0.015503 -0.021704,-0.046509 -0.022221,-0.047026 -0.00568,-0.028422 -0.00517,-0.028422 -0.013953,-0.013436 -0.013436,-0.013953 V 3.5692912 3.5388021 L 7.0331624,3.4323486 6.926709,3.3264119 6.9261922,3.3155599 6.9256755,3.3052246 6.8228394,3.2235758 6.7194865,3.1424438 l -0.025838,-0.0093 -0.025838,-0.0093 -0.05426,-0.00672 -0.053744,-0.0062 -0.080099,-0.021187 -0.080098,-0.021187 -0.062012,-0.0062 -0.062012,-0.00672 -0.024805,0.013436 -0.024805,0.013436 -0.037207,-0.00723 -0.03669,-0.00723 -0.013953,-0.025838 -0.013953,-0.025838 -0.019637,-0.074414 -0.01912,-0.074414 0.00672,-0.00672 0.00672,-0.00672 -0.014469,-0.018087 -0.014986,-0.018087 0.015503,-0.018604 0.015503,-0.018603 -0.014469,-0.00465 -0.014469,-0.00517 -0.018603,-0.090434 -0.01912,-0.09095 -0.033073,-0.038757 -0.033073,-0.039274 -0.00827,-0.030489 -0.00827,-0.029972 -0.014469,-0.033073 -0.013953,-0.03359 -0.018604,-0.03514 -0.018087,-0.035657 -0.00103,-0.018087 -0.00103,-0.01757 -0.095601,-0.081132 -0.096118,-0.081132 -0.094051,-0.061495 -0.094051,-0.062012 -0.065629,-0.022221 -0.066146,-0.022221 -0.039791,-0.03359 -0.039274,-0.033073 -0.0031,-0.1353922 -0.0031,-0.1348755 -0.00723,-0.080099 -0.00775,-0.080098 L 5.2508423,1.363741 5.2301717,1.2769246 5.2198364,1.210262 5.2095011,1.1435994 5.1867635,1.0903727 5.1645426,1.037146 5.1443888,1.0004557 5.124235,0.96376546 5.0524048,0.89606934 4.9805745,0.82837321 4.9578369,0.7792806 4.9350993,0.73018799 4.9185628,0.71003418 4.9020264,0.68988037 4.8420817,0.62890218 4.7826538,0.56740723 4.6234904,0.46147054 4.4648437,0.35553385 4.3795776,0.32452799 4.2943115,0.29352214 4.2328166,0.26044922 4.1713216,0.2273763 4.0912231,0.21445719 4.0111247,0.20153809 3.9015706,0.19223633 Z m -0.2144572,0.13797607 0.1503784,0.006718 0.1498617,0.007235 0.1028361,0.0134359 0.1028361,0.0139526 0.057361,0.0165364 0.057361,0.0165365 0.026355,0.01757 0.026355,0.01757 h 0.023771 0.023254 l 0.083716,0.0594279 0.083199,0.0594279 0.035657,0.0273885 0.03514,0.0268717 h 0.013953 0.013436 l 0.00465,0.0232544 0.00413,0.0227376 0.044958,0.002584 0.044442,0.002067 0.066663,0.0651123 0.066663,0.0645955 0.05426,0.0800985 0.054777,0.0800985 0.044958,0.0465088 0.044958,0.0470256 0.026872,0.051676 0.027388,0.052193 0.017053,0.064596 0.016536,0.065112 -0.00568,0.030489 -0.00568,0.029972 0.028422,0.1111043 0.028422,0.1111044 -0.00413,0.1142049 -0.00362,0.1142049 0.017053,0.00568 0.017053,0.00568 -0.011886,0.015503 -0.011885,0.015503 -0.015503,0.062528 -0.014986,0.062528 v 0.047026 0.047025 l 0.05271,0.030489 0.05271,0.030489 0.00413,0.026872 0.00362,0.026355 0.026872,-0.00465 0.026355,-0.00465 0.037207,-5.168e-4 0.03669,-5.167e-4 0.024288,0.021704 0.024288,0.022221 h 0.028939 0.028939 v -0.020154 -0.020671 l 0.05271,0.026872 0.052193,0.026872 0.065629,0.063562 0.065112,0.063562 0.049093,0.044442 0.048576,0.044442 v 0.017053 0.017053 l 0.028939,0.07183 0.028939,0.07183 0.025322,0.028422 0.024805,0.027905 0.011369,0.065112 0.011369,0.065629 0.023254,0.080099 0.023771,0.080098 0.00827,0.073381 0.00827,0.07338 0.010852,0.017053 0.010852,0.01757 0.00258,0.079065 0.00258,0.079582 0.023254,0.023254 0.023254,0.023254 0.063045,-0.00103 0.063045,-0.00103 0.1669149,-0.0093 0.1663981,-0.00879 0.03669,-0.00775 0.03669,-0.00723 v -0.012402 -0.012402 h 0.021187 0.020671 l 0.043925,0.03359 0.043925,0.033073 h 0.013436 0.013436 l 0.1198894,0.1198893 0.1193725,0.1193726 0.015503,0.052193 0.015503,0.051676 v 0.042892 0.042375 l 0.023254,0.042375 0.023254,0.042892 0.013953,0.046509 0.013953,0.045992 0.043408,0.012402 0.043925,0.012919 -0.00723,0.018603 -0.00723,0.01912 0.013953,0.025838 0.013953,0.026355 5.168e-4,0.1431437 0.00103,0.142627 -0.014469,0.066663 -0.013953,0.067179 -0.014986,0.07338 -0.015503,0.07338 5.167e-4,0.023254 5.168e-4,0.023254 h -0.00982 -0.00982 l -0.00155,0.023254 -0.00155,0.023254 -0.021704,0.058394 -0.021704,0.058394 -0.00155,0.044958 -0.00207,0.045475 -0.018604,0.015503 -0.018603,0.015503 -0.01912,0.037207 -0.01912,0.03669 v 0.037724 0.037724 l -0.021704,0.031523 -0.021704,0.031006 -0.040308,0.074931 -0.039791,0.075448 -0.039274,0.050126 -0.039791,0.050126 h 0.00879 0.00878 l -0.024805,0.03669 -0.024805,0.03669 -0.026355,0.05116 -0.025838,0.051677 -0.016536,0.00672 -0.017053,0.00672 v 0.011886 0.011886 l -0.035657,0.039791 -0.03514,0.040308 h -0.01912 -0.01912 l 0.00568,0.015503 0.00517,0.01602 -0.025321,0.025321 -0.025838,0.025322 -0.045992,0.031523 -0.046509,0.031523 -0.027388,0.03514 -0.027905,0.03514 -0.025838,-0.00672 -0.025838,-0.00672 0.00672,0.01757 0.00672,0.017053 -0.019637,0.028422 -0.020154,0.028422 -0.080615,0.056327 -0.080615,0.056844 -0.048576,0.025321 -0.048576,0.024805 -0.032039,0.024805 -0.031523,0.025322 h -0.01757 -0.017053 l -0.037724,0.01602 -0.037724,0.015503 -0.013436,0.00207 -0.012919,0.00207 -0.022738,0.00982 -0.022738,0.010335 -0.058394,-0.012402 -0.058394,-0.012402 -0.035657,0.028422 -0.035657,0.028422 v 0.020671 0.02067 l 0.026355,0.024288 0.026872,0.023771 v 0.029456 0.028939 l -0.00879,0.00879 -0.00827,0.00827 -0.00362,0.043925 -0.00362,0.043408 -0.019637,0.109554 -0.020154,0.1095541 -0.00878,0.013953 -0.00879,0.013953 h 0.01602 0.015503 l -0.016536,0.019637 -0.016536,0.020154 0.00672,0.036173 0.00723,0.035657 -0.038757,0.036173 -0.038757,0.036174 v 0.0093 0.0093 l -0.042891,0.055294 -0.043408,0.055294 -0.043925,0.043408 -0.043408,0.043408 h -0.013436 -0.012919 v 0.012402 0.012402 l -0.043408,0.026872 -0.043408,0.027389 -0.034107,0.032039 -0.034623,0.032556 -0.065112,0.028939 -0.065112,0.028939 -0.020671,0.016536 -0.02067,0.017053 -0.073381,0.022221 -0.07338,0.022221 -0.1064535,0.020154 -0.1069702,0.020671 h -0.07028 -0.07028 l -0.012919,-0.033073 -0.012402,-0.03359 0.00775,-0.023254 0.00723,-0.023771 0.010852,-0.026355 0.010852,-0.026872 0.00775,-0.023254 0.00723,-0.023254 h 0.026872 0.026872 l 0.021187,-0.050126 0.020671,-0.049609 0.011369,-0.051676 0.011886,-0.05116 0.026355,-0.028939 0.026355,-0.028939 0.042891,-0.080099 0.042375,-0.079582 0.030489,-0.03359 0.031006,-0.03359 0.021187,-0.042375 0.021704,-0.042891 0.016536,-0.010335 0.016536,-0.010852 0.019637,-0.03359 0.01912,-0.033073 0.025321,-0.053227 0.025838,-0.053744 0.017053,-0.019637 0.017053,-0.020154 0.027389,-0.052193 0.027388,-0.051677 0.064079,-0.080615 0.064079,-0.080615 0.034623,-0.060978 0.034623,-0.060978 0.018604,-0.03359 0.01912,-0.034107 0.042891,-0.05426 0.042891,-0.05426 0.043925,-0.082165 0.043408,-0.082166 0.038241,-0.069763 0.037724,-0.069763 0.033073,-0.066663 0.032556,-0.066663 0.012919,-0.020154 0.012402,-0.020154 0.027905,-0.059945 0.027905,-0.059945 0.027388,-0.053744 0.027388,-0.053227 0.053227,-0.099735 0.053227,-0.1002523 0.01757,-0.050643 0.018087,-0.050126 -0.026355,-0.026355 -0.026355,-0.026355 -0.029972,5.167e-4 h -0.029972 l -0.027905,0.023254 -0.027388,0.022738 -0.017053,0.059945 -0.017053,0.059945 -0.025321,0.032039 -0.025321,0.032039 v 0.03514 0.03514 l -0.018087,0.026355 -0.018604,0.026355 -0.041341,0.078548 -0.041858,0.078548 v 0.024805 0.024805 h -0.020154 -0.020154 v 0.020671 0.020154 l -0.03514,0.053227 -0.03514,0.05271 h -0.011369 -0.011369 v 0.020154 0.020154 H 5.3789998 5.365564 v 0.014469 0.014469 l -0.026872,0.034106 -0.026355,0.03359 v 0.025321 0.025321 l -0.019637,0.00775 -0.01912,0.00723 -0.01602,0.049093 -0.016536,0.048576 -0.021187,0.034623 -0.021187,0.034623 -0.025321,0.038757 -0.025321,0.038757 -0.033073,0.050126 -0.033073,0.050126 -0.032039,0.034106 -0.031523,0.034623 -0.03359,0.065629 -0.033073,0.065629 h -0.011885 -0.011369 l -0.00775,0.030489 -0.00775,0.030489 -0.059945,0.079582 -0.060461,0.079582 -5.167e-4,0.011369 v 0.011369 l -0.048576,0.078548 -0.048576,0.079065 h -0.00879 -0.00878 l -0.012919,-0.012919 -0.012919,-0.012919 -0.032039,0.01602 -0.032556,0.016536 -0.011369,0.039791 -0.010852,0.039791 0.00723,0.041858 0.00723,0.041858 -0.055294,0.07183 -0.055811,0.071313 -0.019637,0.01602 -0.020154,0.01602 -0.016536,-0.016537 -0.017053,-0.017053 -0.013953,-0.072347 -0.013953,-0.072864 -0.014469,-0.146761 -0.013953,-0.1467611 -0.0062,-0.1198893 -0.00568,-0.1198893 -0.0093,-0.1725993 -0.0093,-0.1720825 0.031523,-0.057361 0.031006,-0.057361 -0.027905,-0.030489 -0.027905,-0.030489 -0.00827,-0.2134237 -0.00775,-0.2134236 -0.00775,-0.3601848 -0.00723,-0.3607015 -0.00568,-0.1519287 -0.00568,-0.1519287 -0.00568,-0.00568 -0.00568,-0.00568 0.012919,-0.049093 0.012919,-0.049093 0.019637,-0.046509 0.020154,-0.047026 0.012402,-0.019637 0.012402,-0.020154 0.032039,-0.059945 0.032556,-0.059945 0.151412,-0.153479 0.1514119,-0.153479 0.099735,-0.1116211 0.1002523,-0.111621 0.042375,-0.059428 0.042375,-0.059428 0.024288,-0.022221 0.024805,-0.022738 0.059945,-0.080099 0.059945,-0.080099 0.01602,-0.013436 0.015503,-0.012919 0.00878,-0.03514 0.00827,-0.034623 -0.022221,-0.021704 -0.021704,-0.022221 h -0.029456 -0.029456 l -0.056327,0.059945 -0.056327,0.059945 v 0.020154 0.020154 h -0.020154 -0.020154 v 0.020154 0.019637 h -0.019637 -0.020154 v 0.019637 0.019637 l -0.046509,0.037207 -0.047026,0.037207 v 0.013953 0.014469 l -0.039791,0.038241 -0.040308,0.038241 v 0.010852 0.010852 l -0.023254,0.028939 -0.023254,0.028939 -0.029972,0.032039 -0.029972,0.031523 v 0.00413 0.00413 L 4.5439087,3.716569 4.4426229,3.8188883 h -0.017053 -0.01757 l -0.016537,-0.020154 -0.016536,-0.020154 h -0.01757 -0.01757 l -0.00413,0.050126 -0.00413,0.049609 -0.021187,0.00413 -0.021187,0.00413 -0.01757,-0.1328085 -0.017053,-0.1322916 0.00723,-0.028939 0.00775,-0.028939 -0.013953,-0.1756999 -0.014469,-0.1762166 0.00258,-0.051676 0.00207,-0.051676 0.013436,-0.025321 0.013953,-0.025838 0.010852,0.00723 0.011369,0.00672 0.00672,-0.01757 0.00723,-0.018087 -0.025838,-0.018087 -0.025322,-0.018603 v -0.029456 -0.029456 l 0.025322,-0.00827 0.025838,-0.00775 0.01912,-0.029456 0.01912,-0.029456 0.010335,-0.066663 0.010335,-0.067179 -0.00155,-0.109554 -0.00155,-0.1100708 -0.021704,-0.050126 -0.021704,-0.050126 -0.013953,-0.053227 -0.014469,-0.053744 0.00103,-0.096635 0.00103,-0.096635 h -0.011369 -0.011369 l 0.00723,-0.01912 0.00723,-0.01912 -0.031006,-0.020154 -0.031006,-0.020154 -0.056844,-0.0093 -0.056844,-0.00879 -0.019637,0.016536 -0.020154,0.016536 v 0.038757 0.038241 l -0.012402,0.023254 -0.011886,0.023254 -0.013953,0.053227 -0.013953,0.053743 -0.00672,0.039791 -0.00672,0.040308 0.00723,-0.017053 0.00723,-0.016536 0.011886,0.00723 0.012402,0.00775 v 0.028939 l -5.168e-4,0.029456 -0.011369,-0.01757 -0.010852,-0.018087 -0.00723,0.027905 -0.00775,0.027905 h 0.010852 0.010852 l 0.00775,0.050126 0.00723,0.049609 0.014469,0.1069702 0.013953,0.1064534 0.00465,0.047026 0.00413,0.046509 0.0093,0.03359 0.0093,0.033073 0.0062,0.153479 0.0062,0.153479 0.00568,0.4051432 0.00568,0.4051433 0.00723,0.01912 0.00723,0.018603 -0.020154,0.00775 -0.019637,0.00775 -0.041341,0.060978 -0.040824,0.060978 -0.00672,0.040824 -0.0062,0.040824 0.072347,0.055294 0.07183,0.054777 -0.00258,0.1586467 -0.0031,0.1586466 0.011886,0.3999756 0.011369,0.4004924 0.00879,0.019637 0.00878,0.020154 -0.00362,0.013436 -0.00413,0.013436 -0.00362,0.078031 -0.00413,0.077515 -0.0062,0.0062 -0.0062,0.0062 L 4.0426473,5.6663208 3.931543,5.6048258 3.9046712,5.5810547 3.8777995,5.5567668 3.7243205,5.4534139 3.5708415,5.3495443 3.4912598,5.277714 3.4111613,5.2064006 3.3310628,5.1325033 3.2509644,5.058606 l -0.066663,-0.048576 -0.066663,-0.048576 -0.047026,-0.036173 -0.046509,-0.03669 -0.043408,-0.0093 -0.043408,-0.00878 -0.00827,0.021187 -0.00775,0.021187 0.022738,0.050126 0.023254,0.049609 0.01757,0.020154 0.017053,0.020154 0.00465,0.019637 0.00413,0.020154 0.020154,0.016536 0.020154,0.01602 0.022738,5.167e-4 0.022738,5.168e-4 0.1493449,0.1297078 0.1493449,0.1302246 0.08785,0.06873 0.08785,0.06873 0.030489,0.027905 0.030489,0.028422 h 0.00775 0.00775 l 0.1085205,0.075448 0.1085205,0.075448 0.040308,0.036174 0.039791,0.035657 0.048059,0.032039 0.048059,0.032039 0.062012,0.051676 0.062012,0.052193 v 0.018087 0.018087 h 0.012402 0.011886 l 0.00413,0.1565796 0.00413,0.1565796 -0.00258,0.093534 -0.0031,0.093534 0.020154,0.1369425 0.020154,0.1364258 -0.00775,0.032039 -0.00827,0.032039 0.019637,0.1049031 0.020154,0.1043864 0.01602,0.1136882 0.016536,0.1131713 0.018604,0.082682 0.018604,0.082682 0.00775,0.020671 0.00827,0.020671 H 4.3134318 4.2855265 L 4.1816569,7.4527751 4.078304,7.4181519 4.0245605,7.3897298 3.9713338,7.360791 3.9563477,7.3473551 3.9413615,7.334436 3.8075195,7.2042114 3.6731608,7.0739868 h -0.020671 -0.021187 v -0.012919 -0.012919 l -0.039274,-0.020154 -0.038757,-0.020154 -0.026355,-0.037207 -0.025838,-0.03669 -0.00879,-0.040824 -0.00879,-0.040824 0.034623,-0.050643 0.034623,-0.05116 -0.021187,-0.053227 -0.021187,-0.05271 0.016536,-0.048576 0.016536,-0.049093 0.011885,-0.01602 0.011369,-0.01602 -0.036173,-0.034106 -0.03669,-0.03359 h -0.065112 -0.065629 l -0.072347,0.053227 -0.07183,0.053227 -0.013953,0.050126 -0.013953,0.050126 v 0.027389 0.027388 L 3.0721639,6.7236206 2.9538249,6.73809 2.9021484,6.7251709 2.850472,6.711735 2.824117,6.709668 l -0.026872,-0.00258 -0.00672,-0.00672 -0.00672,-0.00672 -0.039791,-0.020671 -0.040308,-0.021187 -0.032556,-0.01912 -0.033073,-0.01912 -0.018087,-0.016536 -0.018087,-0.016536 H 2.5781372 2.5538493 L 2.5223267,6.556189 2.4902873,6.5324178 2.4117391,6.4931437 2.3331909,6.4538696 2.271696,6.3918579 2.210201,6.330363 2.1859131,6.2983236 2.1611084,6.2668009 2.1021973,6.1443278 2.0432861,6.0213379 v -0.020671 -0.020671 h 0.011886 0.011369 l 0.00723,-0.0894 0.00723,-0.089917 0.014469,-0.00465 0.014469,-0.00517 0.021187,-0.041858 0.020671,-0.042375 0.080099,-0.065112 0.079582,-0.065112 -0.00362,-0.028422 -0.00413,-0.027905 -0.071314,-0.028422 -0.071314,-0.028422 -0.042375,-0.039274 -0.041858,-0.038757 -0.046509,-0.028939 -0.047025,-0.028422 -0.088884,-0.090951 -0.088367,-0.09095 -0.045992,-0.07338 -0.045992,-0.07338 -0.00827,-0.033073 -0.00775,-0.03359 -0.014986,-0.059945 -0.015503,-0.059945 -0.012919,-0.043408 -0.013436,-0.043408 0.014986,-0.1767334 0.014986,-0.1767334 0.013953,-0.059945 0.013436,-0.059945 5.168e-4,-0.045992 v -0.045992 l 0.029972,-0.067696 0.029456,-0.067179 -0.00568,-0.050126 -0.00568,-0.050126 h 0.012919 0.012919 l 0.00723,-0.072864 0.00775,-0.07338 0.063045,-0.1167887 0.063562,-0.1173055 0.025838,-0.046509 0.026355,-0.046509 0.03669,-0.053743 0.037207,-0.053227 0.031523,-0.027905 0.031523,-0.027389 0.047025,-0.05426 0.047542,-0.053743 0.029456,-0.0093 0.028939,-0.0093 v -0.010852 -0.010852 l 0.062528,-0.063562 0.062012,-0.063045 0.041858,-0.017053 0.041341,-0.01757 0.0031,-0.035657 0.00258,-0.035657 0.00775,-0.011886 0.00723,-0.012402 h 0.047542 0.047026 l 0.039791,0.028422 0.040308,0.028422 0.080098,-0.00827 0.080098,-0.00827 0.09095,0.039791 0.090951,0.040308 h 0.026872 0.027388 l 0.037207,-0.03359 0.037207,-0.033073 -0.068213,-0.063562 -0.06873,-0.063562 L 2.9088664,2.6959595 2.824117,2.5802043 2.7838094,2.5233602 2.7440186,2.4665161 2.7011271,2.409672 2.6587524,2.352828 2.6385986,2.2851318 2.6184448,2.2174357 h 0.00775 0.00775 l -0.015503,-0.018087 -0.015503,-0.018604 -0.019637,-0.1209228 -0.01912,-0.1204061 0.00775,-0.021704 0.00827,-0.021187 -0.020671,-0.056327 -0.021187,-0.056327 5.167e-4,-0.053227 5.168e-4,-0.053227 0.00103,-0.1136882 5.168e-4,-0.1131713 0.00258,-0.040308 0.00258,-0.039791 0.028939,-0.059428 0.028939,-0.059428 0.012402,-0.075964 0.012402,-0.075964 0.028422,-0.071314 0.028939,-0.0713135 0.011885,-0.0201538 0.011886,-0.0201538 0.021704,-0.0428914 0.021187,-0.0423747 0.01912,-0.0155029 0.018603,-0.0160197 v -0.0258382 -0.026355 l 0.053743,-0.0532267 0.05426,-0.0532267 0.00723,-0.0377238 0.00775,-0.0382406 0.038757,-0.0366903 0.038241,-0.037207 v -0.0149862 -0.0155029 l 0.029972,-0.0155029 0.030489,-0.0149862 0.03514,-0.0289388 0.035657,-0.028422 0.053227,-0.004134 0.05271,-0.003617 0.040824,-0.0211873 0.040824,-0.0206706 0.018087,0.006718 0.018087,0.007235 0.013953,0.037207 0.013953,0.0377238 0.091467,-0.0108521 0.090951,-0.0113688 0.010852,-0.0165364 0.010852,-0.0170532 V 0.33848063 Z M 31.496269,2.1931478 c 0.0018,0.026834 0.0035,0.053609 0.0052,0.080098 l 0.04289,0.00103 0.02067,-0.020154 0.02015,-0.020671 -0.03152,-0.016536 -0.03152,-0.017053 z M 6.4063273,3.3786051 v 0.0062 0.00672 h 0.00672 0.00672 v -0.00672 -0.0062 h -0.00672 z m 0.8268229,1.3694255 0.0093,0.00879 0.00878,0.0093 -0.00878,0.00878 -0.0093,0.00879 v -0.01757 z M 4.6586304,6.7670288 h 0.00672 0.0062 v 0.00672 0.00672 h -0.0062 -0.00672 v -0.00672 z M 8.5431478,7.09104 c -0.00146,0.00538 -0.00313,0.010653 -0.00465,0.01602 -0.00634,0.022408 -0.012676,0.045224 -0.020671,0.067179 l 0.036174,0.034623 C 8.5502751,7.1696555 8.5468505,7.1302169 8.5431478,7.09104 Z M 4.5118693,7.367509 v 0.013436 0.013436 h 0.012919 0.013436 V 7.3809448 7.367509 h -0.013436 z m 5.0725586,4.004923 c -0.00597,9.22e-4 -0.012118,0.0017 -0.018087,0.0026 l 0.00103,0.0016 0.037207,0.01602 0.026872,0.01137 c -0.015769,-0.01035 -0.031466,-0.02075 -0.047026,-0.03152 z" /><path
       style="fill:#000000;stroke-width:0.264583"
       d="m 4.4652358,7.265712 c -0.0022,0.024646 0.01524,0.042187 0.023003,0.063255 0.0041,0.011123 0.00468,0.023323 0.00863,0.034503 0.00185,0.00527 0.00613,0.00938 0.00863,0.014375 0.00326,0.00653 0.00487,0.013867 0.00863,0.020127 0.00209,0.00349 0.00637,0.00524 0.00863,0.00863 0.00283,0.00424 0.00383,0.016293 0.00575,0.020127 0.013571,0.027139 0.00436,-0.0037 0.014375,0.023003 0.00389,0.010388 0.00514,0.021172 0.00863,0.031627 0.00135,0.00407 0.00425,0.00749 0.00575,0.011501 0.00729,0.019455 -0.00119,0.00391 0.00575,0.020127 0.00304,0.0071 0.00846,0.013025 0.011501,0.020127 0.00433,0.010104 0.00709,0.021331 0.011501,0.031627 0.00135,0.00318 0.00491,0.00527 0.00575,0.00863 6.88e-4,0.00279 -8.995e-4,0.0059 0,0.00863 0.0022,0.00656 0.00841,0.01107 0.011502,0.017251 0.0023,0.00462 0.00302,0.01 0.00575,0.014377 0.00214,0.00345 0.00637,0.00524 0.00863,0.00863 0.00336,0.00504 0.00262,0.012054 0.00575,0.017251 0.0057,0.0095 0.015055,0.018608 0.020127,0.028752 0.00177,0.00353 9.261e-4,0.00807 0.00288,0.011501 0.00201,0.00353 0.00637,0.00524 0.00863,0.00863 0.00454,0.00681 0.00465,0.015843 0.00863,0.023003 0.011538,0.020772 0.00451,0.0041 0.014377,0.017251 0.00732,0.00976 0.00746,0.020846 0.011501,0.031627 0.00233,0.00618 0.00707,0.00815 0.00863,0.014378 0.00185,0.00739 0.00103,0.015658 0.00288,0.023003 0.00103,0.00416 0.00457,0.00738 0.00575,0.011501 0.00159,0.00553 -0.00257,0.012107 0,0.017251 9.525e-4,0.0019 0.00479,9.525e-4 0.00575,0.00288 0.00426,0.00852 0.00296,0.023254 0.00575,0.031627 0.00108,0.00328 0.0042,0.00554 0.00575,0.00863 0.0023,0.00462 0.00275,0.010176 0.00575,0.014375 0.00201,0.00281 0.00671,0.00288 0.00863,0.00575 0.0022,0.00329 0.00161,0.00775 0.00288,0.011501 0.00246,0.00742 0.0086,0.012867 0.011501,0.020127 0.012555,0.031385 0.014491,0.071973 0.043128,0.094883 0.023595,0.018875 0.052759,0.029848 0.080507,0.040253 0.00401,0.00151 0.00738,0.00457 0.011501,0.00575 0.016208,0.00463 0.057503,-0.00225 0.077631,0 0.00393,4.233e-4 0.00758,0.00238 0.011501,0.00288 0.019322,0.00241 0.044965,-0.00457 0.063255,0 0.018359,0.00459 -0.012814,0.00288 0.017251,0.00288 0.00288,0 -0.00584,-6.879e-4 -0.00863,0 -0.047697,0.011925 0.00577,0.00262 -0.028752,0.00575 -0.024963,0.00228 -0.050204,0.00453 -0.074756,0.00863 -0.017044,0.00284 -0.037585,0 -0.054629,0 -0.046962,0 -0.093924,0 -0.1408864,0 -0.025876,0 -0.051796,-0.00148 -0.077631,0 -0.00789,4.498e-4 -0.015161,0.00477 -0.023003,0.00575 -0.00761,9.525e-4 -0.015354,-5.556e-4 -0.023003,0 -0.00582,4.234e-4 -0.011446,0.00235 -0.017251,0.00288 -0.034821,0.00316 -0.071419,0 -0.1063837,0 -0.037257,0 -0.074922,-0.00148 -0.1121341,0 -0.011531,4.497e-4 -0.022979,0.00228 -0.034503,0.00288 -0.038077,0.00201 -0.076891,0 -0.1150094,0 -0.014375,0 -0.028823,0.00143 -0.043128,0 -0.00393,-3.969e-4 -0.00757,-0.00249 -0.011501,-0.00288 -0.034411,-0.00344 -0.07193,0 -0.1063837,0 -0.013417,0 -0.026835,0 -0.040253,0 -0.00575,0 -0.011501,0 -0.017251,0 -0.0019,0 -0.00575,-0.00191 -0.00575,0 0,9.525e-4 0.0019,0 0.00288,0 0.00575,0 0.011501,0 0.017251,0 0.00767,0 0.015388,8.995e-4 0.023003,0 0.024186,-0.00284 0.047597,-0.011139 0.071881,-0.014375 0.028,-0.00373 0.057237,-0.00605 0.083381,-0.017251 0.010194,-0.00437 0.01638,-0.011824 0.025876,-0.017251 0.041881,-0.023932 -0.012131,0.0075 0.020127,-0.00863 0.00549,-0.00274 0.00874,-0.00908 0.014375,-0.011501 0.00449,-0.00193 0.00987,-0.00101 0.014377,-0.00288 0.013063,-0.00544 0.025604,-0.012277 0.037378,-0.020127 0.00338,-0.00225 0.00524,-0.00637 0.00863,-0.00863 5.027e-4,-3.175e-4 0.016912,-0.00507 0.017251,-0.00575 8.467e-4,-0.00172 -0.00135,-0.00439 0,-0.00575 0.00474,-0.00474 0.015081,-0.00323 0.020127,-0.00575 8.466e-4,-4.233e-4 -2.323e-4,-0.00196 0,-0.00288 7.408e-4,-0.00294 0.00106,-0.0062 0.00288,-0.00863 0.0013,-0.00172 0.00383,-0.0019 0.00575,-0.00288 0.0019,-0.00479 0.00324,-0.00986 0.00575,-0.014375 0.00233,-0.00419 0.00609,-0.00744 0.00863,-0.011502 0.00675,-0.010795 0.010864,-0.023857 0.017251,-0.034503 0.0014,-0.00233 0.00436,-0.00343 0.00575,-0.00575 0.00206,-0.00346 0.00481,-0.017306 0.00575,-0.020127 0.00573,-0.017203 0.011502,-0.033291 0.011502,-0.051754"
       id="path7" /><path
       style="fill:#000000;stroke-width:0.264583"
       d="m 4.4393588,7.389347 c -0.00241,0.029591 -0.019838,0.054914 -0.025876,0.083382 -0.00319,0.015031 -0.00228,0.03065 -0.00288,0.046004 -3.704e-4,0.00958 -0.00188,0.019354 0,0.028752 0.00108,0.00548 0.00613,0.00938 0.00863,0.014377 0.00135,0.00271 9.261e-4,0.0063 0.00288,0.00863 0.00794,0.00953 0.028225,0.015875 0.040253,0.011502 0.01315,-0.00478 0.041849,-0.027474 0.051754,-0.037378 0.017251,-0.017251 0.020653,-0.035906 0.028752,-0.057505 0.00151,-0.00401 0.00457,-0.00738 0.00575,-0.011501 0.0013,-0.00452 0.00241,-0.024966 0,-0.028752 C 4.5265738,7.412211 4.5236028,7.428599 4.4968678,7.41523 4.4918978,7.41274 4.4828318,7.402885 4.4767408,7.400855 c -0.00183,-6.085e-4 -0.00383,0 -0.00575,0 -0.01519,0 -0.004,7.673e-4 -0.031627,-0.011501 z"
       id="path8" /><path
       style="fill:#000000;stroke-width:0.264583"
       d="m 4.5543681,7.3030902 c -0.00267,0.044716 -0.014915,0.087951 -0.020127,0.1322607 -8.996e-4,0.00767 -0.0019,0.015335 -0.00288,0.023003 -0.0019,0.00767 -0.00477,0.015161 -0.00575,0.023003 -0.00257,0.020577 -0.00198,0.075475 0.00288,0.094882 0.00103,0.00416 0.00482,0.00732 0.00575,0.011502 0.00955,0.042963 -0.013592,-0.018664 0.00575,0.031627 5.027e-4,0.00132 0.014118,0.040253 0.017251,0.040253 9.525e-4,0 0,-0.00191 0,-0.00288 0,-0.00383 0,-0.00767 0,-0.011501 0,-0.014378 0.00273,-0.029014 0,-0.043128 -0.00976,-0.050438 -0.027061,-0.095558 -0.043129,-0.1437616 -0.00346,-0.010366 -0.00505,-0.021302 -0.00863,-0.031628 -0.00506,-0.014631 -0.011501,-0.028752 -0.017251,-0.043128 -0.0019,-0.00479 -0.00412,-0.00948 -0.00575,-0.014377 -6.086e-4,-0.00183 8.466e-4,-0.00403 0,-0.00575 -0.00333,-0.00666 -0.010575,-0.014666 -0.011501,-0.023003 -0.00243,-0.021934 0.00457,-0.034845 0.017251,-0.051754 0.0013,-0.00172 0.00116,-0.00446 0.00288,-0.00575 0.00243,-0.00183 0.00592,-0.00151 0.00863,-0.00288 0.00876,-0.00438 0.013052,-0.010179 0.020127,-0.017251 0.00114,-0.00114 0.017648,-0.012343 0.020127,-0.00863 0.00942,0.014131 0.00971,0.032549 0.014378,0.048879 z"
       id="path9" /><path
       style="fill:#000000;stroke-width:0.264583"
       d="M 4.5831204,7.55036 C 4.5390368,7.4838212 4.5078671,7.4108767 4.4709863,7.3404681 4.4593076,7.3181717 4.4507377,7.3006013 4.442234,7.2772129 4.434164,7.2550169 4.432454,7.2599539 4.427856,7.2369599 c -0.00562,-0.028082 -0.00201,-0.055369 0,-0.083382 0.00106,-0.014637 -0.00164,-0.03861 0,-0.051754 6.35e-4,-0.00512 0.00474,-0.00932 0.00575,-0.014378 0.00235,-0.011814 8.732e-4,-0.025418 0.00288,-0.037378 0.00175,-0.010414 0.00246,-0.00206 0.00575,-0.00863 0.00356,-0.00712 -0.00729,-0.020339 -0.00863,-0.023003 -0.00135,-0.0027 3.704e-4,-0.00845 0,-0.011502 -8.466e-4,-0.00673 -0.0023,-0.013372 -0.00288,-0.020127 -0.0013,-0.015531 0.00307,-0.033545 0,-0.048879 -0.00417,-0.020836 -0.00984,-0.034225 -0.014378,-0.054629 -0.00276,-0.012425 -0.00273,-0.02531 -0.00575,-0.037378 -3.44e-4,-0.00138 -0.00541,-0.00726 -0.00575,-0.00863 -0.00185,-0.00737 -0.00103,-0.015632 -0.00288,-0.023003 -3.175e-4,-0.00132 -0.00254,-0.00156 -0.00288,-0.00288 -6.879e-4,-0.00279 4.763e-4,-0.00579 0,-0.00863 -5.027e-4,-0.00299 -0.0019,-0.00575 -0.00288,-0.00863 -9.525e-4,-0.00479 -0.0022,-0.00954 -0.00288,-0.014377 -0.00262,-0.018344 0,-0.039013 0,-0.057505 0,-0.026994 0.00151,-0.054219 -0.00288,-0.080507 -0.00451,-0.027043 0.00451,-0.056339 0,-0.083382 -5.028e-4,-0.00299 -0.00238,-0.00564 -0.00288,-0.00863 -0.00201,-0.012123 0.00201,-0.025255 0,-0.037378 -5.027e-4,-0.00299 -0.0019,-0.00575 -0.00288,-0.00863 0,-0.00383 5.292e-4,-0.0077 0,-0.011501 -0.00542,-0.037951 -1.984e-4,0.013383 -0.00575,-0.014378 -0.00114,-0.00564 9.525e-4,-0.011578 0,-0.017251 -0.00209,-0.012613 -0.00458,-0.025247 -0.00863,-0.037378 -0.00135,-0.00407 -0.00471,-0.00734 -0.00575,-0.011501 -0.011038,-0.044157 -0.00156,-0.012864 -0.00863,-0.051754 0.00101,-0.00585 -0.00474,-0.00932 -0.00575,-0.014377 -0.00423,-0.021172 -0.00575,-0.041172 -0.00575,-0.063255 0,-0.00863 9.525e-4,-0.017304 0,-0.025876 -0.0018,-0.016079 -0.00302,-0.0065 -0.00575,-0.020127 -0.00164,-0.00826 0.00204,-0.017719 0,-0.025876 -0.00103,-0.00416 -0.00452,-0.0074 -0.00575,-0.011501 -0.00427,-0.014248 -0.00214,-0.028732 -0.00575,-0.043128 -0.00241,-0.00963 -0.00705,-0.019325 -0.00863,-0.028753 -0.00387,-0.023193 0.00461,-0.048838 0,-0.071881 -4.233e-4,-0.00209 -0.00246,-0.00365 -0.00288,-0.00575 -0.00369,-0.018455 0,-0.062764 0,-0.083382 0,-0.00853 8.731e-4,-0.014978 0.00288,-0.023003 6.879e-4,-0.00279 0.00172,-0.010925 0,-0.00863 -0.00909,0.012123 -0.018621,0.024075 -0.025876,0.037378 -0.012581,0.023064 -0.015277,0.043138 -0.020127,0.069006 -0.00214,0.01139 -0.00721,0.023159 -0.00863,0.034503 -0.00119,0.00951 0,0.019169 0,0.028752 0,0.026268 -1.749e-4,0.051706 0.00288,0.077631 0.00316,0.026896 0.0013,0.053828 0.00575,0.080506 0.00469,0.028142 0.016618,0.055312 0.020127,0.083382 0.00164,0.013113 -9.525e-4,0.027092 0,0.040253 5.557e-4,0.00771 0.00233,0.015296 0.00288,0.023003 6.614e-4,0.00939 -8.996e-4,0.032203 0,0.040253 0.00378,0.033985 0.01561,0.067371 0.023003,0.1006329 0.00233,0.010462 0.00259,0.021386 0.00575,0.031628 0.00214,0.00698 0.00601,0.013314 0.00863,0.020127 0.00754,0.019592 0.011089,0.040354 0.017251,0.06038 0.00651,0.021172 0.015028,0.043913 0.017251,0.06613 0.00153,0.015243 0.00705,0.081559 0.00288,0.092007 -0.00151,0.00377 -0.010589,0.01936 -0.011501,0.023003 -6.879e-4,0.00279 0.00101,0.00593 0,0.00863 -0.00196,0.00523 -0.00666,0.00914 -0.00863,0.014377 -7.144e-4,0.0019 4.762e-4,0.011502 0,0.014375 -4.498e-4,0.00276 -0.00404,0.016709 -0.00575,0.020127 -6.086e-4,0.00122 -0.00254,0.00156 -0.00288,0.00288 -6.88e-4,0.00279 5.556e-4,0.0058 0,0.00863 -0.00198,0.00988 -0.00575,0.021167 -0.00575,0.031627 0,9.525e-4 2.646e-4,-0.00196 0,-0.00288 -0.00262,-0.00871 -0.00533,-0.017402 -0.00863,-0.025876 -0.010731,-0.027592 -0.01174,-0.022042 -0.020127,-0.048879 -0.00713,-0.022807 -0.012573,-0.046346 -0.020127,-0.069006 -0.0023,-0.00692 -0.00648,-0.01315 -0.00863,-0.020127 -0.00185,-0.006 -0.00327,-0.025008 -0.00575,-0.031627 -0.00122,-0.00324 -0.00435,-0.00547 -0.00575,-0.00863 -0.00809,-0.018201 -0.014377,-0.040602 -0.014377,-0.06038 0,-0.00514 -0.00193,-0.018166 0,-0.023003 0.012517,-0.031293 -0.00138,0.022024 0.011501,-0.023003 5.292e-4,-0.00185 -0.00106,-0.00416 0,-0.00575 0.00119,-0.00177 0.00438,-0.00122 0.00575,-0.00288 0.00288,-0.00479 0.00575,-0.00958 0.00863,-0.014378 9.525e-4,0 0.0022,6.88e-4 0.00288,0 0.00564,-0.00564 0.00661,-0.012367 0.011501,-0.017251 -2.911e-4,-0.0057 0.00424,-0.00135 0.00575,-0.00288 0.00595,-0.00595 -0.00909,2.326e-4 0.00288,-0.00575 8.467e-4,-4.233e-4 0.0022,6.879e-4 0.00288,0 0.00243,-0.00243 0.00331,-0.00618 0.00575,-0.00863 6.879e-4,-6.879e-4 0.00235,7.937e-4 0.00288,0 0.016645,-0.024966 -0.016015,0.010266 0.011502,-0.017251 0.00124,-0.00124 0.018161,-0.00575 0.011501,-0.00575 -9.525e-4,0 1.879e-4,0.00193 0,0.00288 -0.00365,0.018248 -0.00683,0.036616 -0.011501,0.05463 -0.00446,0.017195 -0.011398,0.026742 -0.017251,0.043128 -0.00569,0.015925 -0.00904,0.032858 -0.014375,0.048879 -0.00569,0.017074 -0.012369,0.033686 -0.014377,0.051754 -0.00193,0.017478 0.00132,0.03462 0.00288,0.051754 5.292e-4,0.00573 -5.292e-4,0.011525 0,0.017251 0.00114,0.012531 0.00496,0.019402 0.00863,0.031627 0.00833,0.027755 0.016703,0.055043 0.023003,0.083382 0.0053,0.023852 0.00845,0.048176 0.014377,0.071881 0.00124,0.00501 0.00439,0.0094 0.00575,0.014375 0.00358,0.013131 0.00386,0.027017 0.00575,0.040253 0.00251,0.017534 0.00935,0.035005 0.014375,0.051754 0.00459,0.015306 0.00185,0.030426 0.00575,0.046004 0.022212,0.088846 0.00172,-0.00225 0.020127,0.06038 0.00778,0.026456 0.012367,0.054127 0.020127,0.080507 0.0038,0.012904 0.022794,0.047141 0.025876,0.054629 0.00185,0.00452 0.00132,0.00974 0.00288,0.014375 0.00453,0.0136 0.017325,0.026241 0.020127,0.040253 5.556e-4,0.00282 -0.00172,0.00633 0,0.00863 0.00183,0.00243 0.00669,5.556e-4 0.00863,0.00288 0.0033,0.00397 0.00324,0.00986 0.00575,0.014377 0.00816,0.014682 0.020794,0.033622 0.031627,0.046004 0.0014,0.00161 0.00424,0.00135 0.00575,0.00288 6.879e-4,6.879e-4 -7.938e-4,0.00235 0,0.00288 0.00738,0.00492 0.039244,0.00964 0.046004,0.00288 0.0051,-0.0051 -0.010504,-0.00575 -0.011501,-0.00575 -0.0019,0 0.00393,6.086e-4 0.00575,0 0.00492,-0.00164 0.0067,-0.00575 0.011501,-0.00575"
       id="path10" /><path
       style="fill:#000000;stroke-width:0.264583"
       d="m 4.3473512,6.6044087 c -0.00479,0.00671 -0.00892,0.013944 -0.014377,0.020127 -0.00897,0.010163 -0.019828,0.018553 -0.028752,0.028752 -0.020026,0.022889 -0.021302,0.048748 -0.023003,0.077631 -0.00238,0.040611 0.00692,0.076252 0.017251,0.1150091 0.00926,0.03473 0.017547,0.075125 0.040253,0.1035084 0.00217,0.0027 0.0042,0.00554 0.00575,0.00863 4.234e-4,8.466e-4 -8.466e-4,0.00243 0,0.00288 0.00923,0.00462 0.00824,-0.01896 0.011502,-0.028752 0.00119,-0.00359 0.01198,-0.023162 0.014375,-0.028752 0.00787,-0.018367 0.011938,-0.037994 0.014377,-0.057505 0.00537,-0.042947 0.016611,-0.091697 0.00575,-0.1351359 -0.00437,-0.017489 0.00873,-0.085264 -0.011501,-0.092007 -0.018066,-0.00602 0.00734,0.00759 -0.011501,-0.00288 -0.012838,-0.00713 -0.030577,-0.020127 -0.046004,-0.020127"
       id="path11" /><path
       style="fill:#000000;stroke-width:0.264583"
       d="m 4.6923793,6.7654217 c -0.0072,0.00291 -0.070467,-0.00429 -0.074756,0 -0.021026,0.021026 -0.0037,0.080915 0.017251,0.094883 0.00454,0.00303 0.04474,-0.029611 0.048879,-0.034503 0.00499,-0.0059 0.00923,-0.012742 0.011501,-0.020127 0.00169,-0.0055 3.969e-4,-0.011515 0,-0.017251 -5.556e-4,-0.00771 0.00388,-0.019249 -0.00288,-0.023003 -0.030349,-0.016862 -0.012332,0.022169 -0.031628,0.00288"
       id="path12" /><path
       style="fill:#000000;stroke-width:0.264583"
       d="m 4.1388969,8.0765276 c -0.031154,-0.00391 -0.062316,0 -0.093445,0 -0.00787,0 -0.024233,-0.00185 -0.031627,0 -0.00281,7.144e-4 -0.0141,0.00403 -0.015814,0.00575 -3.439e-4,3.439e-4 3.44e-4,0.00111 0,0.00143 -3.439e-4,3.44e-4 -0.00132,-4.762e-4 -0.00143,0 -0.00265,0.010549 0.00193,0.022077 0.00575,0.031628 0.00456,0.011396 0.00636,0.01269 0.014377,0.023003 6.615e-4,8.467e-4 6.879e-4,0.00212 0.00143,0.00288 0.00183,0.00183 0.00837,0.00225 0.010065,0.00288 0.00201,7.408e-4 0.00362,0.00259 0.00575,0.00288 0.00523,6.879e-4 0.010546,-2.027e-4 0.015814,0 0.027368,0.00106 0.054556,0.00143 0.081944,0.00143 0.011393,0 0.035143,0.0018 0.046004,0 0.00148,-2.49e-4 0.00288,-9.525e-4 0.00431,-0.00143 0.00383,-9.525e-4 0.00758,-0.00235 0.011501,-0.00288 0.00333,-4.498e-4 0.00672,2.571e-4 0.010062,0 0.00291,-2.236e-4 0.00573,-0.00111 0.00863,-0.00143 0.00643,-7.144e-4 0.01374,0 0.020127,0 0.012459,0 0.024919,0 0.037378,0 0.013417,0 0.026917,0.00148 0.040253,0 0.00393,-4.233e-4 0.0076,-0.00222 0.011501,-0.00288 0.00471,-7.938e-4 0.012263,-5.027e-4 0.017251,0 0.00674,6.614e-4 0.013367,0.00238 0.020127,0.00288 0.028412,0.00204 -0.018071,-0.00513 0.034503,0.00143 0.00346,4.233e-4 0.00663,0.00228 0.010065,0.00288 0.014372,0.00254 0.017584,8.202e-4 0.033065,0.00143 0.00577,2.307e-4 0.011483,0.00124 0.017251,0.00143 0.016282,5.556e-4 0.032586,0 0.048879,0 0.00719,0 0.014406,6.614e-4 0.021564,0 0.00243,-2.212e-4 0.00475,-0.00124 0.00719,-0.00143 0.00955,-7.937e-4 0.019174,3.704e-4 0.028753,0 0.060836,-0.00233 -0.013787,-3.439e-4 0.031628,-0.00288 0.00909,-5.027e-4 0.018222,4.763e-4 0.027315,0 0.015341,-8.202e-4 0.030705,-0.00322 0.046004,-0.00431 0.010049,-7.144e-4 0.020153,-5.556e-4 0.03019,-0.00143 0.00628,-5.556e-4 0.012406,-0.00238 0.018687,-0.00288 0.017113,-0.00138 0.014147,9.261e-4 0.028752,0 0.016865,-0.00106 0.033322,-0.00375 0.050317,-0.00431 0.016613,-5.556e-4 0.032414,0.00169 0.048879,0.00288 0.017063,0.00122 0.034663,0 0.051754,0 0.00225,0 0.012869,-0.00151 0.014378,0 3.439e-4,3.44e-4 -4.234e-4,0.00122 0,0.00143 0.00334,0.00167 0.00968,-1.918e-4 0.012938,0.00143 0.00297,0.00148 0.0096,0.00365 0.012938,0.00431 8.731e-4,1.757e-4 0.0095,-0.00101 0.011501,0 0.00153,7.673e-4 0.00267,0.00233 0.00431,0.00288 0.00428,0.00143 0.012732,0 0.017251,0 0.010734,0 0.019786,-4.498e-4 0.028752,-0.00143 0.00563,-6.35e-4 0.00716,-0.00373 0.010062,-0.00431 0.00188,-3.704e-4 0.00393,6.085e-4 0.00575,0 0.0013,-4.233e-4 0.00167,-0.00228 0.00288,-0.00288 0.0023,-0.00114 0.013076,-0.00259 0.014377,-0.00288 0.00887,-0.00198 0.017277,-0.00576 0.025876,-0.00863 0.0079,-0.00265 0.028024,-0.00597 0.031627,-0.014375 0.00329,-0.00769 0.00337,-0.01528 0.00143,-0.023003 -2.325e-4,-9.261e-4 4.234e-4,-0.00201 0,-0.00288 -0.00138,-0.00274 -0.00438,-0.00445 -0.00575,-0.00719 -0.00411,-0.00822 -0.00533,-0.00985 -0.014375,-0.014377 -0.0019,-9.525e-4 -0.0041,-0.00151 -0.00575,-0.00288 -0.00132,-0.00111 -0.00148,-0.00328 -0.00288,-0.00431 -7.673e-4,-5.821e-4 -0.00193,1.879e-4 -0.00288,0 -0.00904,-0.0018 8.467e-4,-0.00119 -0.010065,-0.00431 -0.0038,-0.00108 -0.010406,0 -0.014375,0 -0.015774,0 -0.032009,7.408e-4 -0.047441,0.00431 -0.00621,0.00143 -0.01865,0.00429 -0.024439,0.00719 -6.086e-4,2.91e-4 -7.938e-4,0.00122 -0.00143,0.00143 -0.00297,9.79e-4 -0.00704,-7.673e-4 -0.010065,0 -1.442e-4,3.6e-5 -0.00657,0.00267 -0.00719,0.00288 -0.00172,5.821e-4 -0.00405,-6.879e-4 -0.00575,0 -0.00161,6.35e-4 -0.00271,0.00222 -0.00431,0.00288 -0.00415,0.00167 -0.020997,0 -0.025876,0"
       id="path13" /><path
       style="fill:#000000;stroke-width:0.264583"
       d="m 4.3182965,8.1018887 c -0.00407,0.0061 -0.0085,0.011967 -0.0122,0.018299 -0.00292,0.005 -0.00335,0.011165 -0.0061,0.016264 -0.00606,0.011258 -0.013888,0.021484 -0.020331,0.03253 -0.00387,0.00663 -0.00343,0.00859 -0.00813,0.014232 -0.00633,0.00759 -0.014637,0.016182 -0.022363,0.022365 -0.0019,0.00153 -0.00463,0.00212 -0.0061,0.00407 -8.203e-4,0.00108 5.027e-4,0.00281 0,0.00407 -8.996e-4,0.00228 -0.00285,0.00398 -0.00407,0.0061 -0.00193,0.00339 -0.00921,0.01311 -0.0061,0.018299 0.00127,0.00209 0.00419,0.00254 0.0061,0.00407 0.013025,0.010419 0.020786,0.015489 0.038629,0.016264 0.019341,8.466e-4 0.061338,0.00259 0.081324,-0.00407 0.00564,-0.00188 0.00951,-0.00702 0.014232,-0.010165 0.00727,-0.00485 0.018105,-0.00794 0.024397,-0.014232 0.018362,-0.018362 2.058e-4,-4.234e-4 0.00407,-0.00813 0.00124,-0.00246 0.013118,-0.00765 0.014232,-0.00813 0.011197,-0.0048 0.0235,-0.00746 0.034562,-0.0122 0.00225,-9.525e-4 0.00375,-0.00339 0.0061,-0.00407 0.00262,-7.408e-4 0.00542,0 0.00813,0 0.00407,-0.00135 0.00824,-0.00241 0.012197,-0.00407 0.013134,-0.00547 0.024265,-0.013605 0.036596,-0.020331 0.01039,-0.00567 0.021945,-0.00894 0.032529,-0.014232 0.016462,-0.00823 0.032778,-0.017277 0.048794,-0.026429 0.022201,-0.012687 0.006,-0.00443 0.030496,-0.014232 0.018164,-0.00727 0.03583,-0.015883 0.052861,-0.024397"
       id="path14" /><path
       id="path15"
       style="fill:#000000;stroke-width:0.264583"
       d="m 4.7330444,8.0775431 -0.2030883,0.054777 c 0.035392,0.038484 0.08422,0.045941 0.1317749,0.058911 0.014163,0.00386 0.027272,0.011117 0.040824,0.016536 0.00893,0.00357 0.015626,0.00991 0.024288,0.013953 0.00661,0.00309 0.014143,0.00501 0.020671,0.00827 l 5.168e-4,5.168e-4 5.168e-4,5.167e-4 c 6.681e-4,6.879e-4 0.00142,0.00186 0.00207,0.00258 h 5.168e-4 v 5.167e-4 c 2.287e-4,1.388e-4 0.00131,4.121e-4 0.00155,5.168e-4 0.00128,4.009e-4 0.00341,0.00105 0.00465,0.00155 0.00706,0.00404 0.01387,0.00987 0.02067,0.013953 0.0052,0.00312 0.010858,0.0051 0.01602,0.00827 0.00571,0.00351 0.00944,0.00603 0.010852,0.00723 v 5.168e-4 h 5.167e-4 v 5.168e-4 h -5.167e-4 -5.168e-4 c -0.00438,-7.055e-4 -0.022915,-0.010328 0.024288,0.011886 0.00571,0.00269 0.00913,0.00416 0.010335,0.00465 V 8.2826986 H 4.8384644 V 8.2821818 8.281665 h 5.167e-4 5.168e-4 5.167e-4 5.168e-4 c 0.00152,2.58e-5 0.00402,8.69e-5 0.00827,0.00103 2.486e-4,5.55e-5 0.00131,4.379e-4 0.00155,5.167e-4 4.658e-4,1.964e-4 0.0011,7.829e-4 0.00155,0.00103 0.054088,-0.02421 0.1077222,-0.046695 0.1607137,-0.067179 -0.011073,-0.00232 -0.022594,-0.00179 -0.03359,-0.00362 -0.00458,-7.672e-4 -0.012348,-0.00495 -0.01602,-0.00568 -0.010059,-0.00201 -0.00957,0.00246 -0.018604,-0.00207 v -5.168e-4 h -5.167e-4 l -5.168e-4,-5.167e-4 c -6.681e-4,-6.879e-4 -0.00194,-0.00186 -0.00258,-0.00258 v -5.167e-4 h -5.168e-4 l -5.167e-4,-5.168e-4 c -0.00359,-0.00172 -0.010529,-0.00237 -0.013436,-0.00362 -2.813e-4,-1.191e-4 -0.00129,-8.744e-4 -0.00155,-0.00103 -9.875e-4,-7.461e-4 -0.0026,-0.00191 -0.00362,-0.00258 l -5.167e-4,-5.168e-4 h -5.168e-4 c -0.00262,-7.409e-4 -0.00558,2.91e-4 -0.00827,0 -0.011758,-0.0013 -0.023822,-0.00571 -0.034623,-0.010335 -0.015904,-0.00682 -0.04465,-0.023981 -0.056844,-0.036174 V 8.1462728 H 4.8198608 V 8.145756 c -2.229e-4,-5.355e-4 -8.427e-4,-0.00203 -0.00103,-0.00258 v -5.168e-4 h -5.168e-4 c -0.00235,-0.00191 -0.00581,-0.00236 -0.00827,-0.00413 l -5.167e-4,-5.167e-4 c -0.00159,-0.00144 -0.00354,-0.00428 -0.00517,-0.00568 h -5.168e-4 l -5.167e-4,-5.167e-4 h -5.168e-4 c -7.865e-4,-2.121e-4 -0.0023,-8.61e-4 -0.0031,-0.00103 H 4.7991903 4.7986735 4.7981567 V 8.1302531 L 4.79764,8.1297363 c -9.884e-4,-0.00114 -0.00232,-0.00332 -0.0031,-0.00465 v -5.167e-4 l -5.168e-4,-5.168e-4 c -0.00346,-0.00346 -0.00865,-0.00462 -0.012402,-0.00775 -0.011377,-0.00948 -0.022696,-0.019994 -0.034623,-0.028939 -0.00481,-0.00361 -0.00954,-0.00541 -0.013953,-0.00982 z" /><path
       style="fill:#ffffff;stroke-width:1"
       d="m 17.259338,28.160946 c -0.124683,-0.324919 0.199723,-1.153267 0.820987,-2.096331 0.311825,-0.473344 0.988567,-1.496871 1.503872,-2.274507 0.515304,-0.777635 1.361074,-2.235037 1.879488,-3.238671 0.849934,-1.645445 0.923907,-1.843452 0.75267,-2.014689 -0.222511,-0.22251 -0.55389,-0.131615 -0.652721,0.179037 -0.135405,0.425616 -1.040225,2.237376 -1.151823,2.306347 -0.06238,0.03855 -0.276472,0.390967 -0.475762,0.783145 -0.19929,0.392176 -0.636688,1.123683 -0.971996,1.625569 -0.335308,0.501886 -0.759925,1.152883 -0.943594,1.446658 -0.183668,0.293776 -0.366353,0.501728 -0.405965,0.462116 -0.141775,-0.141775 -0.402013,0.208159 -0.402013,0.540575 0,0.186302 -0.07972,0.404892 -0.177155,0.485756 -0.205435,0.170497 -0.2119,0.142834 -0.49689,-2.12633 -0.113125,-0.900734 -0.140668,-1.535034 -0.07221,-1.66295 0.06284,-0.117412 0.06481,-0.288753 0.0046,-0.396412 -0.05836,-0.104289 -0.144781,-1.459219 -0.19204,-3.010955 -0.100252,-3.291734 -0.133233,-3.163312 1.16575,-4.539292 1.321606,-1.399945 2.379584,-2.756788 2.303717,-2.954491 -0.150932,-0.393323 -0.552115,-0.16577 -1.254074,0.711318 -1.152681,1.440258 -1.673183,1.945774 -1.922108,1.866769 -0.15382,-0.04882 -0.220174,-0.0056 -0.220174,0.143315 0,0.117257 -0.02681,0.186383 -0.05958,0.153611 -0.03277,-0.03277 -0.09289,-0.652961 -0.133601,-1.378201 -0.05413,-0.964286 -0.03291,-1.36815 0.07896,-1.502947 0.113142,-0.136328 0.117031,-0.220277 0.01493,-0.322375 -0.102098,-0.102098 -0.08695,-0.175408 0.05816,-0.281516 0.284005,-0.20767 0.353219,-1.2479538 0.127304,-1.9133726 C 16.33563,8.8503939 16.279115,8.4607223 16.31248,8.2861857 16.38532,7.9051419 16.088369,7.5611972 15.686546,7.5611972 c -0.235367,0 -0.302542,0.1008433 -0.429967,0.645468 -0.124784,0.5333333 -0.117516,0.8642573 0.04184,1.9048588 0.257309,1.680278 0.260135,5.034526 0.0045,5.372471 -0.249393,0.329726 -0.225805,0.743795 0.05384,0.945076 0.213889,0.153954 0.239038,0.385496 0.288086,2.652349 l 0.05374,2.48367 -0.257349,-0.135403 c -0.523914,-0.275657 -1.886085,-1.289675 -2.896769,-2.156396 -0.961093,-0.824194 -1.31583,-1.015289 -1.514996,-0.816123 -0.103156,0.103156 0.376717,1.02982 0.533292,1.02982 0.06806,0 0.616946,0.401112 1.219752,0.891361 0.602806,0.490248 1.51301,1.195652 2.022674,1.567565 0.910532,0.664434 0.926832,0.685836 0.93636,1.229463 0.02416,1.378481 0.127569,2.613193 0.312166,3.727237 0.109986,0.663761 0.171703,1.235109 0.13715,1.269662 -0.142591,0.14259 -1.115278,-0.437041 -1.984449,-1.182551 -0.841253,-0.721562 -1.096903,-1.113699 -0.832571,-1.277064 0.120591,-0.07453 0.106996,-1.079437 -0.01732,-1.280592 -0.239556,-0.387608 -1.307765,0.09765 -1.307765,0.594084 0,0.449577 -1.172681,0.461282 -1.844194,0.01841 C 10.035491,24.933069 9.6417357,24.721811 9.3295301,24.575101 8.4930158,24.182008 7.803394,23.192265 7.8513543,22.453624 7.8702048,22.163307 8.0203811,21.889872 8.3529357,21.540367 8.860811,21.006603 8.8803592,20.781049 8.4285715,20.667658 8.2730187,20.628617 7.8122798,20.275402 7.4047073,19.882735 6.8177631,19.317257 6.622763,19.031059 6.4669638,18.506426 6.2296882,17.707432 6.2287394,17.478499 6.4577793,16.290384 c 0.097767,-0.507153 0.2098314,-1.1434 0.2490321,-1.413882 0.1082937,-0.74722 0.8554185,-1.970787 1.6969037,-2.779021 0.4151252,-0.398722 0.796495,-0.724949 0.8474884,-0.724949 0.050993,0 0.092715,-0.08347 0.092715,-0.185493 0,-0.153057 0.1236193,-0.171613 0.7069415,-0.106116 0.388817,0.04366 0.800124,0.12713 0.914014,0.185494 0.303845,0.155706 0.665526,0.129479 0.822482,-0.05964 C 11.892653,11.0799 11.863081,10.986171 11.661284,10.8072 11.219311,10.415218 10.13222,8.8786858 9.9736367,8.4218213 9.742257,7.755234 9.6496012,5.430255 9.8300647,4.819215 10.063477,4.0288921 10.595318,2.9074962 10.843062,2.683291 c 0.122157,-0.1105512 0.222105,-0.2707264 0.222105,-0.3559449 0,-0.4737064 1.406562,-1.2357921 1.557052,-0.8436221 0.07143,0.1861395 0.782553,0.1025815 0.920891,-0.1082059 0.115639,-0.176199 1.798782,-0.011445 2.385645,0.2335183 0.266516,0.1112472 0.678216,0.352622 0.914888,0.5363884 0.236671,0.1837665 0.51856,0.3659503 0.62642,0.4048528 0.217971,0.078618 1.228728,1.2330931 1.44707,1.652827 0.218842,0.4206973 0.324568,1.2329766 0.317011,2.4355485 -0.0081,1.2842115 0.112541,1.4684442 1.051995,1.606911 1.187901,0.1750859 1.989023,1.5467158 2.364917,4.0490659 0.03369,0.224248 0.139552,0.247742 1.202726,0.266913 0.641185,0.01156 1.234787,0.02539 1.319118,0.03074 0.08433,0.0053 0.375231,0.21019 0.646444,0.455215 0.360739,0.325907 0.51391,0.575547 0.57058,0.929945 0.04261,0.266445 0.208145,0.677011 0.367863,0.91237 0.626804,0.923646 0.223059,3.083023 -0.985979,5.273383 -0.577419,1.046086 -2.206281,2.695777 -3.088419,3.127914 -0.33699,0.165083 -0.790748,0.295103 -1.008353,0.288935 -0.456353,-0.01293 -0.752328,0.247463 -0.553531,0.486998 0.08859,0.106741 0.08533,0.455668 -0.01062,1.137253 -0.137359,0.975704 -0.144169,0.989062 -0.88534,1.736513 -0.781564,0.788188 -1.530568,1.212343 -2.38097,1.348328 -0.409724,0.06552 -0.520182,0.04132 -0.585229,-0.128188 z"
       id="path2"
       transform="scale(0.26458333)" /></g></svg>
